<svg id="Layer_1" height="512" viewBox="0 0 512 512" width="512" xmlns="http://www.w3.org/2000/svg" data-name="Layer 1"><path d="m432.738 194.626a71.539 71.539 0 0 0 -134.175-49.179 72.623 72.623 0 0 0 -85.126 0 71.54 71.54 0 0 0 -134.175 49.179 85.517 85.517 0 0 0 -79.262 85.174v33.719a51.76 51.76 0 0 0 51.7 51.7h57.182a51.769 51.769 0 0 0 51.248 44.959h191.738a51.769 51.769 0 0 0 51.248-44.959h57.184a51.76 51.76 0 0 0 51.7-51.7v-33.719a85.517 85.517 0 0 0 -79.262-85.174zm-68.309-60.808a39.538 39.538 0 1 1 -39.537 39.537 39.582 39.582 0 0 1 39.537-39.537zm-108.429 29.849a40.862 40.862 0 1 1 -40.861 40.861 40.907 40.907 0 0 1 40.861-40.861zm-108.43-29.849a39.538 39.538 0 1 1 -39.537 39.537 39.582 39.582 0 0 1 39.537-39.537zm-115.57 179.703v-33.721a53.482 53.482 0 0 1 53.421-53.42h14.179a71.353 71.353 0 0 0 88.915 5.582 72.51 72.51 0 0 0 3.517 7.423 85.5 85.5 0 0 0 -83.6 85.376v8.462h-56.732a19.724 19.724 0 0 1 -19.7-19.702zm339.57 44.959a19.724 19.724 0 0 1 -19.7 19.7h-191.738a19.724 19.724 0 0 1 -19.7-19.7v-33.719a53.482 53.482 0 0 1 53.421-53.422h33.118a72.665 72.665 0 0 0 58.068 0h.049 33.063a53.482 53.482 0 0 1 53.421 53.422zm108.43-44.959a19.724 19.724 0 0 1 -19.7 19.7h-56.73v-8.462a85.5 85.5 0 0 0 -83.605-85.376 72.621 72.621 0 0 0 3.517-7.423 71.352 71.352 0 0 0 88.918-5.58h14.183a53.482 53.482 0 0 1 53.417 53.42z"/></svg>