<svg id="Layer_1" data-name="Layer 1" xmlns="http://www.w3.org/2000/svg" viewBox="0 0 538 555"><rect width="538" height="555" style="fill:#f9f4b2"/><path d="M432.74,194.63a71.54,71.54,0,0,0-134.18-49.18,72.59,72.59,0,0,0-85.12,0A71.54,71.54,0,0,0,79.26,194.63,85.51,85.51,0,0,0,0,279.8v33.72a51.76,51.76,0,0,0,51.7,51.7h57.18a51.77,51.77,0,0,0,51.25,45H351.87a51.78,51.78,0,0,0,51.25-45H460.3a51.76,51.76,0,0,0,51.7-51.7V279.8a85.51,85.51,0,0,0-79.26-85.17Zm-68.31-60.81a39.54,39.54,0,1,1-39.54,39.54h0A39.58,39.58,0,0,1,364.43,133.82ZM256,163.67a40.86,40.86,0,1,1-40.86,40.86h0A40.89,40.89,0,0,1,256,163.67ZM147.57,133.82A39.54,39.54,0,1,1,108,173.36h0A39.58,39.58,0,0,1,147.57,133.82ZM32,313.52V279.8a53.48,53.48,0,0,1,53.42-53.42H99.6A71.35,71.35,0,0,0,188.52,232a71.82,71.82,0,0,0,3.51,7.42,85.51,85.51,0,0,0-83.6,85.38v8.46H51.7A19.71,19.71,0,0,1,32,313.52Zm339.57,45a19.73,19.73,0,0,1-19.7,19.7H160.13a19.73,19.73,0,0,1-19.7-19.7V324.76a53.48,53.48,0,0,1,53.42-53.42H227a72.67,72.67,0,0,0,58.07,0h33.11a53.48,53.48,0,0,1,53.42,53.42Zm108.43-45a19.72,19.72,0,0,1-19.7,19.7H403.57v-8.46A85.51,85.51,0,0,0,320,239.38a69.88,69.88,0,0,0,3.52-7.42,71.35,71.35,0,0,0,88.92-5.58h14.18A53.48,53.48,0,0,1,480,279.8Z" transform="translate(14 13)" style="fill:#fe0"/></svg>