<svg id="Layer_1" height="512" viewBox="0 0 512 512" width="512" xmlns="http://www.w3.org/2000/svg" data-name="Layer 1"><path d="m262.018 355.015a6.009 6.009 0 1 1 -6.025-6h.028a6 6 0 0 1 6 6zm207.982-26.75h-428v-266.103h428v266.1zm6-278.1h-440a6 6 0 0 0 -6 6v278.1a6 6 0 0 0 6 6h440a5.992 5.992 0 0 0 6-6v-278.103a5.991 5.991 0 0 0 -6-6zm24 306.628v-311.662a12.99 12.99 0 0 0 -12.974-12.969h-462.044a12.992 12.992 0 0 0 -12.982 12.969v311.662a12.992 12.992 0 0 0 12.984 12.969h462.044a12.989 12.989 0 0 0 12.972-12.969zm-170.292 80.071h-147.416a179.088 179.088 0 0 0 27.6-55.1h92.228a179.24 179.24 0 0 0 27.589 55.1zm157.32-416.7h-462.046a25 25 0 0 0 -24.982 24.967v311.662a25 25 0 0 0 24.981 24.972h172.34a167.337 167.337 0 0 1 -30.25 55.1h-15.54a27.511 27.511 0 0 0 -27.481 27.481v21.489a6.007 6.007 0 0 0 6 6h251.908a6.007 6.007 0 0 0 6-6v-21.49a27.514 27.514 0 0 0 -27.491-27.481h-15.53a167.36 167.36 0 0 1 -30.245-55.1h172.336a25 25 0 0 0 24.972-24.971v-311.662a25 25 0 0 0 -24.971-24.966zm-231.028 106.047a69 69 0 1 0 69 69 69.083 69.083 0 0 0 -69-69zm0-12a81 81 0 1 0 81 81 81.1 81.1 0 0 0 -81-81zm0 187a106 106 0 1 0 -106-106 106.115 106.115 0 0 0 106 106zm38.38-134.49c-7.591-14.1-20.292-22.509-33.95-22.509-17.672 0-32.765 14.05-38.464 33.671h-14.057a6 6 0 1 0 0 12h11.851c-.141 1.75-.221 3.528-.221 5.331s.08 3.58.221 5.331h-11.851a6 6 0 1 0 0 12h14.059c5.7 19.612 20.792 33.671 38.464 33.671 13.658 0 26.359-8.412 33.95-22.509a6 6 0 0 0 -10.573-5.694c-5.459 10.143-14.2 16.2-23.377 16.2-11.322 0-21.14-8.836-25.872-21.669h30.74a6 6 0 0 0 0-12h-33.481a51.253 51.253 0 0 1 0-10.662h33.481a6 6 0 0 0 0-12h-30.74c4.732-12.832 14.55-21.673 25.872-21.673 9.176 0 17.918 6.053 23.377 16.2a6 6 0 0 0 10.573-5.69z" fill-rule="evenodd"/></svg>