<svg id="Calque_1" data-name="Calque 1" xmlns="http://www.w3.org/2000/svg" viewBox="0 0 505 505"><rect width="505" height="505" style="fill:#a7dbfc"/><path d="M239.3,81.1h37.6a40,40,0,0,1,30.7,14.4l44.7,53.6a39.88,39.88,0,0,1,9.3,25.6V428a40,40,0,0,1-40,40H157a40,40,0,0,1-40-40V174.7a39.88,39.88,0,0,1,9.3-25.6L171,95.5a40.13,40.13,0,0,1,30.7-14.4Zm0,67.9A31.7,31.7,0,1,0,271,180.7,31.7,31.7,0,0,0,239.3,149Z" transform="translate(15 13)" style="fill:#00efd1"/><path d="M239.3,149a31.7,31.7,0,1,1-31.7,31.7A31.7,31.7,0,0,1,239.3,149Z" transform="translate(15 13)" style="fill:#00acea"/><path d="M312.18,95.35A47.82,47.82,0,0,0,275.4,78.11H248.88V19.7a9.58,9.58,0,1,0-19.16,0V78.11H203.29a47.8,47.8,0,0,0-36.77,17.24l-42.81,51.33a47.81,47.81,0,0,0-11.11,30.65V420a47.9,47.9,0,0,0,47.88,47.88H318.12A47.9,47.9,0,0,0,366,420V177.42a47.8,47.8,0,0,0-11.11-30.64ZM346.85,420a28.83,28.83,0,0,1-28.73,28.73H160.48A28.83,28.83,0,0,1,131.75,420V177.42A28.79,28.79,0,0,1,138.46,159l42.81-51.34a28.45,28.45,0,0,1,22-10.34h26.43v47.12a39.93,39.93,0,1,0,19.16,0V97.27h26.43a28.42,28.42,0,0,1,22,10.34l42.81,51.33a28.76,28.76,0,0,1,6.71,18.39Zm-110-257.42a10.83,10.83,0,0,0,5,0,20.78,20.78,0,1,1-5,0Z" transform="translate(15 13)" style="fill:#083863"/><path d="M274.35,292.63a9.55,9.55,0,0,0,6.9-17.81A64.51,64.51,0,0,0,197.16,314H187.3a9.58,9.58,0,1,0,0,19.15h6.41c0,1.72,0,3.54.1,5.27H187.3a9.58,9.58,0,1,0,0,19.15h10.53a66,66,0,0,0,14.66,22.79,64.33,64.33,0,0,0,68.66,14.56,9.55,9.55,0,0,0-6.89-17.82A45.31,45.31,0,0,1,226,366.85a43.68,43.68,0,0,1-7.09-9.2h43.48a9.58,9.58,0,0,0,0-19.15H213a46.31,46.31,0,0,1-.1-5.27H268a9.58,9.58,0,1,0,0-19.15H217.85A46,46,0,0,1,226,303,45.16,45.16,0,0,1,274.35,292.63Z" transform="translate(15 13)" style="fill:#083863"/></svg>