<svg fill="none" height="24" viewBox="0 0 24 24" width="24" xmlns="http://www.w3.org/2000/svg"><g clip-rule="evenodd" fill="#000" fill-rule="evenodd"><path d="m1.25 4c0-.41421.33579-.75.75-.75h20c.4142 0 .75.33579.75.75v16c0 .4142-.3358.75-.75.75h-20c-.41421 0-.75-.3358-.75-.75zm1.5.75v2.5h18.5v-2.5zm18.5 4h-18.5v10.5h18.5z"/><path d="m5.5 2.25c.41421 0 .75.33579.75.75v3c0 .41421-.33579.75-.75.75s-.75-.33579-.75-.75v-3c0-.41421.33579-.75.75-.75z"/><path d="m10 2.25c.4142 0 .75.33579.75.75v3c0 .41421-.3358.75-.75.75-.41421 0-.75-.33579-.75-.75v-3c0-.41421.33579-.75.75-.75z"/><path d="m14 2.25c.4142 0 .75.33579.75.75v3c0 .41421-.3358.75-.75.75s-.75-.33579-.75-.75v-3c0-.41421.3358-.75.75-.75z"/><path d="m18.5 2.25c.4142 0 .75.33579.75.75v3c0 .41421-.3358.75-.75.75s-.75-.33579-.75-.75v-3c0-.41421.3358-.75.75-.75z"/><path d="m16.5045 10.4451c.3065.2786.3291.7529.0505 1.0594l-5 5.5c-.146.1605-.3542.25-.5711.2453-.2169-.0046-.4212-.103-.56-.2697l-2.50005-3c-.26517-.3182-.22218-.7911.09603-1.0563.31821-.2651.79113-.2221 1.0563.0961l1.94842 2.3381 4.4205-4.8625c.2786-.3065.7529-.3291 1.0594-.0504z"/></g></svg>