<svg id="Calque_1" data-name="Calque 1" xmlns="http://www.w3.org/2000/svg" viewBox="0 0 25.89 25.89"><rect width="25.89" height="25.89" style="fill:#fcc5c5"/><g id="Layer_2" data-name="Layer 2"><path d="M21,22.75H3A1.75,1.75,0,0,1,1.25,21V7A.76.76,0,0,1,2,6.25H22a.76.76,0,0,1,.75.75V21A1.75,1.75,0,0,1,21,22.75ZM2.75,7.75V21a.25.25,0,0,0,.25.25H21a.25.25,0,0,0,.25-.25V7.75Z" transform="translate(0.98 0.86)" style="fill:#a0140e"/><path d="M11.17,16.92a.75.75,0,0,1-.53-.22L9,15A.75.75,0,0,1,10,14l1.14,1.14L14,12.3A.75.75,0,0,1,15,13.36h0L11.7,16.7A.75.75,0,0,1,11.17,16.92Z" transform="translate(0.98 0.86)" style="fill:#a0140e"/><path d="M22,7.75H2A.76.76,0,0,1,1.25,7V4A1.75,1.75,0,0,1,3,2.25H21A1.75,1.75,0,0,1,22.75,4V7A.76.76,0,0,1,22,7.75ZM2.75,6.25h18.5V4A.25.25,0,0,0,21,3.75H3A.25.25,0,0,0,2.75,4Z" transform="translate(0.98 0.86)" style="fill:#a0140e"/><path d="M14.17,4.75A.75.75,0,0,1,13.42,4V2a.75.75,0,0,1,1.5,0V4A.76.76,0,0,1,14.17,4.75Z" transform="translate(0.98 0.86)" style="fill:#a0140e"/><path d="M9.83,4.75A.76.76,0,0,1,9.08,4V2a.75.75,0,0,1,1.5,0V4A.75.75,0,0,1,9.83,4.75Z" transform="translate(0.98 0.86)" style="fill:#a0140e"/><path d="M5.5,4.75A.76.76,0,0,1,4.75,4V2a.75.75,0,0,1,1.5,0V4A.76.76,0,0,1,5.5,4.75Z" transform="translate(0.98 0.86)" style="fill:#a0140e"/><path d="M18.5,4.75A.76.76,0,0,1,17.75,4V2a.75.75,0,0,1,1.5,0V4A.76.76,0,0,1,18.5,4.75Z" transform="translate(0.98 0.86)" style="fill:#a0140e"/><path d="M20,20.75H4A.76.76,0,0,1,3.25,20V9A.76.76,0,0,1,4,8.25H20a.76.76,0,0,1,.75.75V20A.76.76,0,0,1,20,20.75ZM4.75,19.25h14.5V9.75H4.75Z" transform="translate(0.98 0.86)" style="fill:#a0140e"/></g></svg>