<?xml version="1.0"?>
<svg xmlns="http://www.w3.org/2000/svg" viewBox="0 0 24 24"><g id="Layer_2" data-name="Layer 2"><path d="M21,22.75H3A1.75213,1.75213,0,0,1,1.25,21V7A.7502.7502,0,0,1,2,6.25H22a.7502.7502,0,0,1,.75.75V21A1.75213,1.75213,0,0,1,21,22.75ZM2.75,7.75V21a.25048.25048,0,0,0,.25.25H21a.25048.25048,0,0,0,.25-.25V7.75Z"/><path d="M11.1665,16.9165a.74757.74757,0,0,1-.53027-.21972l-1.6665-1.66651a.74992.74992,0,0,1,1.06054-1.06054L11.1665,15.106l2.80323-2.80274a.74992.74992,0,1,1,1.06054,1.06055l-3.33349,3.333A.7476.7476,0,0,1,11.1665,16.9165Z"/><path d="M22,7.75H2A.7502.7502,0,0,1,1.25,7V4A1.75213,1.75213,0,0,1,3,2.25H21A1.75213,1.75213,0,0,1,22.75,4V7A.7502.7502,0,0,1,22,7.75ZM2.75,6.25h18.5V4A.25048.25048,0,0,0,21,3.75H3A.25048.25048,0,0,0,2.75,4Z"/><path d="M14.167,4.75a.7502.7502,0,0,1-.75-.75V2a.75.75,0,1,1,1.5,0V4A.7502.7502,0,0,1,14.167,4.75Z"/><path d="M9.8335,4.75a.75019.75019,0,0,1-.75-.75V2a.75.75,0,0,1,1.5,0V4A.7502.7502,0,0,1,9.8335,4.75Z"/><path d="M5.5,4.75A.7502.7502,0,0,1,4.75,4V2a.75.75,0,0,1,1.5,0V4A.7502.7502,0,0,1,5.5,4.75Z"/><path d="M18.5,4.75A.7502.7502,0,0,1,17.75,4V2a.75.75,0,0,1,1.5,0V4A.7502.7502,0,0,1,18.5,4.75Z"/><path d="M20,20.75H4A.7502.7502,0,0,1,3.25,20V9A.7502.7502,0,0,1,4,8.25H20a.7502.7502,0,0,1,.75.75V20A.7502.7502,0,0,1,20,20.75ZM4.75,19.25h14.5V9.75H4.75Z"/></g></svg>
