<svg id="Calque_1" data-name="Calque 1" xmlns="http://www.w3.org/2000/svg" viewBox="0 0 543.1 543.1"><rect width="543.1" height="543.1" style="fill:#c5fcc9"/><path d="M318.94,216V318H223.75Z" transform="translate(12.24 15.55)" style="fill:#78f98e"/><path d="M199.76,318h215.5a13.44,13.44,0,0,1,13.44,13.44v53.09A13.45,13.45,0,0,1,415.26,398H139.37A56.07,56.07,0,0,1,83.3,341.89V216" transform="translate(12.24 15.55)" style="fill:#78f98e"/><ellipse cx="213.36" cy="231.56" rx="117.82" ry="101.97" style="fill:#05d823"/><ellipse cx="213.36" cy="231.56" rx="85.9" ry="70.05" style="fill:#78f98e"/><ellipse cx="213.36" cy="231.56" rx="53.99" ry="38.14" style="fill:#05d823"/><path d="M201.12,290.27c49.69,0,90.11-33.31,90.11-74.26s-40.42-74.25-90.11-74.25S111,175.07,111,216s40.42,74.26,90.11,74.26Zm0-140.11c45,0,81.7,29.54,81.7,65.85s-36.65,65.85-81.7,65.85-81.7-29.54-81.7-65.85,36.65-65.85,81.7-65.85Z" transform="translate(12.24 15.55)"/><path d="M201.12,258.36c31.54,0,58.19-19.4,58.19-42.35s-26.65-42.34-58.19-42.34S142.93,193.06,142.93,216,169.57,258.36,201.12,258.36Zm0-76.28c27,0,49.78,15.54,49.78,33.93S228.11,250,201.12,250,151.33,234.41,151.33,216,174.13,182.08,201.12,182.08Z" transform="translate(12.24 15.55)"/><path d="M79.1,341.89a60.38,60.38,0,0,0,60.27,60.27H415.26a17.66,17.66,0,0,0,17.64-17.65V331.42a17.66,17.66,0,0,0-17.64-17.64H323.14V216c0-58.54-54.74-106.17-122-106.17S79.1,157.47,79.1,216V341.89Zm235.64-28.11h-66c30.12-11.14,54.05-32.54,66-59.12ZM201.12,118.25c62.65,0,113.62,43.85,113.62,97.76s-51,97.77-113.62,97.77S87.5,269.92,87.5,216,138.47,118.25,201.12,118.25Zm-1.52,203.9c.05,0,.1,0,.16,0h215.5a9.25,9.25,0,0,1,9.24,9.23v53.09a9.25,9.25,0,0,1-9.24,9.24H395.61V371.63a4.21,4.21,0,1,0-8.41,0v22.12H360.79V379.12a4.2,4.2,0,0,0-8.4,0v14.63H326V371.63a4.2,4.2,0,1,0-8.4,0v22.12H291.16V379.12a4.21,4.21,0,0,0-8.41,0v14.63H256.34V371.63a4.2,4.2,0,1,0-8.4,0v22.12H221.53V379.12a4.21,4.21,0,0,0-8.41,0v14.63H186.71V371.63a4.21,4.21,0,1,0-8.41,0v22.12H151.89V379.12a4.2,4.2,0,1,0-8.4,0v14.63h-4.12a51.4,51.4,0,0,1-22.29-5.1v-17a4.21,4.21,0,1,0-8.41,0v12a51.77,51.77,0,0,1-21.16-41.7V254.66c17.62,39.09,61.13,66.94,112.08,67.49Z" transform="translate(12.24 15.55)"/></svg>