<svg id="Layer_1" viewBox="0 0 64 64" xmlns="http://www.w3.org/2000/svg"><path d="m61 40.33h-58c-.553 0-1 .448-1 1v15.647c0 .552.447 1 1 1h58c.553 0 1-.448 1-1v-15.647c0-.552-.447-1-1-1zm-1 15.647h-2.116v-3.096c0-.552-.447-1-1-1s-1 .448-1 1v3.096h-2.977v-3.096c0-.552-.447-1-1-1s-1 .448-1 1v3.096h-2.978v-3.096c0-.552-.447-1-1-1s-1 .448-1 1v3.096h-2.977v-3.096c0-.552-.447-1-1-1s-1 .448-1 1v3.096h-2.977v-3.096c0-.552-.447-1-1-1s-1 .448-1 1v3.096h-2.977v-3.096c0-.552-.447-1-1-1s-1 .448-1 1v3.096h-2.977v-3.096c0-.552-.447-1-1-1s-1 .448-1 1v3.096h-2.977v-3.096c0-.552-.447-1-1-1s-1 .448-1 1v3.096h-2.977v-3.096c0-.552-.447-1-1-1s-1 .448-1 1v3.096h-2.978v-3.096c0-.552-.447-1-1-1s-1 .448-1 1v3.096h-2.977v-3.096c0-.552-.447-1-1-1s-1 .448-1 1v3.096h-2.116v-13.647h56v13.647z"/><path d="m17.531 12.22c-5.147 0-9.335 4.188-9.335 9.335s4.188 9.335 9.335 9.335 9.336-4.188 9.336-9.335-4.188-9.335-9.336-9.335zm0 16.671c-4.045 0-7.335-3.291-7.335-7.335s3.29-7.335 7.335-7.335 7.336 3.291 7.336 7.335-3.291 7.335-7.336 7.335z"/><path d="m17.531 16.882c-2.576 0-4.673 2.097-4.673 4.673s2.097 4.673 4.673 4.673 4.674-2.097 4.674-4.673-2.097-4.673-4.674-4.673zm0 7.347c-1.474 0-2.673-1.199-2.673-2.673s1.199-2.673 2.673-2.673 2.674 1.199 2.674 2.673-1.199 2.673-2.674 2.673z"/><path d="m61 32.056h-27.937v-8.572h1.491c1.537 0 2.787-1.25 2.787-2.787v-3.752c0-1.537-1.25-2.787-2.787-2.787h-1.586c-.62-4.585-4.549-8.134-9.302-8.134h-12.271c-5.182 0-9.396 4.215-9.396 9.396v12.271c0 5.181 4.215 9.396 9.396 9.396h20.667c.553 0 1-.448 1-1v-2.031h26.937v2.031c0 .552.447 1 1 1s1-.448 1-1v-3.031c0-.552-.447-1-1-1zm-25.658-15.112v3.752c0 .434-.354.787-.787.787h-1.491v-5.326h1.491c.434 0 .787.353.787.787zm-23.946 18.142c-4.078 0-7.396-3.318-7.396-7.396v-12.271c0-4.078 3.318-7.396 7.396-7.396h12.271c4.078 0 7.396 3.318 7.396 7.396v17.322c-.034.1-.063.203-.063.315s.03.214.063.315v1.716h-19.667z"/></svg>