<svg height="14" viewBox="0 0 16 14" width="16" xmlns="http://www.w3.org/2000/svg" xmlns:sketch="http://www.bohemiancoding.com/sketch/ns"><g id="Map-and-Location" fill="none" fill-rule="evenodd"><path id="car" d="m13.5 1s-.4970093-1-1.5-1h-8c-1 0-1.47287598 1-1.47287598 1l-2.52712402 6v4h16v-4zm-9.5 0c-.37255859 0-.59790039.421875-.59790039.421875l-1.90209961 4.578125h13l-1.9000015-4.61698644s-.1961899-.38301356-.5999985-.38301356zm-2 13c1.10456955 0 2-.8954304 2-2h-4c0 1.1045696.89543045 2 2 2zm12 0c1.1045696 0 2-.8954304 2-2h-4c0 1.1045696.8954304 2 2 2zm-11.5-4c.82842717 0 1.5-.67157283 1.5-1.5s-.67157283-1.5-1.5-1.5-1.5.67157283-1.5 1.5.67157283 1.5 1.5 1.5zm11 0c.8284272 0 1.5-.67157283 1.5-1.5s-.6715728-1.5-1.5-1.5-1.5.67157283-1.5 1.5.6715728 1.5 1.5 1.5zm-13.5 1.5v.5h16v-.5z" fill="#000"/></g></svg>