<svg width="160" height="106" viewBox="0 0 160 106" fill="none" xmlns="http://www.w3.org/2000/svg">
<g clip-path="url(#clip0_426_477)">
<path d="M86.5786 51.4788C87.7297 52.3637 88.9901 53.1477 90.0247 54.1619C93.4217 57.4929 94.8946 64.532 89.9194 69.3271C87.996 71.1807 85.6196 72.2851 83.0193 72.9055C78.615 73.9561 74.383 73.4933 70.4154 71.3096C67.5399 69.7271 65.4042 67.4763 64.738 64.1072C63.8422 59.5785 65.5605 54.7827 69.8981 52.337C70.2805 52.1214 70.6663 51.9121 71.1174 51.663C70.5026 51.19 69.9226 50.7625 69.3628 50.3101C67.3545 48.6865 66.2059 46.5481 65.8274 44.0321C65.4213 41.3334 66.2965 38.9744 68.1233 36.9945C70.6279 34.2802 73.8232 32.9705 77.4502 32.6339C80.8359 32.3197 83.984 33.0915 86.8712 34.8598C89.7641 36.6313 91.6434 39.1451 91.8116 42.6046C91.9452 45.3499 90.8494 47.7191 88.8627 49.6246C88.133 50.3244 87.2906 50.9066 86.5786 51.4788ZM84.5986 62.0778C84.6758 59.5997 84.0892 57.3457 82.5952 55.3946C80.5961 52.7839 76.7136 52.7728 74.8807 55.4711C72.3538 59.1905 72.145 63.2236 74.1698 67.1796C76.2096 71.1647 80.8504 71.2306 83.2454 67.437C84.2765 65.8038 84.676 63.9713 84.5986 62.078V62.0778ZM74.3553 43.2248C74.2766 45.3588 74.6653 47.3419 76.1367 49.0058C77.1974 50.2053 78.6333 50.5789 80.112 49.9583C81.4479 49.3976 82.1322 48.269 82.6467 46.9943C83.2993 45.3776 83.3087 43.6808 83.1948 41.9944C83.1005 40.5976 82.8594 39.2077 82.1449 37.9532C81.6211 37.0336 80.9217 36.3148 79.8999 35.977C78.1249 35.3902 76.3439 36.1722 75.4066 37.9428C74.531 39.5969 74.2895 41.3814 74.3553 43.2248Z" fill="black"/>
<path d="M41.2562 73.9157C41.0435 73.2842 40.8232 72.6293 40.5709 71.8796C41.0081 71.7746 41.3687 71.6767 41.7342 71.6022C45.4151 70.8514 48.2119 68.8291 50.209 65.6808C52.3706 62.2733 53.4386 58.4804 54.0704 54.54C54.0848 54.4504 54.0623 54.3548 54.0523 54.1778C53.499 54.7799 53.0347 55.3787 52.4786 55.8742C50.1695 57.9313 47.4462 58.3592 44.5062 57.7677C38.87 56.6337 34.8146 52.3357 34.0999 46.6501C33.6668 43.2033 34.6489 40.121 36.9108 37.4896C39.4413 34.5454 42.6438 32.601 46.4865 32.1332C54.3182 31.1795 61.0323 35.3808 62.7615 43.5988C64.0677 49.8068 62.8052 55.7058 60.1969 61.3612C58.4171 65.2203 55.9291 68.5511 52.3945 71.0082C49.0659 73.3221 45.3806 74.3093 41.2562 73.9157ZM54.8293 46.8372C54.8293 43.6054 54.501 41.3261 53.6657 39.2228C52.95 37.4214 51.8195 35.976 49.852 35.4754C48.2348 35.0639 46.6389 35.1414 45.4072 36.4677C44.4831 37.4628 43.8698 38.6554 43.5338 39.984C42.8182 42.8131 42.8697 45.669 43.2475 48.5305C43.3429 49.2536 43.5023 49.9834 43.7467 50.6693C44.7127 53.38 46.9986 54.6342 49.8411 53.8075C52.6689 52.985 55.236 51.1373 54.8316 47.3169C54.8149 47.1587 54.8295 46.9973 54.8295 46.8374L54.8293 46.8372Z" fill="black"/>
<path d="M107.568 40.5188V49.1495C108.064 49.1495 108.503 49.1449 108.941 49.1503C111.526 49.1817 114.121 48.995 116.682 49.5142C118.995 49.9832 121.206 50.7251 123.04 52.2645C126.311 55.0104 126.899 59.0137 124.665 62.687C123.085 65.2844 120.739 67.0363 118.199 68.5503C115.178 70.35 111.908 71.5466 108.453 72.1846C106.863 72.478 105.246 72.6662 103.539 72.4475V69.9225C104.437 69.8785 105.297 69.8945 106.14 69.7847C109.082 69.4017 111.469 67.9322 113.566 65.9104C115.16 64.3737 116.419 62.6346 116.929 60.4392C117.403 58.4008 116.658 56.6048 114.897 55.4815C113.41 54.532 111.737 54.3207 110.029 54.2889C108.462 54.2598 106.894 54.2823 105.326 54.2822C104.98 54.2822 104.635 54.2822 104.215 54.2822V33.54H124.748C123.757 35.8792 122.796 38.1473 121.79 40.519L107.568 40.5188Z" fill="black"/>
<path d="M97.0572 73.3694C95.3805 73.3573 94.0421 71.993 94.0333 70.2868C94.0242 68.5428 95.2954 67.2943 97.086 67.2881C98.9105 67.2819 100.174 68.5476 100.16 70.3662C100.146 72.0312 98.7512 73.3816 97.0572 73.3694Z" fill="black"/>
</g>
<defs>
<clipPath id="clip0_426_477">
<rect width="92" height="42" fill="white" transform="translate(34 32)"/>
</clipPath>
</defs>
</svg>
