<svg width="160" height="106" viewBox="0 0 160 106" fill="none" xmlns="http://www.w3.org/2000/svg">
<path fill-rule="evenodd" clip-rule="evenodd" d="M148 32.0205H12V74.98H148V32.0205ZM48.6423 51.8459V58.7149C48.6423 58.9056 48.6422 59.0902 48.6422 59.2688C48.6411 62.7248 48.6408 63.9684 49.0558 65.6067H44.3463C44.3367 65.5345 44.324 65.4471 44.31 65.3505C44.2573 64.9863 44.1855 64.4911 44.1855 64.1824C43.6801 65.1932 42.3707 65.8824 40.9463 65.8824C38.0977 65.8824 36.4436 64.2284 36.4436 60.9892C36.4436 57.8419 38.0517 56.3027 41.1761 55.223C43.2896 54.5108 43.9098 53.9135 43.9098 52.65V52.0986C43.9098 51.3176 43.6112 50.8351 42.9909 50.8351C42.3707 50.8351 42.0261 51.2946 42.0261 52.0986V53.3392H37.2477V51.8459C37.2477 48.5378 39.1544 46.6081 42.945 46.6081C46.7126 46.6081 48.6423 48.423 48.6423 51.8459ZM42.4855 61.7013C43.2436 61.7013 43.749 61.1959 43.749 60.0703H43.772V57.5203C43.772 57.5203 43.3355 57.8189 42.8761 58.0027C41.6815 58.4622 41.2909 59.0135 41.2909 60.323C41.2909 61.1959 41.7504 61.7013 42.4855 61.7013ZM50.4801 52.0297C50.4801 48.6297 52.6626 46.6311 56.4531 46.6311C60.2207 46.6311 62.4261 48.6297 62.4261 52.0297V53.3392H57.372V52.2135C57.372 51.3865 57.0734 50.904 56.4531 50.904C55.8328 50.904 55.5342 51.3865 55.5342 52.2135V60.323C55.5342 61.15 55.8328 61.6324 56.4531 61.6324C57.0734 61.6324 57.372 61.15 57.372 60.323V59.1973H62.4261V60.5067C62.4261 63.9297 60.2436 65.9284 56.4531 65.9284C52.6855 65.9284 50.4801 63.9297 50.4801 60.5067V52.0297ZM63.4369 46.9067H64.9761V41.1635H70.0301V46.9067H72.7639V51.2027H70.0301V59.5189C70.0301 61.0811 70.949 61.5176 72.7639 61.3338V65.6297C67.2963 65.9973 64.9761 64.4581 64.9761 59.8865V51.2027H63.4369V46.9067ZM115.792 46.9067H117.331V41.1635H122.386V46.9067H125.119V51.2027H122.386V59.5189C122.386 61.0811 123.304 61.5176 125.119 61.3338V65.6297C119.652 65.9973 117.331 64.4581 117.331 59.8865V51.2027H115.792V46.9067ZM80.5747 61.6324C81.195 61.6324 81.6544 61.15 81.6544 60.323V46.9067H86.7085V65.6297H81.7693V64.4581C81.2639 65.2851 80.1842 65.9054 79.0355 65.9054C76.095 65.9054 74.4409 64.1594 74.4409 60.6676V46.9067H79.495V60.323C79.495 61.15 79.9545 61.6324 80.5747 61.6324ZM100.4 51.8459V58.7149C100.4 59.0565 100.4 59.3781 100.4 59.6816C100.396 62.8271 100.395 64.0354 100.814 65.6067H96.1045C96.0948 65.5345 96.0822 65.4471 96.0682 65.3505C96.0154 64.9863 95.9436 64.4911 95.9436 64.1824C95.4382 65.1932 94.1288 65.8824 92.7045 65.8824C89.8558 65.8824 88.2018 64.2284 88.2018 60.9892C88.2018 57.8419 89.8099 56.3027 92.9342 55.223C95.0477 54.5108 95.668 53.9135 95.668 52.65V52.0986C95.668 51.3176 95.3693 50.8351 94.7491 50.8351C94.1288 50.8351 93.7842 51.2946 93.7842 52.0986V53.3392H89.0058V51.8459C89.0058 48.5378 90.9126 46.6081 94.7031 46.6081C98.4707 46.6081 100.4 48.423 100.4 51.8459ZM94.2436 61.7013C95.0017 61.7013 95.5072 61.1959 95.5072 60.0703H95.5301V57.5203C95.5301 57.5203 95.0936 57.8189 94.6342 58.0027C93.4396 58.4622 93.049 59.0135 93.049 60.323C93.049 61.1959 93.5085 61.7013 94.2436 61.7013ZM107.453 41.1865H102.399V65.6297H107.453V41.1865ZM114.529 41.1865H109.475V45.4365H114.529V41.1865ZM114.529 46.9067H109.475V65.6067H114.529V46.9067ZM133.987 45H130.265L132.471 41.1865H137.548L133.987 45ZM126.636 52.0297C126.636 48.6297 128.933 46.6311 132.723 46.6311C136.491 46.6311 138.811 48.6297 138.811 52.0527V57.5662H131.69V60.323C131.69 61.15 132.103 61.6324 132.723 61.6324C133.344 61.6324 133.757 61.15 133.757 60.323V59.1973H138.811V60.5067C138.811 63.9297 136.514 65.9284 132.723 65.9284C128.956 65.9284 126.636 63.9297 126.636 60.5067V52.0297ZM131.667 52.2365V54.4419H133.734V52.2365C133.734 51.4094 133.321 50.927 132.7 50.927C132.08 50.927 131.667 51.4094 131.667 52.2365ZM30.8612 45.7811V41.1865H35.8463V45.7811C35.7315 48.9054 33.8247 50.5365 30.8612 50.5594V48.2392C32.4463 48.2392 33.2734 47.527 33.3653 45.7811H30.8612ZM30.8612 65.6067H21.1436V41.1865H26.2207V61.3338H30.8612V65.6067Z" fill="black"/>
</svg>
