<svg width="144" height="96" viewBox="0 0 144 96" fill="none" xmlns="http://www.w3.org/2000/svg">
<path d="M35.1394 35.9311C35.4592 36.1884 35.6867 36.5432 35.8051 37.0106C35.8572 37.2163 35.8657 37.4338 35.8837 37.6467C35.9277 38.1678 35.9672 38.6892 36.0051 39.2108C36.0293 39.5439 36.0431 39.8778 36.069 40.2107C36.1042 40.6623 36.1484 41.1132 36.1852 41.5647C36.21 41.8677 36.2273 42.1712 36.2506 42.4743C36.2891 42.9758 36.3309 43.4771 36.3691 43.9786C36.3925 44.2867 36.4095 44.5953 36.4334 44.9033C36.4708 45.3848 36.5124 45.866 36.5505 46.3475C36.5737 46.6405 36.593 46.9339 36.6154 47.2271C36.6545 47.7385 36.6957 48.2498 36.7341 48.7613C36.7573 49.0694 36.7745 49.378 36.7984 49.686C36.8358 50.1675 36.8776 50.6487 36.9154 51.1301C36.9391 51.4331 36.9574 51.7366 36.9807 52.0397C37.0192 52.5412 37.0612 53.0423 37.0988 53.5438C37.123 53.8669 37.1389 54.1906 37.1637 54.5136C37.2003 54.9901 37.2428 55.4662 37.2802 55.9427C37.3043 56.2508 37.3223 56.5593 37.3457 56.8674C37.3841 57.3738 37.4255 57.88 37.4641 58.3865C37.4869 58.6846 37.5053 58.9831 37.5282 59.2812C37.5671 59.7876 37.6099 60.2938 37.6472 60.8003C37.6718 61.1334 37.6861 61.4672 37.7114 61.8002C37.7476 62.2768 37.7904 62.7528 37.829 63.2292C37.8511 63.5023 37.8729 63.7754 37.8906 64.0488C37.9235 64.5562 37.9533 65.0639 37.9844 65.5714C38.0173 66.1087 37.8223 66.5729 37.4961 66.9854C37.0382 67.5643 36.4404 67.9362 35.7164 68.1059C35.6632 68.1184 35.6058 68.1136 35.5503 68.1168C35.4979 68.1266 35.4454 68.1451 35.3929 68.1451C25.7027 68.1463 16.0124 68.1463 6.32214 68.145C6.2696 68.145 6.21706 68.1266 6.16453 68.1168C5.69851 68.099 5.25952 67.9944 4.91033 67.6698C4.54195 67.3273 4.46213 66.8816 4.53976 66.413C4.5766 66.1906 4.67039 65.9718 4.76966 65.7662C5.26707 64.736 5.7757 63.711 6.27877 62.6834C6.70236 61.8182 7.12358 60.9519 7.5463 60.0862C7.98446 59.189 8.42341 58.2922 8.86157 57.3949C9.27765 56.5429 9.69293 55.6904 10.1089 54.8382C10.5448 53.9455 10.9809 53.0529 11.4173 52.1604C11.7303 51.5203 12.0441 50.8806 12.3572 50.2405C12.8025 49.3301 13.2474 48.4194 13.6928 47.5089C14.1514 46.5714 14.6105 45.6341 15.0694 44.6967L13.8804 43.6835C10.587 50.4197 7.29338 57.1559 4.00095 63.8925C3.72803 64.451 3.45148 65.0086 3.20589 65.5789C3.09904 65.827 3.06635 66.1064 3 66.3715C3 66.5721 3 66.7726 3 66.9732C3.05465 67.2059 3.08794 67.4461 3.16765 67.6701C3.52814 68.6829 4.29549 69.2489 5.31704 69.4906C5.70199 69.5816 6.10859 69.6197 6.50535 69.62C16.1066 69.6269 25.7079 69.6272 35.3092 69.6234C36.6637 69.6228 37.7299 69.0064 38.5926 68.0194C39.2152 67.3072 39.544 66.4716 39.4992 65.5214C39.463 64.756 39.3921 63.9923 39.336 63.2279C39.2917 62.6234 39.2471 62.0189 39.2015 61.4144C39.1344 60.5253 39.066 59.6363 38.9988 58.7471C38.9442 58.0228 38.8912 57.2983 38.8364 56.574C38.7691 55.6849 38.7001 54.7959 38.633 53.9068C38.5782 53.1824 38.526 52.4579 38.4709 51.7336C38.3941 50.7247 38.3152 49.7159 38.2381 48.7069C38.1832 47.9876 38.1305 47.2682 38.0755 46.5489C38.0087 45.6748 37.94 44.8009 37.8731 43.9268C37.8184 43.2125 37.7655 42.4981 37.7108 41.7838C37.6332 40.7699 37.5547 39.7561 37.4767 38.7422C37.4352 38.2027 37.4078 37.6618 37.3498 37.1241C37.2093 35.8223 36.516 34.8926 35.3451 34.309C35.0698 34.1718 34.7829 34.0757 34.4879 34.0129L35.1394 35.9311Z" fill="#95989D"/>
<path d="M25.6804 26C25.9604 26.0442 26.2412 26.0835 26.5202 26.1335C28.016 26.4014 29.3548 27.0319 30.5707 27.9274C32.1574 29.096 33.4465 30.537 34.4299 32.2458C34.6294 32.5926 34.7861 32.9642 34.9625 33.3244C35.1976 33.9881 35.4326 34.6517 35.6677 35.3154C35.6799 35.3779 35.69 35.4408 35.7046 35.5027C36.057 36.9931 36.0482 38.4642 35.4467 39.8962C35.3343 40.1639 35.1782 40.416 35.0197 40.6606C34.8863 40.8662 34.6765 40.9464 34.4271 40.9505C34.0978 40.9561 33.8469 40.7974 33.59 40.6218C33.4934 40.5558 33.3486 40.5604 33.2258 40.5328C33.2258 40.6475 33.1962 40.7719 33.2303 40.8752C33.5398 41.8098 33.7735 42.7614 33.8997 43.7383C34.0232 44.6942 34.0595 45.6532 33.8145 46.5926C33.3238 48.4745 32.0961 49.6939 30.3052 50.3699C29.6348 50.6229 28.9362 50.715 28.2175 50.6098C27.6626 50.5286 27.227 50.2299 26.8086 49.8856C26.4993 49.631 26.4978 49.6389 26.5931 49.26C26.899 48.0449 27.0862 46.8195 26.8665 45.5664C26.7654 44.9894 26.5896 44.4385 26.2097 43.9756C25.949 43.6579 25.6174 43.5074 25.2 43.5408C24.7863 43.574 24.4228 43.7257 24.1541 44.034C23.9471 44.2715 23.7594 44.5388 23.6219 44.8214C23.2643 45.5561 23.1259 46.3486 23.128 47.1604C23.1299 47.9297 23.0634 48.6893 22.9228 49.4449C22.8972 49.5828 22.8932 49.7411 22.9347 49.8725C23.2968 51.0208 23.6693 52.166 24.048 53.3091C24.0717 53.3807 24.1633 53.4574 24.2388 53.48C25.1896 53.7651 25.8633 54.6767 25.8818 55.6697C25.8988 56.579 25.5328 57.3058 24.8289 57.8375C24.2973 58.2391 23.723 58.5937 23.1357 58.9096C22.0978 59.4676 21.1629 60.1497 20.3329 60.9862C19.9425 61.3797 19.5229 61.7464 19.0959 62.1003C18.9293 62.2383 18.7157 62.3393 18.507 62.4031C17.494 62.713 16.3702 62.2895 15.774 61.3264C15.4747 60.8427 15.2481 60.3081 15.0366 59.7773C14.6683 58.8528 14.1746 58.0164 13.4822 57.2974C13.2213 57.0265 12.9698 56.7439 12.7385 56.4475C11.8933 55.3643 12.1079 54.0085 13.2376 53.2507C13.6968 52.9427 14.2113 52.7769 14.7558 52.7156C14.9554 52.6931 15.0382 52.6373 15.0427 52.4203C15.0489 52.1218 15.1081 51.8248 15.1383 51.5264C15.3524 49.4161 15.704 47.3314 16.2846 45.2883C16.4316 44.7709 16.4216 44.7707 15.896 44.6373C14.9798 44.4049 14.1591 43.9816 13.4238 43.3897C12.9669 42.8679 12.51 42.346 12.0531 41.8241C11.6857 41.169 11.2768 40.5334 10.96 39.8547C10.3726 38.5961 10.0642 37.2619 10.1298 35.8651C10.2359 33.6043 10.988 31.6095 12.6725 30.0422C13.7241 29.0638 14.9833 28.5828 16.4335 28.5928C16.8439 28.5956 17.0357 29.0098 16.8832 29.2943C16.76 29.524 16.6291 29.7572 16.5578 30.0051C16.4839 30.2619 16.4608 30.5375 16.4485 30.8064C16.4419 30.9501 16.5384 31.102 16.6929 31.1034C16.7962 31.1043 16.9301 31.0195 16.9995 30.9324C17.4522 30.364 17.8636 29.7604 18.3401 29.2134C19.3421 28.063 20.5275 27.149 21.959 26.5834C22.6985 26.2912 23.4649 26.1078 24.2575 26.0364C24.2984 26.0327 24.3378 26.0126 24.3778 26.0002C24.812 26.0002 25.2462 26.0002 25.6804 26.0002V26ZM22.8517 53.5774C23.0862 53.4985 23.3208 53.4196 23.5763 53.3337C23.1795 51.8257 22.5865 50.3588 21.7803 48.9787C21.8897 49.5728 21.999 50.167 22.1084 50.7612C22.0799 50.7706 22.0515 50.78 22.023 50.7894C21.8585 50.483 21.6939 50.1766 21.5294 49.8703C21.4773 49.9687 21.4689 50.0555 21.452 50.1407C21.2779 51.0167 21.1002 51.8906 20.62 52.6674C20.5044 52.8544 20.5848 52.9859 20.7983 53.0319C21.2084 53.1202 21.6187 53.2091 22.0246 53.3147C22.109 53.3366 22.1742 53.4319 22.2482 53.4934C22.1616 53.5052 22.0728 53.5353 21.9885 53.5258C21.2855 53.4464 20.5839 53.3547 19.8808 53.2763C18.4068 53.1119 16.9304 53.0255 15.4518 53.2115C14.8172 53.2914 14.1934 53.4241 13.632 53.7537C13.2448 53.9809 12.963 54.2906 12.8399 54.7399C12.6662 55.3743 12.8136 55.9418 13.2238 56.4214C13.5449 56.7968 13.9158 57.1351 14.2944 57.4545C14.9833 58.0354 15.8067 58.4483 16.4081 59.1495C16.672 58.8989 16.9916 58.7699 17.3289 58.6933C17.7821 58.5903 18.2391 58.5016 18.6972 58.4231C19.5017 58.2853 20.3164 58.1716 21.066 57.837C21.9255 57.4533 22.6058 56.8969 22.6447 55.8442C22.6464 55.7993 22.7336 55.7193 22.7792 55.7205C23.0819 55.7286 23.4928 56.1578 23.5077 56.4642C23.518 56.6779 23.4496 56.7461 23.2505 56.6817C23.0495 56.6169 22.9338 56.6766 22.827 56.8529C22.371 57.606 21.7173 58.1218 20.8677 58.3469C20.1792 58.5294 19.4723 58.6411 18.779 58.8071C17.9433 59.0071 17.0392 59.0545 16.4231 59.7959C16.0385 59.3371 15.577 58.9759 15.043 58.6803C15.1299 59.4075 15.6027 60.5232 16.0832 61.0965C16.2621 61.31 16.4597 61.5174 16.6819 61.6832C17.3133 62.1547 18.0376 62.1548 18.7819 61.6434C19.226 61.3382 19.638 60.9766 20.0247 60.5996C20.7889 59.8544 21.6217 59.2146 22.5739 58.7262C22.9926 58.5115 23.3971 58.2638 23.7881 58.0013C24.4538 57.5543 24.9273 56.9579 25.162 56.1744C25.4438 55.2334 24.9824 54.2824 24.1093 53.9758C23.7562 53.8518 23.3867 53.7748 23.0262 53.6713C22.9642 53.6534 22.9097 53.6094 22.8516 53.5776L22.8517 53.5774ZM22.3705 48.7337C22.3903 48.7329 22.4102 48.7321 22.4301 48.7313C22.4669 48.655 22.5261 48.5818 22.5366 48.5021C22.5836 48.1431 22.627 47.7831 22.6521 47.4221C22.6776 47.0535 22.6521 46.6797 22.6985 46.3144C22.8125 45.4167 23.0665 44.5621 23.6615 43.8541C24.1787 43.2386 24.8448 42.9501 25.6515 43.0961C26.1463 43.1856 26.505 43.5152 26.8171 43.8871C27.8195 45.0813 28.1024 46.4792 27.9583 47.9933C27.9052 48.5518 27.8439 49.1094 27.7893 49.6677C27.761 49.9558 27.821 50.039 28.1023 50.126C28.5594 50.2672 29.0246 50.2547 29.4855 50.169C31.3542 49.8214 33.5243 48.1326 33.572 45.351C33.5988 43.7862 33.2782 42.2862 32.7877 40.8122C32.7285 40.6344 32.6914 40.4382 32.6966 40.252C32.7119 39.6969 33.2407 39.381 33.7227 39.646C33.9654 39.7795 34.179 39.969 34.3958 40.1454C34.572 40.2887 34.7292 40.2907 34.8753 40.1178C34.9239 40.0603 34.9635 39.992 34.994 39.9228C35.4625 38.8584 35.6268 37.7476 35.4809 36.5944C35.2892 35.0789 34.7509 33.6788 34.0132 32.3541C33.5615 31.5431 32.9913 30.8115 32.372 30.1206C31.2215 28.8373 29.9114 27.7618 28.3101 27.0856C26.3487 26.2573 24.3512 26.1716 22.3376 26.8782C20.4662 27.5348 19.0257 28.7607 17.876 30.3498C17.5994 30.732 17.3613 31.1419 17.0886 31.5271C16.8832 31.8171 16.6036 31.9187 16.3028 31.8146C16.0177 31.716 15.8345 31.4851 15.6945 31.2301C15.3607 30.6226 15.459 30.0112 15.7025 29.4035C15.7906 29.1836 15.7442 29.0991 15.5091 29.0754C15.4467 29.0692 15.3816 29.0769 15.3191 29.0869C14.7342 29.181 14.2151 29.4425 13.7232 29.7527C12.5486 30.4932 11.7579 31.5578 11.2166 32.8169C10.5782 34.3015 10.3751 35.8496 10.6429 37.4434C10.9426 39.2269 11.7324 40.7895 12.8583 42.1945C13.747 43.3035 14.8643 44.0255 16.2674 44.2987C16.5213 44.3481 16.7035 44.2998 16.8798 44.1067C17.1922 43.7649 17.6782 43.7772 17.9912 44.1124C18.0566 44.1824 18.1245 44.2502 18.1862 44.3233C18.2968 44.4543 18.3939 44.4649 18.508 44.3196C18.6576 44.1291 18.8111 43.9394 18.9816 43.7681C19.2956 43.4526 19.714 43.3846 20.0802 43.6338C20.2997 43.7831 20.5209 43.9888 20.6356 44.2213C20.9083 44.7736 21.1363 45.3503 21.3491 45.9294C21.659 46.7728 21.9385 47.6274 22.2349 48.4759C22.2666 48.5665 22.3246 48.648 22.3704 48.7338L22.3705 48.7337ZM16.4737 47.1797C16.6079 47.1264 16.6998 47.0862 16.7941 47.0529C17.2478 46.8924 17.5165 46.9593 17.8364 47.3192C17.9378 47.4333 18.039 47.5512 18.1179 47.681C18.2753 47.9397 18.3502 47.8896 18.4531 47.6695C18.541 47.4813 18.6632 47.3032 18.7976 47.1436C19.19 46.6773 19.7404 46.596 20.2563 46.9172C20.3967 47.0046 20.5219 47.1167 20.6632 47.2024C20.7456 47.2524 20.8461 47.2727 20.9385 47.3064C20.9712 47.208 21.0368 47.1073 21.0303 47.0115C21.0119 46.739 20.9831 46.4642 20.9238 46.198C20.7876 45.5876 20.6241 44.9834 20.2642 44.4574C20.002 44.0742 19.5538 43.8653 19.1397 44.4072C19.0084 44.579 18.8698 44.7489 18.7131 44.8969C18.4887 45.1089 18.2221 45.1024 17.9913 44.8972C17.8964 44.8128 17.8156 44.7125 17.7278 44.62C17.5441 44.4261 17.3792 44.4042 17.2174 44.6135C17.0691 44.8051 16.9449 45.0323 16.8748 45.2635C16.7661 45.6217 16.7112 45.9964 16.6356 46.3646C16.5824 46.6236 16.5324 46.8832 16.4737 47.1797ZM19.289 52.0669C19.289 51.9031 19.2779 51.7746 19.291 51.6487C19.3352 51.2255 19.3532 50.7953 19.4468 50.3827C19.5518 49.9199 19.8576 49.612 20.3514 49.5401C20.4691 49.5229 20.5899 49.5269 20.7177 49.5208C20.7241 49.4746 20.7364 49.4374 20.7333 49.4015C20.6708 48.6753 20.4737 47.9956 19.9848 47.4367C19.5524 46.9425 19.1644 47.0118 18.9026 47.6119C18.7014 48.0729 18.6136 48.5626 18.5756 49.0591C18.5145 49.858 18.5259 50.6529 18.8168 51.4166C18.9102 51.6616 19.035 51.8872 19.289 52.0669V52.0669ZM16.2178 51.4718C16.2636 51.2876 16.2958 51.1464 16.3338 51.0069C16.4446 50.5998 16.5644 50.1951 16.8397 49.862C17.0946 49.5535 17.4281 49.4934 17.7602 49.686C18.008 49.8298 18.099 49.7832 18.1252 49.494C18.1326 49.4118 18.1327 49.3276 18.1247 49.2454C18.0756 48.7434 17.9252 48.2719 17.6693 47.8381C17.5927 47.7082 17.4937 47.5847 17.3817 47.4841C17.1468 47.2733 16.8819 47.2716 16.6663 47.5004C16.507 47.6693 16.367 47.8672 16.2621 48.0744C15.9966 48.5984 15.87 49.165 15.8398 49.7499C15.8095 50.3378 15.8856 50.9072 16.2178 51.4718V51.4718ZM18.1729 51.3291C17.9349 51.8007 17.7194 52.2275 17.4869 52.688C17.9367 52.727 18.3499 52.8244 18.8078 52.7381C18.5948 52.2654 18.3923 51.816 18.1729 51.3291ZM15.5897 51.3387C15.5681 51.3372 15.5465 51.3358 15.5249 51.3343C15.4037 51.7743 15.2826 52.2143 15.1613 52.6544H16.2815C15.9162 52.2636 15.6286 51.8665 15.5896 51.3387L15.5897 51.3387Z" fill="#95989D"/>
<path d="M32.369 58.1567C32.4452 58.1084 32.4973 58.0768 32.5478 58.0429C32.9293 57.7868 33.2873 57.8053 33.6405 58.1054C33.9302 58.3516 34.1443 58.6607 34.2542 59.0132C34.3535 59.3318 34.5109 59.4782 34.8602 59.5292C35.4443 59.6145 35.7371 60.0317 35.858 60.5734C36.0194 61.297 35.9201 62.0113 35.7616 62.7213C35.4437 64.1451 34.7436 65.3815 33.8137 66.4993C33.6896 66.6485 33.5092 66.7631 33.3352 66.8596C32.968 67.0633 32.6077 66.934 32.5032 66.5305C32.4335 66.261 32.4572 65.9671 32.4496 65.6838C32.4468 65.5802 32.4742 65.4759 32.4892 65.3614C32.3098 65.4262 32.1514 65.5036 31.9837 65.5405C31.1968 65.7138 30.6242 65.1576 30.8172 64.3904C30.9044 64.044 31.0587 63.7138 31.1839 63.3728C30.6043 63.0501 29.7998 63.3887 29.618 64.0463C29.565 64.2378 29.5145 64.4328 29.4333 64.6134C29.1985 65.1358 28.841 65.2936 28.2784 65.1445C27.8607 65.0338 27.5675 64.7728 27.3672 64.4061C27.0693 63.8609 27.0155 63.2719 27.0437 62.6654C27.0897 61.6768 27.555 60.8506 28.1004 60.0646C28.4782 59.5201 28.893 58.9984 29.3187 58.4886C29.8587 57.8417 30.1648 57.1178 30.1508 56.2789C30.137 55.4503 30.0888 54.6222 30.0827 53.7937C30.0784 53.2147 30.112 52.6336 30.3413 52.0861C30.5654 51.551 30.8998 51.1226 31.5051 50.9725C32.0943 50.8264 32.6344 51.053 32.9235 51.5787C33.2001 52.0819 33.2663 52.6253 33.1267 53.1738C32.9349 53.927 32.6958 54.6684 32.4961 55.4198C32.2595 56.3095 32.1953 57.211 32.369 58.1567H32.369ZM33.3847 63.3715L33.3812 63.3682C33.3812 63.3988 33.3864 63.4305 33.3803 63.4598C33.2867 63.9108 33.1835 64.3599 33.0996 64.8126C33.0315 65.1797 32.97 65.5497 32.9401 65.9211C32.931 66.0355 33.0077 66.1946 33.0994 66.2637C33.1496 66.3016 33.3165 66.2011 33.4239 66.1492C33.4714 66.1263 33.5029 66.07 33.5396 66.0273C34.2701 65.1769 34.7834 64.2145 35.0781 63.14C35.2701 62.44 35.4188 61.7322 35.3584 61.0024C35.3408 60.7897 35.2836 60.5714 35.1985 60.375C35.0867 60.117 34.8394 60.0608 34.5756 60.0811C34.3399 60.0992 34.2379 60.198 34.1561 60.4679C34.1384 60.5264 34.1202 60.5847 34.0883 60.6883C34.0251 60.2955 33.9814 59.9553 33.9135 59.6199C33.8372 59.2437 33.7109 58.8835 33.4066 58.6185C33.264 58.4944 33.0859 58.4103 32.9005 58.4929C32.724 58.5714 32.7698 58.7545 32.7652 58.9084C32.7366 59.8734 32.7058 60.8371 32.4112 61.772C32.182 62.4993 31.8827 63.1957 31.5428 63.8789C31.4252 64.1153 31.3457 64.3781 31.2976 64.6376C31.2524 64.8815 31.3888 65.0483 31.6414 65.0528C31.8255 65.0561 32.044 65.0116 32.1887 64.9089C32.3985 64.7598 32.5753 64.5531 32.7307 64.3454C32.9648 64.0324 33.1682 63.6973 33.3847 63.3715L33.3847 63.3715ZM31.5127 62.9589C31.5856 62.8364 31.6579 62.727 31.7183 62.6115C32.2163 61.66 32.358 60.6396 32.318 59.5849C32.3166 59.5488 32.3071 59.5105 32.2914 59.4778C31.9873 58.8471 31.8722 58.1743 31.8482 57.4852C31.8159 56.5601 31.8759 55.6469 32.1695 54.7541C32.3579 54.1812 32.5097 53.5944 32.6382 53.0055C32.7315 52.578 32.6859 52.1481 32.4402 51.7616C32.3018 51.5438 32.1028 51.4326 31.8386 51.4339C31.476 51.4357 31.2118 51.6087 31.0142 51.892C30.7825 52.2241 30.6527 52.6024 30.6463 52.9965C30.6306 53.955 30.6205 54.9153 30.663 55.8726C30.7129 56.9953 30.413 57.9745 29.6806 58.8497C29.1586 59.4734 28.6839 60.1384 28.2265 60.8102C27.7278 61.5425 27.4563 62.3575 27.5671 63.2502C27.607 63.5713 27.7157 63.8902 27.8361 64.1935C27.9248 64.417 28.1195 64.572 28.3628 64.6494C28.7048 64.7582 28.861 64.6939 28.9908 64.3705C29.0462 64.2324 29.0672 64.0809 29.1226 63.9428C29.1917 63.7706 29.2555 63.5885 29.3644 63.4412C29.8016 62.8502 30.5783 62.5052 31.5127 62.9588V62.9589Z" fill="#95989D"/>
<path d="M21.5951 63.8005C21.5564 64.4776 21.5203 65.1547 21.4775 65.8314C21.4609 66.094 21.4077 66.1185 21.1825 65.9855C20.1251 65.3606 19.0664 64.738 18.0127 64.1067C17.8321 63.9985 17.6827 63.987 17.493 64.0913C16.6214 64.5706 15.7432 65.038 14.8647 65.5046C14.7918 65.5433 14.6995 65.5446 14.6162 65.5633C14.6022 65.4786 14.5706 65.3926 14.577 65.3094C14.6629 64.1916 14.7539 63.0743 14.844 61.9568C14.8588 61.7729 14.9286 61.7287 15.1009 61.8286C15.5535 62.0909 15.9961 62.3708 16.4481 62.6342C16.8498 62.8684 17.2599 63.0878 17.6636 63.3184C17.7703 63.3793 17.8612 63.3729 17.9707 63.3202C19.0936 62.7803 20.2187 62.2452 21.3431 61.7087C21.378 61.692 21.4122 61.6736 21.4477 61.6581C21.6512 61.5689 21.7088 61.6049 21.6974 61.8277C21.6657 62.4463 21.6293 63.0646 21.5952 63.6831C21.5931 63.722 21.5949 63.7613 21.595 63.8005L21.5951 63.8005Z" fill="#95989D"/>
<path d="M23.4774 64.2839C23.9694 64.2833 24.3718 64.6862 24.3685 65.1763C24.3653 65.6604 23.9675 66.0614 23.4875 66.0645C22.9962 66.0677 22.5927 65.67 22.5879 65.1777C22.5832 64.6882 22.9849 64.2845 23.4774 64.2839L23.4774 64.2839ZM24.2064 65.1695C24.2056 64.7578 23.8734 64.4219 23.4708 64.4258C23.0773 64.4296 22.7499 64.7656 22.7483 65.1673C22.7466 65.5747 23.0822 65.9229 23.4771 65.9235C23.8751 65.924 24.2071 65.5807 24.2064 65.1695V65.1695Z" fill="#95989D"/>
<path d="M30.2951 66.6164C30.2974 66.5972 30.2998 66.5779 30.2968 66.6026C30.3092 66.5812 30.3001 66.5968 30.291 66.6125L30.2951 66.6164Z" fill="#95989D"/>
<path d="M22.7673 65.3468V66.0386C22.7051 66.0462 22.6527 66.0526 22.5879 66.0605V64.298C22.7635 64.298 22.9413 64.2577 23.1078 64.3133C23.2055 64.3459 23.3367 64.5092 23.3586 64.6543C23.3803 64.7978 23.286 64.9942 23.2372 65.1631C23.2251 65.2051 23.1923 65.23 23.1622 65.2725C23.2678 65.507 23.3697 65.7331 23.4782 65.9741C23.3776 66.1044 23.3006 66.1003 23.2312 65.9197C23.1802 65.787 23.1161 65.6678 23.0691 65.5315C23.0034 65.3406 22.9165 65.2642 22.7673 65.3468V65.3468ZM22.7716 65.2391C22.9241 65.1144 23.0451 65.0398 23.1461 64.918C23.176 64.8819 23.1709 64.6385 23.145 64.6173C23.0341 64.526 22.9095 64.4822 22.7716 64.4118V65.2391Z" fill="#95989D"/>
<path d="M74.5083 51.8873C74.1484 53.2814 73.7849 54.6868 73.4228 56.0926C73.1339 57.2137 72.836 58.3326 72.5663 59.4584C72.5 59.7348 72.3983 59.8326 72.1111 59.8323C64.6011 59.8245 57.0913 59.8261 49.5814 59.8248C49.5015 59.8248 49.4216 59.808 49.2969 59.794C49.3845 59.4236 49.4338 59.0601 49.5676 58.7318C49.6162 58.6129 49.8663 58.5158 50.0254 58.5146C51.9765 58.4999 53.9278 58.5051 55.8791 58.5051C59.4209 58.5051 62.9627 58.5051 66.5045 58.5051C68.3841 58.5051 68.5249 58.3873 68.9872 56.571C69.8564 53.1569 70.7357 49.7453 71.6102 46.3324C71.6348 46.2363 71.6527 46.1384 71.6744 46.0415C71.818 45.401 71.6991 45.2042 71.0676 45.0481C70.9112 45.0095 70.7519 44.9822 70.5444 44.9395C70.6213 44.6228 70.6724 44.3149 70.7789 44.0283C70.8155 43.9299 70.991 43.8249 71.1038 43.8241C72.8895 43.8114 74.6753 43.8152 76.5494 43.8152C75.9863 46.0257 75.4349 48.1908 74.8706 50.4067C75.0493 50.4231 75.1866 50.4462 75.324 50.4465C76.5374 50.4493 77.7511 50.4318 78.964 50.4582C79.3191 50.466 79.4408 50.3362 79.5214 50.0126C79.9972 48.1027 80.5067 46.2014 80.9677 44.288C81.0633 43.8913 81.2281 43.802 81.5983 43.8066C83.123 43.8257 84.6481 43.8146 86.173 43.8146C86.3333 43.8146 86.4936 43.8146 86.6904 43.8146C86.66 43.9974 86.6224 44.1245 86.6204 44.2521C86.6129 44.7369 86.4545 45.0393 85.9025 45.0671C85.2717 45.0987 84.978 45.5297 84.8283 46.1182C83.9843 49.4363 83.1275 52.7511 82.2764 56.0674C82.1654 56.5 82.0584 56.9336 81.9546 57.3681C81.7719 58.1324 81.8808 58.2965 82.6529 58.446C82.7447 58.4638 82.8329 58.502 82.9527 58.5403C82.8432 58.9757 82.7402 59.3855 82.6344 59.8064H77.0245C77.703 57.1561 78.3724 54.5414 79.0519 51.8873H74.5086H74.5083Z" fill="#95989D"/>
<path d="M98.2637 59.8273C98.7845 57.7068 99.2866 55.6607 99.7896 53.6149C100.459 50.8899 101.131 48.1652 101.799 45.4399C101.835 45.2956 101.86 45.1464 101.872 44.9978C101.908 44.5619 101.741 44.3273 101.318 44.3534C101.182 44.3617 101.045 44.3547 100.914 44.3547C100.901 44.2958 100.883 44.2624 100.89 44.2356C101.108 43.2988 101.11 43.3193 102.014 43.2527C103.283 43.1593 104.551 43.0313 105.82 42.9198C105.907 42.9122 105.995 42.9188 106.143 42.9188C105.451 45.589 104.768 48.2244 104.086 50.8599C104.114 50.8773 104.143 50.8947 104.171 50.9121C104.552 50.5364 104.917 50.1407 105.316 49.7891C106.355 48.8713 107.478 48.1372 108.864 48.0595C109.65 48.0154 110.043 48.2814 110.375 49.0818C110.81 50.1325 110.791 51.2292 110.597 52.3285C109.811 56.7657 106.49 59.7785 102.335 59.825C101.001 59.8399 99.6672 59.8273 98.2637 59.8273ZM106.878 52.2706C106.869 52.0538 106.878 51.7668 106.838 51.4882C106.747 50.8534 106.353 50.5831 105.856 50.9124C105.369 51.2349 104.897 51.646 104.54 52.1256C103.211 53.9082 102.624 56.0499 102.191 58.2498C102.171 58.3543 102.28 58.5682 102.372 58.6067C102.872 58.8147 103.406 58.9049 103.876 58.57C104.332 58.2449 104.794 57.8878 105.15 57.4459C106.321 55.9942 106.808 54.2454 106.878 52.2707L106.878 52.2706Z" fill="#95989D"/>
<path d="M98.2666 48.4731C97.9368 49.6411 97.6321 50.7224 97.3261 51.8034C96.9181 53.2448 96.4982 54.6833 96.1103 56.1294C96.04 56.3919 96.0987 56.6845 96.0979 56.9631C96.4371 56.9319 96.7765 56.9007 97.1879 56.8628C97.2605 57.045 97.3718 57.3242 97.5017 57.6497C96.8676 57.9619 96.2503 58.268 95.6309 58.5703C94.9145 58.9198 94.1961 59.2659 93.4787 59.6138C92.7954 59.9453 91.935 59.6853 91.7392 58.9865C91.597 58.4789 91.6259 57.9127 91.6752 57.3804C91.7172 56.9263 91.897 56.4832 91.9391 55.9952C91.8452 56.0974 91.7511 56.1995 91.6575 56.3019C90.0633 58.0438 88.1788 59.3567 85.7016 59.7801C84.458 59.9927 83.8889 59.5605 84.0475 58.3877C84.1756 57.4403 84.4766 56.5105 84.7378 55.5819C85.1478 54.1247 85.5934 52.6761 86.0147 51.2217C86.245 50.4268 86.1472 50.3323 85.3015 50.4718C85.1876 50.4906 85.0688 50.484 84.9733 50.4881C84.9394 50.4534 84.9217 50.4433 84.9171 50.4294C84.7373 49.8921 84.9321 49.5512 85.5015 49.4067C86.911 49.0483 88.3203 48.6891 89.73 48.3309C90.578 48.1154 90.8964 48.3721 90.66 49.1811C90.118 51.0364 89.5193 52.8774 88.9503 54.7261C88.775 55.2956 88.6032 55.8672 88.4696 56.4459C88.4322 56.6078 88.4767 56.8765 88.5927 56.954C88.7132 57.0344 88.9935 56.9936 89.1564 56.9174C90.3872 56.3419 91.2068 55.3772 91.9109 54.3134C92.9265 52.779 93.4699 51.073 93.9702 49.3519C94.1404 48.766 94.558 48.4731 95.2228 48.4732H98.2663L98.2666 48.4731Z" fill="#95989D"/>
<path d="M50.1876 56.4776C50.4878 55.3117 50.7455 54.1776 51.0975 53.075C51.1557 52.8931 51.6268 52.8487 51.9839 52.7111C51.9378 53.1758 51.8679 53.4797 51.8849 53.7783C51.9543 54.9956 52.5765 55.699 53.7596 55.9256C54.7146 56.1084 55.6573 56.0628 56.5416 55.6271C57.634 55.0888 57.8407 53.8384 56.905 53.0604C56.2016 52.4756 55.3653 52.058 54.5916 51.5603C54.0751 51.2279 53.5425 50.9158 53.0553 50.5426C50.8283 48.837 51.4836 45.8752 53.4058 44.7092C54.4631 44.0678 55.6241 43.8697 56.8234 43.8116C57.0317 43.8014 57.2428 43.8061 57.4502 43.8283C58.5662 43.9476 59.6816 44.0746 60.8714 44.2071C60.7172 44.8079 60.5764 45.3568 60.4354 45.9057C60.3702 46.1595 60.3063 46.4136 60.2387 46.6668C60.0368 47.4239 60.0181 47.4341 59.1818 47.2476C59.1818 47.1761 59.178 47.0978 59.1823 47.0199C59.2552 45.7109 58.5775 44.8919 57.2947 44.8793C56.6669 44.8732 55.9975 44.9554 55.4172 45.1838C54.3523 45.6027 54.1674 46.7781 55.0148 47.5649C55.4492 47.968 55.9747 48.2766 56.4828 48.5872C57.2133 49.0337 57.9923 49.4013 58.7035 49.8762C60.7595 51.249 60.9767 53.5768 59.2521 55.3946C58.2742 56.4252 57.0267 56.8706 55.6837 57.0737C53.8135 57.3565 52.0166 56.9003 50.1876 56.4776Z" fill="#95989D"/>
<path d="M120.246 56.2811C120.324 56.3843 120.384 56.4577 120.436 56.5365C120.569 56.7394 120.699 56.9447 120.849 57.1787C119.106 58.2626 117.472 59.4784 115.33 59.7884C113.665 60.0292 112.299 59.2699 111.859 57.7281C111.283 55.7081 111.78 53.8444 112.964 52.1394C114.624 49.7488 116.94 48.378 120.03 48.2605C121.65 48.1989 122.618 49.3022 122.21 50.7901C121.709 52.6142 119.626 54.1634 117.533 54.2619C117.244 54.2755 116.943 54.309 116.666 54.2539C116.111 54.1437 115.878 54.3701 115.859 54.8524C115.835 55.4562 115.747 56.0737 115.843 56.6623C116.006 57.6488 116.883 58.0968 117.866 57.6975C118.483 57.447 119.03 57.0424 119.604 56.7011C119.817 56.5742 120.019 56.4303 120.246 56.2811ZM116.239 53.2138C116.345 53.2426 116.406 53.2703 116.469 53.2744C118.093 53.382 120.042 51.1721 119.599 49.6999C119.554 49.5486 119.294 49.3472 119.144 49.3545C118.878 49.3675 118.565 49.4642 118.368 49.6281C117.219 50.5795 116.619 51.8266 116.239 53.2138Z" fill="#95989D"/>
<path d="M139.477 44.7749C139.138 45.9391 138.81 47.0639 138.466 48.2457H141.001C140.828 48.851 140.685 49.3916 140.508 49.9213C140.487 49.9847 140.281 50.0142 140.16 50.0161C139.54 50.0255 138.92 50.0052 138.302 50.0329C138.167 50.0389 137.954 50.1766 137.923 50.2918C137.388 52.2515 136.876 54.217 136.363 56.1822C136.33 56.3075 136.322 56.4414 136.319 56.5717C136.296 57.6211 136.709 57.9703 137.762 57.7954C137.892 57.774 138.02 57.7462 138.184 57.7145C138.264 58.0402 138.34 58.3525 138.429 58.7158C137.087 59.0959 135.797 59.605 134.458 59.799C133.214 59.9795 131.955 59.441 132.111 57.7882C132.23 56.528 132.567 55.282 132.874 54.0456C133.368 52.0585 133.921 50.0857 134.436 48.1036C134.521 47.7783 134.658 47.6063 135.011 47.4741C136.105 47.0637 136.877 46.2221 137.637 45.3899C138.329 44.6318 138.318 44.6213 139.477 44.7749Z" fill="#95989D"/>
<path d="M123.505 50.6172C123.48 50.5401 123.457 50.4812 123.444 50.4201C123.39 50.1828 123.34 49.9448 123.276 49.649C123.676 49.535 124.063 49.4232 124.452 49.314C125.618 48.9855 126.785 48.6545 127.953 48.3312C128.651 48.138 128.96 48.429 128.795 49.1639C128.623 49.9281 128.398 50.6794 128.198 51.4371C128.158 51.5904 128.128 51.7469 128.179 51.959C128.285 51.8345 128.398 51.7148 128.498 51.5845C129.007 50.9182 129.497 50.2342 130.025 49.5846C130.779 48.6587 131.722 48.1529 132.989 48.2764C132.656 49.5704 132.33 50.8382 132.001 52.1223C131.484 52.0738 131.004 52.0186 130.522 51.9856C129.738 51.9317 129.108 52.2405 128.653 52.9101C127.537 54.552 126.885 56.4055 126.388 58.3297C126.266 58.8016 126.262 59.4439 125.963 59.69C125.667 59.9342 125.067 59.7887 124.6 59.7945C123.85 59.8038 123.099 59.797 122.305 59.797C122.795 57.8893 123.27 56.0417 123.745 54.1943C123.998 53.2142 124.252 52.2346 124.504 51.2543C124.699 50.4933 124.586 50.3743 123.836 50.5427C123.731 50.5662 123.626 50.59 123.505 50.6172Z" fill="#95989D"/>
<path d="M66.7768 44.7345C66.6349 45.2271 66.4995 45.6865 66.3705 46.1478C66.2416 46.6083 66.1189 47.0707 65.9778 47.5905H67.9956C67.8623 48.0792 67.7638 48.508 67.6178 48.9197C67.5881 49.0034 67.3814 49.0598 67.2539 49.0648C66.8089 49.0823 66.362 49.088 65.9175 49.0658C65.6465 49.0521 65.5416 49.1717 65.48 49.4144C65.0998 50.9126 64.7111 52.4087 64.3251 53.9055C64.3168 53.9377 64.3061 53.9695 64.2996 54.002C64.0558 55.2347 64.4662 55.6605 65.7326 55.4161C65.7973 55.6727 65.8631 55.9334 65.9392 56.235C64.8719 56.5498 63.8628 56.9452 62.8171 57.1269C61.8604 57.2931 60.7517 56.8738 60.8838 55.5024C60.9693 54.6147 61.1517 53.7307 61.3612 52.8623C61.7898 51.0852 62.2712 49.3212 62.7174 47.5484C62.7958 47.237 62.968 47.1001 63.2357 46.9196C63.9409 46.4444 64.6118 45.897 65.2167 45.2966C65.8342 44.6837 65.7928 44.6411 66.7767 44.7346L66.7768 44.7345Z" fill="#95989D"/>
</svg>
