<svg width="160" height="106" viewBox="0 0 160 106" fill="none" xmlns="http://www.w3.org/2000/svg">
<path fill-rule="evenodd" clip-rule="evenodd" d="M30.3863 55.885L30.4459 52.9626C31.0306 53.0268 31.4206 53.0588 31.6155 53.0588C32.0325 53.0588 32.3439 52.968 32.5524 52.7891C32.7608 52.61 32.8962 52.359 32.9613 52.0384C33.0262 51.7178 33.0588 51.2877 33.0588 50.7508V40.8831H38.5173V50.0963C38.5173 51.4159 38.3549 52.5111 38.0299 53.3767C37.7051 54.2421 37.1175 54.9126 36.2645 55.3855C35.4143 55.861 34.2284 56.096 32.7067 56.096C31.8754 56.096 31.1011 56.0266 30.3863 55.885ZM33.4865 39.4032C33.0046 39.096 32.7663 38.6018 32.7663 37.9233C32.7663 37.2448 33.0072 36.7693 33.4865 36.4621C33.9657 36.1549 34.7348 36 35.7881 36C36.8414 36 37.6076 36.1549 38.0895 36.4621C38.5716 36.7693 38.8098 37.2582 38.8098 37.9233C38.8098 38.5885 38.5688 39.096 38.0895 39.4032C37.6076 39.7104 36.8414 39.8653 35.7881 39.8653C34.7348 39.8653 33.9684 39.7104 33.4865 39.4032ZM1.51721 52.3081H6.97587V37.576H1.51721V52.3081ZM23.3328 46.442C23.3328 44.5053 22.7101 43.0308 21.4618 42.0184H21.4645C20.2162 41.0059 18.3805 40.4984 15.9869 40.4984C13.5933 40.4984 11.7548 41.0059 10.4687 42.0184C9.18253 43.0308 8.53809 44.4866 8.53809 46.3832V46.6904C8.53809 48.6271 9.17711 50.1123 10.4578 51.1435C11.7386 52.1772 13.5744 52.6927 15.9652 52.6927C18.2153 52.6927 19.9455 52.2867 21.1612 51.472C22.3743 50.6573 22.9862 49.562 23.2326 48.3626L17.931 48.368C17.6142 49.172 16.875 49.3831 16.0031 49.3831C14.6195 49.3884 13.8424 48.4882 13.9372 47.0617H23.3328V46.442ZM18.069 45.5925H13.9751V45.5898C14.078 44.3771 14.8063 43.7867 16.0031 43.7867C16.6259 43.7867 17.1105 43.9363 17.4544 44.2302C17.7983 44.5267 18.0448 45.0369 18.069 45.5925ZM30.4621 59.3256C31.7104 60.338 32.3332 61.8125 32.3332 63.7492V64.3689H22.9375C22.8427 65.7955 23.6199 66.6956 25.0034 66.6902C25.8754 66.6902 26.6146 66.4793 26.9314 65.6752L32.2329 65.6698C31.9865 66.8693 31.3747 67.9645 30.1616 68.7793C28.9459 69.594 27.2157 70 24.9655 70C22.5746 70 20.7389 69.4845 19.4582 68.4506C18.1774 67.4195 17.5384 65.9343 17.5384 63.9976V63.6904C17.5384 61.7938 18.1829 60.338 19.4689 59.3256C20.7551 58.3132 22.5936 57.8056 24.9872 57.8056C27.3808 57.8056 29.2166 58.3132 30.4648 59.3256H30.4621ZM22.9754 62.8998H27.0695C27.0451 62.344 26.7987 61.8339 26.4548 61.5374C26.1108 61.2436 25.6262 61.094 25.0034 61.094C23.8067 61.094 23.0784 61.6843 22.9754 62.8971V62.8998ZM137.415 63.7492C137.415 61.8125 136.792 60.338 135.544 59.3256H135.547C134.298 58.3132 132.463 57.8056 130.069 57.8056C127.675 57.8056 125.837 58.3132 124.551 59.3256C123.265 60.338 122.62 61.7938 122.62 63.6904V63.9976C122.62 65.9343 123.259 67.4195 124.54 68.4506C125.821 69.4845 127.656 70 130.047 70C132.297 70 134.028 69.594 135.243 68.7793C136.456 67.9645 137.068 66.8693 137.315 65.6698L132.013 65.6752C131.696 66.4793 130.957 66.6902 130.085 66.6902C128.702 66.6956 127.925 65.7955 128.019 64.3689H137.415V63.7492ZM132.151 62.8998H128.057V62.8971C128.16 61.6843 128.888 61.094 130.085 61.094C130.708 61.094 131.193 61.2436 131.537 61.5374C131.88 61.8339 132.127 62.344 132.151 62.8998ZM39.9227 46.7492C39.9227 48.6591 40.5779 50.1283 41.8912 51.1541H41.8885C43.2017 52.1799 45.0726 52.6927 47.542 52.6927C50.0115 52.6927 51.9015 52.1799 53.2065 51.1541C54.5144 50.1283 55.1669 48.6591 55.1669 46.7492V46.442C55.1669 44.5454 54.5116 43.0788 53.1984 42.0477C51.8851 41.014 50.0007 40.4984 47.5448 40.4984C45.089 40.4984 43.2044 41.0113 41.8912 42.0371C40.5779 43.0628 39.9227 44.532 39.9227 46.442V46.7492ZM49.6892 46.9041C49.6892 47.6494 49.4997 48.2024 49.1233 48.5683C48.747 48.9343 48.2217 49.1159 47.5448 49.1159C46.8679 49.1159 46.3398 48.9343 45.9554 48.5683C45.5736 48.2024 45.3813 47.6467 45.3813 46.9041V46.2897C45.3813 45.5605 45.5709 45.0075 45.9554 44.6362C46.3398 44.2649 46.8814 44.0779 47.5448 44.0779C48.2082 44.0779 48.7307 44.2649 49.1153 44.6362C49.497 45.0075 49.6892 45.5578 49.6892 46.2897V46.9041ZM66.0463 40.883H71.505V52.3081H66.0463V51.2877L66.1817 49.9787H66.1438C65.7159 50.863 65.1095 51.5362 64.3296 51.9983C63.5499 52.4604 62.6346 52.69 61.5813 52.69C59.9946 52.69 58.7681 52.2574 57.8962 51.3918C57.0243 50.5264 56.5911 49.1587 56.5911 47.2861V40.8804H62.0687V46.7839C62.0687 47.5158 62.2149 48.0554 62.5074 48.408C62.7997 48.7606 63.2519 48.9369 63.8612 48.9369C64.576 48.9369 65.1175 48.7072 65.4884 48.2451C65.8595 47.7829 66.0436 47.1819 66.0436 46.4366V40.8777L66.0463 40.883ZM83.7328 44.6548V40.6533L83.7301 40.6559C83.3402 40.5517 82.8853 40.501 82.3655 40.501C81.4177 40.501 80.6081 40.7361 79.9394 41.2116C79.2705 41.6871 78.7615 42.3602 78.4095 43.231H78.3716L78.507 41.9034V40.883H73.0673V52.3133H78.526V47.8123C78.526 46.7224 78.8211 45.8997 79.4141 45.3494C80.007 44.7964 80.8545 44.5213 81.9592 44.5213C82.6091 44.5213 83.1993 44.564 83.7328 44.6548ZM98.7034 41.7966C99.5752 42.6621 100.008 44.0298 100.008 45.9023V52.3081H94.5308V46.4045C94.5308 45.6726 94.3846 45.133 94.0923 44.7804C93.7998 44.4278 93.3476 44.2515 92.7384 44.2515C92.0236 44.2515 91.482 44.4812 91.1111 44.9433C90.7401 45.4055 90.5561 46.0065 90.5561 46.7518V52.3108H85.0974V40.883H90.5561V41.9034L90.4206 43.2123H90.4586C90.8863 42.3282 91.4929 41.655 92.2726 41.1929C93.0525 40.7307 93.9676 40.501 95.0209 40.501C96.6076 40.501 97.8342 40.9337 98.706 41.7992L98.7034 41.7966ZM117.454 52.3081H122.913V37.576H117.454V52.3081ZM10.5716 54.8806H16.0302V69.6127H10.5716V68.7846L10.6691 67.497H10.6312C10.2142 68.3438 9.62663 68.9715 8.86577 69.3829C8.10492 69.7943 7.23846 69.9973 6.2637 69.9973C4.58766 69.9973 3.29068 69.4818 2.37549 68.448C1.4603 67.4168 1 65.9638 1 64.0911V63.6691C1 61.8098 1.4576 60.3674 2.37549 59.3416C3.29068 58.3159 4.58766 57.8029 6.2637 57.8029C7.23846 57.8029 8.10221 58.0086 8.85765 58.4173C9.61037 58.8287 10.2034 59.4565 10.6312 60.3033H10.6691L10.5716 58.9756V54.8806ZM10.0246 65.8248C10.401 65.4267 10.5905 64.9272 10.5905 64.3236V63.4955C10.5905 62.8917 10.401 62.3895 10.0246 61.9862C9.64828 61.5829 9.13383 61.3799 8.48399 61.3799C7.83416 61.3799 7.30074 61.5854 6.96228 61.9941C6.62382 62.4055 6.45595 62.9237 6.45595 63.5516V64.2835C6.45595 64.938 6.62111 65.4562 6.95415 65.8408C7.2845 66.2254 7.79625 66.4178 8.48399 66.4178C9.13383 66.4178 9.64828 66.2202 10.0246 65.8221V65.8248ZM41.9075 58.1902V69.6152L41.9102 69.6233H47.3689V63.987C47.3689 63.3458 47.542 62.7795 47.8941 62.2933C48.2461 61.8044 48.7254 61.5613 49.3373 61.5613C49.9086 61.5613 50.312 61.7483 50.5449 62.1277C50.7804 62.5043 50.8969 62.9772 50.8969 63.5408V69.6179H56.3745V63.9629C56.3745 63.2978 56.5478 62.7287 56.8998 62.2612C57.2517 61.7938 57.7581 61.5587 58.3429 61.5587C58.9278 61.5587 59.334 61.7564 59.5615 62.1464C59.7888 62.5391 59.9025 63.0599 59.9025 63.7144V69.6179H65.3802V63.4046C65.3802 61.8152 65.0661 60.4848 64.4433 59.4137C63.8206 58.3425 62.5724 57.8082 60.7014 57.8082C59.713 57.8082 58.8168 58.0433 58.0099 58.5188C57.2031 58.9943 56.5857 59.6674 56.1578 60.5382H56.1199C55.8357 59.7048 55.324 59.0424 54.5902 58.5482C53.8564 58.054 52.9168 57.8082 51.7741 57.8082C50.7587 57.8082 49.8626 58.0379 49.0827 58.5001C48.303 58.9622 47.6964 59.6354 47.2686 60.5195H47.2307L47.3661 59.2107V58.1902H41.9075ZM68.6889 68.4614C67.3757 67.4355 66.7203 65.9663 66.7203 64.0564V63.7492C66.7203 61.8393 67.3757 60.3701 68.6889 59.3443C70.0021 58.3184 71.8867 57.8056 74.3424 57.8056C76.7984 57.8056 78.6829 58.3211 79.9961 59.355C81.3093 60.3861 81.9645 61.8526 81.9645 63.7492V64.0564C81.9645 65.9663 81.312 67.4355 80.0042 68.4614C78.6992 69.4872 76.8091 70 74.3397 70C71.8704 70 69.9994 69.4872 68.6862 68.4614H68.6889ZM75.921 65.8755C76.2974 65.5096 76.4869 64.9567 76.4869 64.2114V63.5969C76.4869 62.865 76.2948 62.3147 75.913 61.9434C75.5284 61.5721 75.0059 61.3851 74.3424 61.3851C73.6792 61.3851 73.1375 61.5721 72.7531 61.9434C72.3686 62.3147 72.179 62.8676 72.179 63.5969V64.2114C72.179 64.954 72.3713 65.5096 72.7531 65.8755C73.1375 66.2414 73.6655 66.4232 74.3424 66.4232C75.0194 66.4232 75.5446 66.2414 75.921 65.8755ZM98.1645 63.2096C98.1645 61.3371 97.7313 59.9693 96.8595 59.1038L96.8621 59.1092C95.9903 58.2437 94.7637 57.811 93.177 57.811C92.1237 57.811 91.2086 58.0406 90.4287 58.5028C89.649 58.965 89.0424 59.6381 88.6146 60.5224H88.5767L88.7121 59.2134V58.1929H83.2535V69.6181H88.7121V64.0591C88.7121 63.3138 88.8962 62.7128 89.2671 62.2507C89.638 61.7884 90.1797 61.5588 90.8945 61.5588C91.5036 61.5588 91.9558 61.735 92.2483 62.0876C92.5407 62.4402 92.6869 62.9798 92.6869 63.7118V69.6154H98.1645V63.2096ZM109.607 69.5564C108.359 69.8504 107.119 69.9999 105.884 69.9999C104.116 69.9999 102.843 69.5832 102.064 68.7498C101.284 67.9164 100.894 66.7116 100.894 65.1329V61.767H99.2369V58.1902H100.894V55.7272H106.353V58.1902H109.355V61.767H106.353V64.5559C106.353 65.1703 106.461 65.6243 106.675 65.9129C106.889 66.2013 107.281 66.3456 107.855 66.3456C108.429 66.3456 108.966 66.2869 109.513 66.172L109.61 69.5564H109.607ZM121.637 61.9594V57.9579L121.635 57.9658C121.245 57.8617 120.79 57.811 120.27 57.811C119.322 57.811 118.513 58.046 117.844 58.5215C117.175 58.997 116.666 59.6702 116.314 60.5411H116.276L116.412 59.2134V58.1929H110.972V69.6181H116.431V65.1169C116.431 64.0271 116.728 63.2042 117.319 62.654C117.912 62.1011 118.759 61.8258 119.864 61.8258C120.514 61.8258 121.104 61.8686 121.637 61.9594ZM160 69.6154H154.54V54.8833H160V69.6154ZM115.255 43.0334C114.847 42.224 114.126 41.5963 113.092 41.1475L113.089 41.1448C112.058 40.696 110.636 40.4717 108.83 40.4717C106.371 40.4717 104.593 40.8937 103.507 41.7592C102.518 42.5499 101.993 43.37 101.782 44.6201H107.054L107.07 44.5587C107.173 44.2382 107.295 44.1126 107.455 43.963C107.709 43.7253 108.121 43.6157 108.654 43.6077C109.252 43.5997 109.694 43.752 109.981 44.0405C110.265 44.329 110.409 44.719 110.409 45.2052V45.7822C109.967 45.6539 109.434 45.5417 108.811 45.4456C108.188 45.3494 107.538 45.3013 106.862 45.3013C105.004 45.3013 103.615 45.6058 102.7 46.2149C101.782 46.824 101.324 47.7482 101.324 48.993C101.324 50.0829 101.704 50.9698 102.456 51.6482C103.209 52.3295 104.379 52.6686 105.965 52.6686C107.07 52.6686 108.007 52.4496 108.773 52.0143C109.54 51.5788 110.119 50.9644 110.509 50.1684H110.547L110.43 51.3812V52.284H115.87V46.0146C115.87 44.8339 115.664 43.8401 115.255 43.0334ZM110.392 47.5131C110.314 48.0768 110.086 48.5309 109.71 48.8782L109.713 48.8808C109.336 49.2254 108.822 49.3991 108.172 49.3991C107.184 49.3991 106.691 49.0091 106.691 48.2638C106.691 47.5185 107.254 47.1472 108.386 47.1472C108.711 47.1472 109.058 47.1846 109.429 47.254C109.797 47.3235 110.119 47.4116 110.392 47.5131ZM150.228 58.4787C151.262 58.9275 151.982 59.5552 152.391 60.3647C152.8 61.1713 153.005 62.1651 153.005 63.3458V69.6152H147.566V68.7124L147.682 67.4996H147.645C147.254 68.2956 146.676 68.91 145.909 69.3455C145.142 69.7808 144.206 70 143.101 70C141.514 70 140.345 69.6607 139.592 68.9796C138.839 68.301 138.46 67.4142 138.46 66.3243C138.46 65.0795 138.918 64.1551 139.836 63.5461C140.751 62.9371 142.14 62.6325 143.997 62.6325C144.674 62.6325 145.324 62.6806 145.946 62.7768C146.569 62.873 147.104 62.9851 147.544 63.1134V62.5364C147.544 62.0502 147.401 61.6602 147.117 61.3717C146.829 61.0832 146.388 60.9309 145.79 60.939C145.257 60.9469 144.845 61.0564 144.59 61.2943C144.43 61.4439 144.309 61.5694 144.206 61.8899L144.189 61.9513H138.918C139.129 60.7013 139.654 59.8812 140.642 59.0904C141.728 58.225 143.507 57.8029 145.966 57.8029C147.771 57.8029 149.193 58.0273 150.225 58.476L150.228 58.4787ZM146.845 66.2094C147.221 65.8621 147.45 65.408 147.529 64.8443C147.254 64.7429 146.933 64.6548 146.564 64.5852C146.193 64.5158 145.847 64.4784 145.521 64.4784C144.39 64.4784 143.827 64.8497 143.827 65.595C143.827 66.3403 144.319 66.7303 145.307 66.7303C145.958 66.7303 146.472 66.5566 146.848 66.2121L146.845 66.2094ZM134.244 55.9396L125.451 56.9787C124.995 57.0325 124.581 56.7117 124.526 56.262L124.526 56.2593C124.471 55.8097 124.797 55.4014 125.253 55.3476L134.046 54.3084C134.502 54.2546 134.916 54.5755 134.971 55.0251L134.971 55.0278C135.026 55.4775 134.7 55.8857 134.244 55.9396Z" fill="black"/>
</svg>
