<svg width="144" height="96" viewBox="0 0 144 96" fill="none" xmlns="http://www.w3.org/2000/svg">
<g clip-path="url(#clip0_2560_1113)">
<path d="M29.1654 48.3619C29.1636 45.822 29.3605 43.6543 30.1744 41.5734C31.5044 38.173 34.1198 36.5287 37.7428 36.2719C39.2387 36.1658 40.7286 36.232 42.1898 36.6118C45.0797 37.363 46.829 39.2614 47.7963 41.9415C48.3731 43.5398 48.5911 45.2047 48.6509 46.8842C48.7284 49.0586 48.6457 51.2281 48.0303 53.3406C47.426 55.4149 46.3941 57.2138 44.4792 58.414C43.3085 59.1478 42.0013 59.5132 40.6372 59.6673C38.9012 59.8634 37.1709 59.8075 35.478 59.3359C32.4624 58.496 30.7527 56.4209 29.8681 53.5944C29.3004 51.7801 29.1479 49.9102 29.1654 48.3619ZM38.7931 58.2526C39.0778 58.2344 39.3941 58.219 39.7094 58.193C41.4447 58.0499 42.7466 57.2733 43.5169 55.7115C44.1338 54.4607 44.4078 53.123 44.5533 51.7581C44.8173 49.2823 44.8184 46.8035 44.558 44.3268C44.4242 43.0534 44.1814 41.803 43.6616 40.6168C43.0781 39.2852 42.1466 38.3336 40.6703 37.9614C39.6961 37.7157 38.7104 37.6965 37.7247 37.8402C35.958 38.0978 34.7967 39.1013 34.126 40.693C33.5943 41.9548 33.3516 43.2805 33.2324 44.6276C33.0339 46.8688 33.0309 49.1136 33.2287 51.3553C33.3491 52.7211 33.5903 54.0648 34.1316 55.3425C34.7799 56.8729 35.8958 57.8496 37.5915 58.1318C37.9767 58.196 38.3703 58.2115 38.7931 58.2526Z" fill="#95989D"/>
<path d="M73.8613 59.3571V38.7833H77.2846V46.9761C77.494 46.8291 77.6193 46.7343 77.7513 46.6496C78.9191 45.8999 80.0625 45.1095 81.2656 44.4184C82.0929 43.9432 83.031 43.7369 84.0125 43.8199C84.9376 43.8981 85.6344 44.3029 86.0672 45.1258C86.5799 46.1006 86.8153 47.1497 86.9072 48.2258C87.0973 50.4499 87.1166 52.6699 86.6201 54.8695C85.9636 57.7784 84.1426 59.3806 81.1067 59.6976C79.3898 59.8768 75.5777 59.7015 73.8616 59.3571H73.8613ZM77.3333 48.5964V58.0113C78.1519 58.0602 78.9492 58.1582 79.7446 58.1441C80.9913 58.1217 81.9766 57.5943 82.5553 56.4761C82.7473 56.1051 82.9186 55.7105 83.0137 55.3073C83.5221 53.1541 83.5631 50.9718 83.327 48.7851C83.2732 48.2869 83.1184 47.7823 82.9155 47.3202C82.5601 46.511 81.9244 46.1983 81.0567 46.4003C80.5565 46.5167 80.0352 46.6742 79.6104 46.9441C78.8011 47.4581 78.0543 48.0658 77.3334 48.5964H77.3333Z" fill="#95989D"/>
<path d="M62.3056 59.3499H58.9002C58.8261 58.5058 58.7535 57.6785 58.674 56.7733C58.2594 57.1158 57.8967 57.4194 57.5296 57.718C56.4299 58.6124 55.2674 59.3983 53.822 59.6558C53.0844 59.7871 52.3397 59.8457 51.6072 59.618C50.3772 59.2358 49.5089 58.4695 49.2495 57.2159C48.8587 55.3276 49.0177 53.5219 50.552 52.105C51.5816 51.1543 52.8537 50.6064 54.2479 50.4154C55.5017 50.2436 56.7711 50.1807 58.0337 50.0697C58.1984 50.0552 58.363 50.0404 58.557 50.0231C58.5785 49.902 58.6122 49.7996 58.6127 49.6971C58.6164 48.693 58.632 47.6886 58.6097 46.6849C58.5828 45.4722 58.1637 45.0922 56.918 45.1281C55.9031 45.1572 54.9811 45.528 54.1254 46.0111C53.1585 46.557 52.244 47.1915 51.3081 47.7896C51.1582 47.8853 51.0152 47.9914 50.8045 48.1374V44.2033C52.6032 44.0757 54.384 43.9132 56.1686 43.8371C57.1702 43.7943 58.1898 43.8128 59.1807 43.9479C61.0061 44.1967 62.0157 45.3621 62.0447 47.1664C62.078 49.2469 62.0376 51.3287 62.0835 53.4088C62.1254 55.304 62.2404 57.1978 62.3218 59.0923C62.3248 59.1618 62.3135 59.232 62.3056 59.3499ZM58.6137 51.5937C57.1298 51.64 55.734 51.6776 54.407 52.1722C53.3139 52.5796 52.7736 53.3877 52.7318 54.5216C52.7237 54.7401 52.7271 54.9591 52.7314 55.1778C52.7584 56.5216 53.5552 57.2529 54.9257 57.2368C56.4623 57.2186 57.5336 56.3843 58.4951 55.3456C58.5627 55.2727 58.6081 55.1514 58.6087 55.0523C58.6166 53.925 58.6137 52.7976 58.6137 51.5938V51.5937Z" fill="#95989D"/>
<path d="M95.2429 43.8306C96.4875 43.7986 97.6952 43.9655 98.8188 44.532C100.313 45.285 101.164 46.5506 101.624 48.0615C102.398 50.6062 102.401 53.1703 101.535 55.7001C100.675 58.2132 98.8375 59.5865 96.1256 59.7078C95.148 59.7514 94.1416 59.7165 93.1839 59.5365C91.1489 59.154 89.7945 57.8903 89.0883 56.0212C88.0224 53.1998 88.0095 50.3404 89.0819 47.519C89.978 45.1616 91.838 44.0302 94.3477 43.834C94.6442 43.8108 94.9443 43.8308 95.2427 43.8308L95.2429 43.8306ZM98.6318 51.8343L98.5158 51.8223C98.5158 51.4571 98.5218 51.0917 98.5147 50.7267C98.4906 49.4841 98.4148 48.2459 98.05 47.0457C97.7042 45.9084 96.9729 45.1815 95.7173 45.0731C93.9074 44.9168 92.8793 45.5671 92.4365 47.1127C92.3413 47.4448 92.2689 47.7853 92.2149 48.1264C91.9278 49.9395 91.9298 51.768 92.0414 53.5887C92.1055 54.6355 92.3069 55.6837 92.5518 56.7073C92.7374 57.483 93.257 58.0734 94.0772 58.3276C95.522 58.7754 97.5268 58.5903 98.0929 56.3313C98.1195 56.2252 98.1646 56.1217 98.1765 56.0145C98.3308 54.6214 98.4807 53.2279 98.6317 51.8345L98.6318 51.8343Z" fill="#95989D"/>
<path d="M64.2461 40.7162C65.3916 40.2887 66.5153 39.8693 67.718 39.4205V44.17H71.9448V46.8345C70.5497 46.433 69.2 46.0448 67.7723 45.634C67.7563 45.8571 67.7335 46.0268 67.7334 46.1964C67.731 49.5013 67.7265 52.8062 67.7374 56.1111C67.7388 56.5082 67.7991 56.9103 67.8804 57.3005C67.9705 57.7337 68.2827 57.9777 68.7197 58.0853C69.4538 58.2661 70.1461 58.1132 70.7638 57.7485C71.3796 57.3848 71.9384 56.9287 72.5342 56.5045V59.3132C71.8564 59.4334 71.1375 59.6049 70.4082 59.6801C69.2574 59.7988 68.1002 59.8381 66.9543 59.5942C65.4178 59.2672 64.4745 58.2538 64.3068 56.7271C64.263 56.3287 64.231 55.9267 64.2305 55.5262C64.2252 50.7241 64.2266 45.922 64.2272 41.1199C64.2272 41.0112 64.2372 40.9025 64.2464 40.7161L64.2461 40.7162Z" fill="#95989D"/>
<path d="M107.989 53.0784C106.669 55.2317 104.958 57.016 104.079 59.3418H101.797C103.592 56.7606 105.338 54.2499 107.125 51.6805C105.494 49.2141 103.866 46.7516 102.206 44.2414C102.375 44.2219 102.514 44.1924 102.653 44.1919C103.699 44.188 104.746 44.2025 105.792 44.1826C106.136 44.1761 106.323 44.2887 106.493 44.584C107.368 46.1109 108.27 47.6236 109.164 49.1407C109.218 49.2333 109.281 49.3212 109.404 49.5097C110.5 47.718 111.993 46.2493 112.63 44.2222H114.936C113.353 46.4991 111.818 48.7068 110.245 50.9703C112.068 53.7396 113.894 56.5124 115.748 59.327H111.677C110.475 57.2904 109.264 55.2386 107.989 53.0784Z" fill="#95989D"/>
</g>
<defs>
<clipPath id="clip0_2560_1113">
<rect width="86.5823" height="23.5472" fill="white" transform="translate(29.1641 36.2264)"/>
</clipPath>
</defs>
</svg>
