<svg width="34" height="34" viewBox="0 0 34 34" fill="none" xmlns="http://www.w3.org/2000/svg">
<path d="M29.0234 5.5C29.0234 8.01407 26.9828 10 24.5179 10C22.058 10 20.0234 8.00934 20.0234 5.5C20.0234 3.01497 22.0409 1 24.5179 1C27.006 1 29.0234 3.01497 29.0234 5.5Z" fill="#FFB800"/>
<path d="M13.7977 12.3551C13.9206 12.1892 13.8006 11.9542 13.5941 11.9564L5.86643 12.0372C4.85475 12.0372 3.89645 11.1687 3.89645 9.94431C3.89645 8.79688 4.78647 7.85132 5.86643 7.85132H13.8365C19.6498 7.59084 22.4316 11.941 23.1786 12.4611C23.8285 13.0879 24.4873 13.9555 25.3673 13.9555H31.0014C32.1089 13.9555 33.0087 14.8496 33.0156 15.9571C33.0225 17.0744 32.1187 17.9838 31.0014 17.9838H22.5568C22.2494 17.9838 21.9575 17.849 21.7582 17.6149C21.3161 17.0959 20.5042 17.1297 20.1069 17.6837L19.2353 18.8992C18.8887 19.3824 18.9079 20.0377 19.2821 20.4998C20.0278 21.4207 21.582 23.3388 21.4886 23.2234C22.9485 24.7957 22.7486 27.7811 21.0386 29.056L16.5119 32.537C15.7419 33.1001 14.7219 33.0894 13.9619 32.5051C13.3719 32.027 13.0719 31.3152 13.0719 30.6034C13.0719 29.8597 13.4019 29.116 14.0619 28.6486L17.1985 26.1662C17.5186 25.9219 17.5785 25.4331 17.3186 25.1038C15.4226 22.7233 13.097 23.0015 12.3286 22.8727L5.16858 32.052C4.35387 33.1432 2.8713 33.2811 1.88855 32.4557C0.878605 31.5952 0.698555 30.0334 1.50861 28.9497L13.7977 12.3551Z" fill="#FFB800"/>
</svg>
