<svg width="34" height="34" viewBox="0 0 34 34" fill="none" xmlns="http://www.w3.org/2000/svg">
<path fill-rule="evenodd" clip-rule="evenodd" d="M15.9248 6.5327C16.2294 9.40696 14.8396 11.9099 12.8207 12.1231C10.8018 12.3363 8.9183 10.1791 8.61377 7.30486C8.30925 4.43061 9.69902 1.92772 11.7179 1.71449C13.7368 1.50127 15.6203 3.65845 15.9248 6.5327ZM25.3781 7.31862C25.6826 4.44437 24.2929 1.94148 22.274 1.72825C20.2551 1.51503 18.3716 3.67221 18.067 6.54647C17.7625 9.42072 19.1523 11.9236 21.1712 12.1368C23.1901 12.3501 25.0736 10.1929 25.3781 7.31862ZM28.095 25.2332L27.9929 24.8934L27.7887 24.3497L27.6525 24.0099L27.2782 23.3303L26.7676 22.6847L26.0869 22.073L25.3041 21.3594L24.6575 20.7477L24.0449 20.0681L23.5343 19.3885L23.0579 18.6749L22.5473 17.7234L22.241 17.0778L21.8666 16.3642L21.3902 15.5826L20.8456 14.869L20.4712 14.4952L20.0968 14.1554L19.5863 13.7816L18.9737 13.5098L18.1909 13.2379L17.4081 13.136H16.5912L15.8085 13.2379L14.6853 13.6457L13.5962 14.3933L12.8815 15.1069L12.439 15.7865L11.9966 16.5681L11.418 17.7574L10.8734 18.8108L10.2608 19.6264L9.51202 20.5778L7.29976 22.6167L7.09555 22.7866L6.58503 23.5002L6.17661 24.3157L5.93837 25.3352L5.80223 26.2527L5.7682 27.2721L5.8703 27.9517L6.17661 28.9032L6.61907 29.7867L7.09555 30.3983L7.70818 31.01L8.52501 31.5537L9.47799 31.9955L10.1927 32.1654L11.2818 32.1993L12.3369 31.9615L12.9836 31.6556L13.2558 31.4518L13.8685 31.1119L14.4471 30.7721L14.9576 30.4663L15.5021 30.2284L15.9446 30.0246L16.4551 29.8886L16.9997 29.8547L17.6463 29.9566L18.1228 30.0585L18.9056 30.4323L19.8586 30.9081L20.6414 31.4178L21.3561 31.8256L22.0708 32.1314L22.7515 32.2673L23.3301 32.3013L23.8066 32.2673L24.5554 32.0634L25.5084 31.6217L26.1891 31.1459L26.9038 30.4323L27.4143 29.7527L27.8568 28.8352L28.129 27.9517L28.2311 27.2041V26.4226L28.1971 25.9808L28.095 25.2332ZM32.1258 15.838C32.7511 13.0352 31.6515 10.4059 29.67 9.96529C27.6885 9.52465 25.5753 11.4395 24.95 14.2423C24.3248 17.045 25.4243 19.6743 27.4059 20.115C29.3874 20.5556 31.5006 18.6407 32.1258 15.838ZM9.05235 14.2414C9.67757 17.0442 8.57806 19.6735 6.59652 20.1141C4.61497 20.5548 2.50177 18.6399 1.87654 15.8371C1.25132 13.0344 2.35083 10.4051 4.33237 9.96444C6.31392 9.52381 8.42712 11.4387 9.05235 14.2414Z" fill="#01B8C7"/>
</svg>
