<svg width="144" height="96" viewBox="0 0 144 96" fill="none" xmlns="http://www.w3.org/2000/svg">
<g clip-path="url(#clip0_2560_1049)">
<path d="M51.6525 45.1122C52.1667 46.5118 53.242 47.3983 54.6912 47.3983C55.9067 47.3983 56.982 46.7451 56.982 45.4854C56.982 44.599 56.3742 43.8992 55.1587 43.4793L53.429 42.8727C51.2785 42.1263 50.063 40.8666 50.063 38.8604C50.063 36.3877 51.9797 34.7547 54.551 34.7547C56.608 34.7547 58.478 36.0144 59.1792 37.9273L57.0755 39.0004C56.6547 37.9273 55.8132 37.0408 54.5977 37.0408C53.429 37.0408 52.6342 37.694 52.6342 38.6738C52.6342 39.5602 53.242 40.0734 54.4107 40.54L56.1872 41.2398C58.4312 42.1263 59.5532 43.3859 59.5532 45.2988C59.5532 48.0515 57.3092 49.6844 54.6912 49.6844C52.3537 49.7777 50.25 48.2847 49.502 46.0919L51.6525 45.1122Z" fill="#95989D"/>
<path d="M64.0405 36.4343V39.4203H66.7053V41.4264H64.0405V45.952C64.0405 47.0717 64.5548 47.5383 65.6301 47.5383C66.0041 47.5383 66.4248 47.445 66.7521 47.2117V49.3112C66.1911 49.5911 65.5833 49.7311 64.9288 49.6844C62.8718 49.6844 61.703 48.4714 61.703 46.3252V41.4264H60.207V39.4203H61.703V36.4343H64.0405Z" fill="#95989D"/>
<path d="M72.8763 47.5849C74.606 47.6316 76.0553 46.2786 76.102 44.5523C76.1488 42.8261 74.793 41.3798 73.0633 41.3331C71.3335 41.2865 69.8843 42.6395 69.8375 44.3657C69.8375 44.4124 69.8375 44.459 69.8375 44.459C69.8375 46.1853 71.1465 47.5849 72.8763 47.5849ZM78.159 39.4203V49.4978H75.8215V48.0515C75.0268 49.1246 73.7645 49.7777 72.4088 49.7777C69.6038 49.7777 67.5 47.445 67.5 44.5057C67.5 41.5664 69.6505 39.2336 72.4088 39.2336C73.7645 39.187 75.0268 39.7935 75.8215 40.8666V39.4669L78.159 39.4203Z" fill="#95989D"/>
<path d="M85.8283 41.7064C85.6413 41.6131 85.4075 41.6131 85.2205 41.6131C83.444 41.6131 82.4155 42.9661 82.4155 45.0655V49.4978H80.0312V39.4203H82.3688V41.1465C82.883 39.9801 84.0985 39.187 85.3608 39.2336C85.6413 39.2336 85.7815 39.2336 85.8283 39.2803V41.7064Z" fill="#95989D"/>
<path d="M91.062 36.4343V39.4202H93.7268V41.4264H91.062V45.952C91.062 47.0717 91.5763 47.5382 92.6515 47.5382C93.0255 47.5382 93.4463 47.4449 93.7735 47.2116V49.3111C93.2125 49.5911 92.6048 49.731 91.9503 49.6844C89.8933 49.6844 88.7245 48.4713 88.7245 46.3252V41.4264H87.2285V39.4202H88.7245V36.4343H91.062Z" fill="#95989D"/>
<path d="M102.376 39.4203H104.76V49.4978H102.376V48.1448C101.722 49.1712 100.553 49.7777 99.2905 49.7311C96.8595 49.7311 95.457 48.0981 95.457 45.4854V19.3585H97.8413V45.0655C97.8413 46.6518 98.636 47.5849 100.039 47.5849C101.441 47.5849 102.376 46.5119 102.376 44.7856V39.4203Z" fill="#95989D"/>
<path d="M112.146 41.3329C110.416 41.2862 108.967 42.6392 108.92 44.3655C108.873 46.0917 110.229 47.538 111.959 47.5847C113.689 47.6314 115.138 46.2784 115.185 44.5521C115.185 44.5055 115.185 44.5055 115.185 44.4588C115.231 42.7792 113.876 41.3796 112.193 41.3329H112.146ZM109.201 39.42V40.8663C109.995 39.7933 111.258 39.1401 112.613 39.1868C115.418 39.1868 117.522 41.4729 117.522 44.4588C117.522 47.4447 115.372 49.7308 112.613 49.7308C111.258 49.7775 109.995 49.171 109.201 48.0979V65.2204H106.816V39.42H109.201Z" fill="#95989D"/>
<path d="M99.6185 63.3545C101.348 63.4012 102.797 62.0482 102.844 60.3219C102.891 58.5957 101.535 57.1494 99.8055 57.1027C98.0757 57.0561 96.6264 58.4091 96.5797 60.1353C96.5797 60.182 96.5797 60.2286 96.5797 60.2286C96.5329 61.9082 97.8887 63.3079 99.6185 63.3545ZM104.901 55.1899V65.2674H102.564V63.8211C101.769 64.8941 100.507 65.5473 99.151 65.5473C96.3459 65.5473 94.2422 63.2146 94.2422 60.2753C94.2422 57.336 96.3927 55.0032 99.151 55.0032C100.507 54.9566 101.769 55.5631 102.564 56.6362V55.2365L104.901 55.1899Z" fill="#95989D"/>
<path d="M43.4239 50.8975V65.3139H40.9929V55.0498L36.1776 65.3139H34.5413L29.7728 55.0498V65.2673H27.3418V50.8975H30.3338L35.4296 61.8148L40.5253 50.8975H43.4239Z" fill="#95989D"/>
<path d="M47.303 60.2287C47.3498 61.9082 48.7523 63.1679 50.4353 63.1213C52.1183 63.0746 53.3806 61.675 53.3338 59.9954C53.2871 58.3624 51.9313 57.1028 50.3418 57.1028C48.6588 57.1028 47.303 58.5024 47.3498 60.182C47.303 60.2287 47.303 60.2287 47.303 60.2287ZM55.7181 60.2287C55.7648 63.2146 53.3806 65.6407 50.4353 65.6873C47.4433 65.734 45.0123 63.3546 44.9655 60.4153C44.9188 57.476 47.303 55.0033 50.2483 54.9566C50.295 54.9566 50.295 54.9566 50.3418 54.9566C53.2403 54.8633 55.6246 57.1494 55.7181 60.042C55.7181 60.0887 55.7181 60.182 55.7181 60.2287Z" fill="#95989D"/>
<path d="M59.6927 65.2672H57.2617V55.1896H59.646V56.5426C60.3472 55.5162 61.516 54.9097 62.7315 54.9564C65.2093 54.9564 66.6585 56.5893 66.6585 59.202V65.2672H64.2742V59.6685C64.2742 58.0823 63.4795 57.1492 62.0302 57.1492C60.6277 57.1492 59.646 58.2222 59.646 59.9485L59.6927 65.2672Z" fill="#95989D"/>
<path d="M71.8023 52.2037V55.1897H74.467V57.1958H71.8023V61.7214C71.8023 62.8411 72.3165 63.3077 73.3918 63.3077C73.7658 63.3077 74.1865 63.2144 74.5138 62.9811V65.0806C73.9528 65.4538 73.2983 65.5471 72.6905 65.5471C70.6335 65.5471 69.4648 64.3341 69.4648 62.188V57.1958H67.9688V55.1897H69.4648V52.2037H71.8023Z" fill="#95989D"/>
<path d="M82.0861 57.4759C81.8991 57.3826 81.6653 57.3826 81.4783 57.3826C79.7018 57.3826 78.6733 58.7356 78.6733 60.8351V65.2673H76.2891V55.1898H78.6266V56.916C79.1408 55.7497 80.3563 54.9565 81.6186 55.0032C81.8991 55.0032 82.0393 55.0032 82.0861 55.0498V57.4759Z" fill="#95989D"/>
<path d="M86.6208 53.7434L88.5843 50.9907H91.2023L88.7245 53.7434H86.6208ZM90.5945 59.2487C90.4543 57.8957 89.2855 56.8693 87.883 56.9159C86.5273 56.9626 85.4052 57.9424 85.1715 59.2487H90.5945ZM92.6048 62.9345C91.7165 64.6141 89.94 65.6405 88.07 65.5472C84.9845 65.5472 82.834 63.3544 82.834 60.2751C82.834 57.2425 85.078 55.0031 87.9765 55.0031C90.9218 55.0031 93.0255 57.2892 93.0255 60.2751C93.0255 60.4617 93.0255 60.695 93.0255 60.9749H85.265C85.4052 62.4679 86.6675 63.5876 88.1635 63.541C89.4725 63.541 90.1738 62.8878 90.7348 62.0014L92.6048 62.9345Z" fill="#95989D"/>
<path d="M99.6185 63.3545C101.348 63.4012 102.797 62.0482 102.844 60.3219C102.891 58.5957 101.535 57.1494 99.8055 57.1027C98.0757 57.0561 96.6264 58.4091 96.5797 60.1353C96.5797 60.182 96.5797 60.2286 96.5797 60.2286C96.5329 61.9082 97.8887 63.3079 99.6185 63.3545ZM104.901 55.1899V65.2674H102.564V63.8211C101.769 64.8941 100.507 65.5473 99.151 65.5473C96.3459 65.5473 94.2422 63.2146 94.2422 60.2753C94.2422 57.336 96.3927 55.0032 99.151 55.0032C100.507 54.9566 101.769 55.5631 102.564 56.6362V55.2365L104.901 55.1899Z" fill="#95989D"/>
</g>
<defs>
<clipPath id="clip0_2560_1049">
<rect width="90.2279" height="46.1887" fill="white" transform="translate(27.3418 19.3585)"/>
</clipPath>
</defs>
</svg>
