<svg width="160" height="106" viewBox="0 0 160 106" fill="none" xmlns="http://www.w3.org/2000/svg">
<g clip-path="url(#clip0_426_685)">
<path d="M75.7735 64.6528V64.0136C75.9494 63.9619 76.1179 63.9059 76.2895 63.8632C76.9198 63.7061 77.3251 63.297 77.4281 62.6512C77.538 61.9626 77.6245 61.2615 77.6287 60.5653C77.6488 57.1968 77.6378 53.828 77.6371 50.4594C77.6371 50.3806 77.6292 50.3018 77.6234 50.1941H72.9523C72.945 50.2736 72.9315 50.3508 72.9315 50.4281C72.933 53.9807 72.9309 57.5333 72.9442 61.0859C72.9458 61.5427 73.0106 62.0019 73.0766 62.4554C73.1913 63.2442 73.6329 63.7368 74.3995 63.9085C74.4976 63.9305 74.5947 63.9578 74.6918 63.984C74.7233 63.9925 74.7537 64.0051 74.797 64.0203V64.6529H65.8266V64.008C66.0727 63.9479 66.3209 63.8921 66.5665 63.8263C67.0676 63.6921 67.4114 63.3582 67.4948 62.8449C67.6212 62.0665 67.7486 61.2771 67.7552 60.4913C67.7833 57.1458 67.7673 53.8001 67.7667 50.4543C67.7667 50.3758 67.7586 50.2973 67.7514 50.1643C67.2961 50.1643 66.8536 50.1643 66.4111 50.1643C66.1201 50.1643 65.829 50.1573 65.5383 50.1662C65.3621 50.1716 65.3125 50.0956 65.3031 49.9217C65.2646 49.1989 65.2593 49.1995 65.9214 48.9552C66.4784 48.7497 67.038 48.551 67.5895 48.3307C67.6918 48.2898 67.8153 48.1727 67.8369 48.0703C68.5076 44.878 70.5361 43.0067 73.4736 42.1385C75.9449 41.4082 78.4026 41.5141 80.744 42.7582C80.8338 42.8059 81.0089 42.7881 81.0933 42.7268C82.5495 41.6706 84.1661 41.0957 85.9449 41.0448C87.0046 41.0145 88.0468 41.1587 88.993 41.7003C89.6271 42.0633 90.1955 42.5207 90.1788 43.3576C90.1587 44.3606 89.8881 45.2765 88.9977 45.8446C88.4679 46.1826 87.8951 46.0776 87.3468 45.8696C86.5744 45.5766 85.9752 45.022 85.3792 44.4606C84.909 44.0177 84.4151 43.6013 83.9033 43.1478C83.5346 43.5031 83.2523 44.1016 83.0733 44.7608C82.7596 45.9165 82.7962 47.1007 82.787 48.327H86.6106C86.6106 48.9081 86.6203 49.4462 86.5977 49.9829C86.5951 50.0473 86.4176 50.1551 86.3202 50.1562C85.2685 50.1689 84.2166 50.1642 83.1647 50.1644C83.0549 50.1644 82.9452 50.1644 82.7851 50.1644C82.7851 50.3154 82.7851 50.4368 82.7851 50.5583C82.7851 53.4901 82.7733 56.4219 82.7921 59.3536C82.7978 60.2587 82.857 61.1664 82.9466 62.0672C83.0266 62.8719 83.4769 63.4145 84.243 63.6529C84.6478 63.7789 85.0555 63.8951 85.474 64.0194V64.6528H75.7735ZM72.9354 48.3326C74.4818 48.3326 75.9902 48.3353 77.4985 48.3241C77.5681 48.3237 77.6755 48.2115 77.6997 48.1308C77.8799 47.5297 78.0469 46.9243 78.2088 46.3178C78.2362 46.2154 78.255 46.0851 78.2175 45.9939C77.9008 45.2253 77.5011 44.5106 76.8594 43.9727C76.2687 43.4775 75.5929 43.3042 74.8483 43.47C73.9649 43.6668 73.5381 44.3394 73.284 45.1499C72.965 46.1668 72.9158 47.2209 72.9355 48.3327L72.9354 48.3326Z" fill="black"/>
<path d="M101.22 64.049C101.22 64.2101 101.239 64.3618 101.212 64.5044C101.197 64.5824 101.112 64.6985 101.047 64.7068C99.9056 64.854 98.7575 65.0289 97.6103 64.8335C96.3556 64.6197 95.4407 63.9109 94.9377 62.6849C94.9208 62.6437 94.8924 62.6073 94.8778 62.583C94.3767 63.0093 93.9076 63.4766 93.3752 63.8484C91.7879 64.9568 90.061 65.3014 88.2586 64.5136C85.9337 63.4974 85.2369 60.2395 86.9092 58.3744C87.569 57.6385 88.4317 57.1916 89.3362 56.8917C91.0448 56.3253 92.7748 55.8255 94.5026 55.3223C94.7522 55.2496 94.8261 55.1543 94.8151 54.9068C94.7685 53.864 94.7966 52.8132 94.6776 51.7798C94.5617 50.7734 94.0789 49.9594 93.0127 49.7418C92.626 49.6628 92.2155 49.7082 91.8158 49.6955C91.5733 49.6879 91.5134 49.8342 91.462 50.0543C91.2332 51.0335 90.9864 52.0086 90.7318 52.9811C90.6835 53.1658 90.5766 53.3359 90.4863 53.5071C89.8646 54.6867 88.6543 54.6552 87.8792 54.2336C86.9729 53.7404 86.6335 52.5755 87.108 51.615C87.6408 50.5365 88.5218 49.8106 89.5286 49.2543C91.9187 47.9336 94.4548 47.6721 97.0691 48.3348C98.8233 48.7794 99.8384 50.0978 99.9195 51.9653C99.9758 53.2616 99.9679 54.5611 99.9722 55.8593C99.9796 58.1008 99.9734 60.3425 99.9759 62.5841C99.9761 62.7787 99.9766 62.9779 100.014 63.1671C100.129 63.7409 100.382 63.9253 101.22 64.049ZM94.8117 56.219C93.573 56.7069 92.3675 57.1044 91.3949 57.9731C90.727 58.5697 90.4526 59.3333 90.659 60.234C90.8572 61.0998 91.4662 61.55 92.2523 61.7856C93.009 62.0124 93.7763 61.9721 94.5445 61.848C94.743 61.8159 94.8186 61.7177 94.8163 61.5017C94.8057 60.5251 94.8117 59.5483 94.8117 58.5716C94.8117 57.8142 94.8117 57.0567 94.8117 56.219Z" fill="black"/>
<path d="M64.8274 64.0507C64.8274 64.2015 64.849 64.3431 64.8199 64.4727C64.7998 64.5619 64.717 64.6961 64.6491 64.7051C63.5078 64.8561 62.36 65.0279 61.2126 64.8329C59.97 64.6218 59.0636 63.9186 58.5529 62.7137C58.5316 62.6633 58.5018 62.6166 58.4836 62.5826C57.9788 63.0126 57.5103 63.4814 56.9774 63.8525C55.3888 64.9586 53.6617 65.3008 51.8593 64.5119C49.576 63.5125 48.8615 60.3327 50.4515 58.4461C50.9916 57.8052 51.7101 57.423 52.4512 57.0924C54.1066 56.3539 55.8424 55.8741 57.5916 55.4425C58.4173 55.2388 58.4416 55.2457 58.4131 54.3848C58.3816 53.4352 58.3924 52.4703 58.2258 51.5421C57.9244 49.8629 56.6473 49.4986 55.3182 49.7203C55.2214 49.7364 55.1137 49.9308 55.0804 50.061C54.845 50.9805 54.6394 51.9081 54.3976 52.8256C54.3289 53.0863 54.1836 53.3291 54.0536 53.5688C53.4447 54.691 52.2101 54.6409 51.4817 54.2332C50.5891 53.7336 50.2421 52.5932 50.7005 51.6433C51.2295 50.5474 52.1263 49.828 53.1358 49.2515C54.875 48.2583 56.7579 47.8969 58.7292 48.0367C59.405 48.0847 60.0907 48.1712 60.7428 48.3512C62.4395 48.8197 63.4311 50.1277 63.5278 51.9692C63.5741 52.8518 63.5763 53.7376 63.5784 54.622C63.5846 57.1855 63.5807 59.7491 63.5807 62.3127C63.5807 62.4046 63.5807 62.4966 63.5807 62.5886C63.5815 63.6192 63.8069 63.8937 64.8272 64.0507L64.8274 64.0507ZM58.4191 56.2328C58.2229 56.3012 58.0863 56.3427 57.9542 56.3959C56.956 56.7975 55.9445 57.1748 55.0994 57.8841C54.4045 58.4673 54.0753 59.2133 54.2437 60.1358C54.4115 61.0555 55.0357 61.5336 55.8605 61.7879C56.539 61.997 57.2322 61.9755 57.922 61.8856C58.4215 61.8206 58.419 61.7994 58.4191 61.2929C58.4192 60.2931 58.4191 59.2933 58.4191 58.2935V56.2328Z" fill="black"/>
<path d="M130.301 55.3383C130.505 57.7299 131.125 59.8743 133.209 61.1421C135.532 62.5549 137.833 62.172 140.057 60.6804C140.186 60.8417 140.324 61.014 140.463 61.1875C138.312 63.888 135.613 65.2646 132.195 64.8905C128.515 64.4877 126.055 61.8779 125.706 58.0841C125.468 55.5069 125.979 53.1325 127.591 51.1062C129.407 48.8253 131.772 47.7316 134.659 47.8948C136.051 47.9735 137.353 48.3184 138.459 49.2389C139.599 50.1885 140.193 51.4686 140.472 52.9116C140.602 53.5844 140.637 54.2761 140.729 54.9574C140.77 55.2641 140.665 55.3461 140.366 55.3451C137.178 55.3343 133.99 55.3384 130.802 55.3384C130.659 55.3384 130.515 55.3384 130.301 55.3384L130.301 55.3383ZM135.615 54.0395C135.58 53.542 135.565 53.0828 135.513 52.6277C135.416 51.7706 135.274 50.922 134.844 50.1598C134.183 48.9844 132.722 48.7145 131.7 49.5761C131.179 50.0154 130.895 50.6113 130.693 51.2506C130.409 52.1491 130.302 53.0764 130.28 54.0395H135.615Z" fill="black"/>
<path d="M30.8337 55.3403H20.4381C20.6258 57.6406 21.2054 59.7289 23.1638 61.0213C25.5315 62.5839 27.8988 62.206 30.1987 60.6816C30.3233 60.8417 30.4539 61.0094 30.5986 61.1952C29.8506 62.12 29.0384 62.9623 28.0407 63.5679C25.1313 65.3336 22.1358 65.525 19.1561 63.8128C17.367 62.7847 16.3789 61.0856 15.9887 59.0389C15.5062 56.508 15.7846 54.0732 17.1826 51.8916C18.9702 49.1022 21.5179 47.7365 24.7965 47.8964C26.0579 47.9578 27.2522 48.2559 28.3019 49.0122C29.646 49.9807 30.3175 51.3796 30.622 52.9848C30.7455 53.6358 30.7801 54.3047 30.8492 54.9662C30.8606 55.0758 30.841 55.1889 30.8338 55.3401L30.8337 55.3403ZM25.7501 54.0445C25.7223 53.6199 25.7067 53.2213 25.6683 52.8251C25.5838 51.9545 25.4522 51.0929 25.0558 50.3029C24.3112 48.8186 22.469 48.622 21.4911 49.9619C21.1587 50.4175 20.9382 50.9819 20.7606 51.5288C20.4995 52.333 20.4192 53.1777 20.4259 54.0445H25.7501Z" fill="black"/>
<path d="M16.0888 64.013V64.6583H7.03183V64.0121C7.21218 63.9661 7.4112 63.9031 7.61458 63.8655C8.25441 63.7474 8.65339 63.3469 8.73914 62.7075C8.85624 61.8347 8.95709 60.9513 8.96126 60.0719C8.98274 55.5429 8.97186 51.0137 8.96945 46.4846C8.96931 46.1978 8.94877 45.9108 8.93211 45.6242C8.86933 44.5455 8.26764 43.8505 7.38038 43.3802C7.04962 43.205 6.92607 42.9746 7.04331 42.582C7.83207 42.4111 8.63835 42.2335 9.44585 42.062C10.7144 41.7926 11.9839 41.5281 13.2527 41.2598C13.7405 41.1567 14.1183 41.4701 14.1183 41.9827C14.1184 47.6614 14.1122 53.34 14.1241 59.0187C14.1262 60.0395 14.1969 61.0605 14.2496 62.0807C14.2613 62.3074 14.3238 62.5326 14.3742 62.7558C14.5148 63.3784 14.8806 63.7594 15.5063 63.8666C15.7021 63.9002 15.8931 63.963 16.0888 64.013V64.013Z" fill="black"/>
<path d="M122.061 64.6586H112.266V64.0144C112.435 63.9711 112.614 63.9093 112.797 63.8812C113.536 63.7683 113.93 63.2906 114.022 62.574C114.127 61.7562 114.212 60.9297 114.219 60.1061C114.242 57.7035 114.224 55.3005 114.213 52.8976C114.212 52.6123 114.166 52.3261 114.127 52.0424C114.025 51.3118 113.638 50.7738 113.041 50.3827C112.881 50.2777 112.731 50.1492 112.559 50.0711C112.218 49.9163 112.188 49.6575 112.278 49.3181C113.936 48.9661 115.597 48.6141 117.257 48.2609C117.662 48.1749 118.063 48.0637 118.471 48.0071C118.651 47.9822 118.853 48.0399 119.03 48.1046C119.336 48.2169 119.394 48.4661 119.387 48.7892C119.364 49.7072 119.379 50.6262 119.379 51.6595C119.507 51.4882 119.572 51.3943 119.644 51.3069C120.33 50.4759 120.979 49.6094 121.713 48.8265C122.439 48.0521 123.405 47.8748 124.413 48.0009C125.401 48.1244 126.054 48.8124 126.093 49.8374C126.118 50.4844 126.067 51.152 125.933 51.784C125.674 53.0059 125.052 53.4102 123.857 53.1858C122.88 53.0023 121.908 52.7863 120.943 52.5441C120.366 52.3993 119.94 52.7491 119.459 52.9239C119.41 52.9414 119.382 53.081 119.382 53.1639C119.387 55.785 119.388 58.4063 119.414 61.0274C119.419 61.4814 119.511 61.9401 119.609 62.3862C119.735 62.9622 120.086 63.3718 120.632 63.5703C121.094 63.7387 121.568 63.8728 122.061 64.0297V64.6588L122.061 64.6586Z" fill="black"/>
<path d="M31.9181 59.3868H33.6839C33.858 59.9008 33.997 60.4229 34.2081 60.9122C34.794 62.2701 35.7063 63.2719 37.1755 63.6114C37.8664 63.771 38.5564 63.7595 39.2221 63.4957C40.0049 63.1854 40.4852 62.6114 40.5798 61.734C40.6804 60.8006 40.3979 60.0253 39.563 59.5938C38.8589 59.2298 38.1056 58.9651 37.3696 58.6682C36.4875 58.3124 35.5798 58.0158 34.72 57.6109C32.7567 56.6863 31.8743 55.0747 32.0373 52.8695C32.1703 51.0705 33.1133 49.795 34.5716 48.8837C35.5889 48.2481 36.7168 47.9691 37.8951 47.943C39.4019 47.9097 40.8832 48.1102 42.3176 48.6065C43.303 48.9476 43.3017 48.9518 43.3017 50.004C43.3017 50.9236 43.3018 51.8432 43.3019 52.7628C43.3019 52.8857 43.3019 53.0087 43.3019 53.1682C42.7022 53.1682 42.1448 53.1792 41.5889 53.1548C41.5166 53.1516 41.4294 52.9748 41.3872 52.8632C41.1298 52.1812 40.9538 51.4557 40.6183 50.8183C39.9607 49.569 38.8998 48.9948 37.5016 49.1461C36.6339 49.24 35.9504 49.8282 35.737 50.6579C35.4847 51.6385 35.7325 52.6187 36.5069 53.0672C37.2577 53.5022 38.0918 53.7887 38.8973 54.1198C39.756 54.4728 40.6461 54.7528 41.4834 55.1515C43.0448 55.8951 44.0787 57.0713 44.1944 58.9346C44.3238 61.0208 43.5901 62.6605 41.8466 63.7785C40.6063 64.5739 39.2287 64.8773 37.7852 64.8802C35.8787 64.884 34.0299 64.5436 32.2437 63.8478C31.9997 63.7528 31.9064 63.6365 31.9103 63.3546C31.9281 62.0452 31.9182 60.7353 31.9182 59.3867L31.9181 59.3868Z" fill="black"/>
<path d="M141.695 59.3878H143.378C143.732 60.1975 143.998 61.0097 144.418 61.7265C145.357 63.3287 147.076 64.033 148.74 63.5774C149.616 63.3375 150.185 62.7728 150.345 61.835C150.511 60.8647 150.189 60.0608 149.331 59.595C148.635 59.2174 147.874 58.9675 147.139 58.6665C146.177 58.272 145.186 57.9388 144.253 57.4815C141.02 55.8968 141.158 51.498 143.467 49.5221C144.917 48.2817 146.601 47.8637 148.435 47.9467C149.678 48.0028 150.903 48.1878 152.086 48.6054C153.057 48.9479 153.058 48.9448 153.058 49.9732V53.1657C152.471 53.1657 151.905 53.1735 151.341 53.1546C151.28 53.1526 151.194 53.0043 151.171 52.9105C150.963 52.06 150.703 51.2331 150.211 50.5033C149.464 49.3956 148.199 48.8842 146.989 49.2009C146.147 49.4215 145.627 49.9739 145.468 50.8462C145.281 51.8704 145.592 52.7273 146.402 53.1606C147.129 53.5497 147.92 53.814 148.686 54.1266C149.608 54.503 150.553 54.8258 151.452 55.2527C155.033 56.9541 154.569 61.9396 151.745 63.7069C150.476 64.5016 149.101 64.8676 147.632 64.8792C145.703 64.8945 143.831 64.5554 142.023 63.8506C141.779 63.7553 141.684 63.6386 141.688 63.3567C141.705 62.0469 141.695 60.7368 141.695 59.3877L141.695 59.3878Z" fill="black"/>
<path d="M102.214 64.6493V64.0132C102.32 63.9848 102.433 63.9499 102.549 63.9238C103.572 63.6927 103.919 63.3384 104.02 62.2637C104.107 61.3395 104.154 60.4084 104.161 59.4799C104.18 57.3653 104.166 55.2505 104.157 53.1359C104.156 52.8269 104.126 52.516 104.084 52.2098C103.987 51.5163 103.668 50.9557 103.092 50.5641C102.859 50.4057 102.631 50.2359 102.386 50.1013C102.148 49.9708 102.173 49.7554 102.215 49.5656C102.234 49.4795 102.394 49.3906 102.504 49.3669C104.503 48.9336 106.504 48.5094 108.505 48.0848C108.903 48.0003 109.323 48.3563 109.323 48.7745C109.326 52.7281 109.321 56.6817 109.339 60.6352C109.342 61.2744 109.435 61.9154 109.517 62.5512C109.618 63.3278 110.057 63.7866 110.821 63.9037C110.964 63.9256 111.104 63.9678 111.26 64.0043V64.6495H102.214V64.6493Z" fill="black"/>
<path d="M106.923 46.594C106.001 46.5491 105.197 46.2652 104.569 45.5594C103.449 44.2993 103.802 42.2447 105.287 41.4343C106.286 40.889 107.328 40.8653 108.362 41.3176C109.448 41.7927 110.016 42.7957 109.946 44.0183C109.883 45.1004 109.128 46.0536 108.037 46.3823C107.676 46.4909 107.295 46.5256 106.923 46.5941L106.923 46.594Z" fill="black"/>
</g>
<defs>
<clipPath id="clip0_426_685">
<rect width="147" height="24" fill="white" transform="translate(7 41)"/>
</clipPath>
</defs>
</svg>
