<svg width="144" height="96" viewBox="0 0 144 96" fill="none" xmlns="http://www.w3.org/2000/svg">
<g clip-path="url(#clip0_2560_1310)">
<path d="M107.076 56.9621C108.314 56.1152 108.535 55.1952 108.535 53.808C108.535 52.888 108.255 51.7929 107.975 51.2088L107.238 49.8069L106.56 48.6533C105.248 46.3315 105.159 44.3748 105.248 42.7685C105.425 39.5852 107.135 36.7815 108.638 35.5403C108.771 35.4235 108.904 35.3212 109.036 35.219C103.214 36.3288 98.791 41.4543 98.791 47.5873C98.791 51.0189 100.177 54.1292 102.403 56.4072C104.393 58.1303 106.029 57.6777 107.076 56.9621Z" fill="#95989D"/>
<path d="M117.514 42.7685C117.603 44.3748 117.514 46.3315 116.202 48.6533L115.524 49.8069L114.787 51.2088C114.522 51.7929 114.227 52.9026 114.227 53.808C114.227 55.2098 114.463 56.1298 115.686 56.9621C116.762 57.7069 118.472 58.1595 120.551 56.2174C122.674 53.9686 123.986 50.9167 123.986 47.5873C123.986 41.4397 119.549 36.2996 113.711 35.219C113.844 35.3212 113.976 35.4235 114.124 35.5403C115.642 36.7815 117.337 39.5706 117.514 42.7685Z" fill="#95989D"/>
<path d="M108.418 47.602L109.067 48.7264L109.907 50.3034C110.276 51.0774 110.659 52.5084 110.659 53.7934C110.659 55.4143 110.379 57.2542 108.271 58.6999C107.961 58.9043 107.519 59.1671 106.988 59.3716C108.359 59.8827 109.848 60.1747 111.396 60.1747C112.944 60.1747 114.418 59.8973 115.789 59.3862C115.244 59.1817 114.801 58.9189 114.492 58.7145C112.398 57.2688 112.104 55.4289 112.104 53.808C112.104 52.523 112.502 51.092 112.855 50.318L113.696 48.741L114.344 47.6166C115.391 45.7913 115.465 44.2726 115.376 42.9C115.229 40.1693 113.725 37.9789 112.752 37.1904C112.236 36.7669 111.779 36.4165 111.367 36.139C110.954 36.4165 110.497 36.7669 109.981 37.1904C109.037 37.9789 107.534 40.1547 107.386 42.8854C107.298 44.258 107.372 45.7766 108.418 47.602ZM110.217 38.4024C110.777 38.4024 111.219 38.8551 111.219 39.3954C111.219 39.9503 110.777 40.3883 110.217 40.3883C109.671 40.3883 109.214 39.9357 109.214 39.3954C109.214 38.8551 109.657 38.4024 110.217 38.4024Z" fill="#95989D"/>
<path d="M21.5454 46.536H34.2233L34.0464 47.5582H21.3538L21 49.6609H35.7859L36.7146 44.4332H24.0368L24.2284 43.3672H36.9063L37.2601 41.2791H22.4742L21.5454 46.536Z" fill="#95989D"/>
<path d="M51.559 47.5582H41.0187L42.1243 41.2791H40.0015L38.5273 49.6609H53.3132L54.7874 41.2791H52.6793L51.559 47.5582Z" fill="#95989D"/>
<path d="M71.7713 44.4332H59.0934L59.2851 43.3672H71.9629L72.3167 41.2791H57.5308L56.6021 46.536H69.2799L69.103 47.5582H56.4104L56.0566 49.6609H70.8425L71.7713 44.4332Z" fill="#95989D"/>
<path d="M86.1134 49.6609H88.2214L89.7251 41.2791H77.0473L78.1824 35H76.0596L73.4355 49.6609H75.5583L76.6787 43.3672H87.2337L86.1134 49.6609Z" fill="#95989D"/>
<path d="M95.1499 37.1028H92.9976L92.5996 39.1909H94.7372L95.1499 37.1028Z" fill="#95989D"/>
<path d="M90.7871 49.6609H92.8657L94.3693 41.2791H92.2908L90.7871 49.6609Z" fill="#95989D"/>
<path d="M65.8739 53.9394C64.6798 53.9394 64.1638 54.3629 63.9132 55.5457L63.869 55.7793C63.7363 56.4072 63.7658 56.8161 63.9869 57.079C64.267 57.4148 64.783 57.4586 65.2105 57.4586H68.2325C68.3947 57.4586 68.4389 57.4732 68.4389 57.4878C68.4389 57.5024 68.4684 57.5754 68.4094 57.8237L68.2768 58.4808C68.1883 58.9189 68.1146 58.9335 67.8345 58.9335H64.5619C64.0017 58.9335 63.7216 58.9043 63.4415 58.8313L63.2056 58.7728L63.1909 59.0211L63.1319 59.6636L63.1172 59.8826H63.3383H67.7903C68.8222 59.8826 69.3824 59.5322 69.5445 58.7728L69.7657 57.7507C69.8983 57.1228 69.8541 56.7139 69.633 56.451C69.4119 56.1882 69.0433 56.0714 68.4094 56.0714H65.4759C65.3137 56.0714 65.2695 56.0568 65.2695 56.0422C65.2547 56.0276 65.24 55.9546 65.299 55.7063L65.3727 55.3267C65.4611 54.8886 65.5201 54.874 65.8149 54.874H68.9991C69.5593 54.874 69.8246 54.9032 70.1195 54.9762L70.3701 55.0346L70.3848 54.7864L70.4143 54.1293L70.429 53.9102H70.2079H65.8739V53.9394Z" fill="#95989D"/>
<path d="M77.1653 53.9394H74.0843C73.8926 53.9394 73.76 53.9686 73.6273 54.0124L74.0106 52.1871L74.0695 51.9389H73.8189H72.7133H72.4922L72.5069 52.1579C72.5217 52.45 72.4774 52.742 72.3742 53.2823L71.2686 58.4662C71.1507 59.0211 71.0622 59.2985 70.9296 59.6052L70.7969 59.8972H71.1212H72.33H72.5511L72.5364 59.6782C72.5217 59.3861 72.5511 59.0941 72.6691 58.5538L73.3472 55.3413C73.4356 54.9032 73.4946 54.8886 73.7894 54.8886H76.9884C77.1505 54.8886 77.1948 54.9032 77.1948 54.9178C77.1948 54.9324 77.2242 55.0054 77.1653 55.2536L76.4872 58.4662C76.3692 59.0065 76.2955 59.2839 76.1481 59.6052L76.0154 59.8972H76.3397H77.5486H77.7697L77.7549 59.6782C77.7402 59.3715 77.7844 59.0941 77.8876 58.5538L78.5068 55.6333C78.6394 55.0054 78.5952 54.5965 78.3741 54.3191C78.1825 54.0562 77.7992 53.9394 77.1653 53.9394Z" fill="#95989D"/>
<path d="M85.5532 53.9394H82.1921C80.998 53.9394 80.4821 54.3629 80.2315 55.5457L79.6713 58.218C79.5386 58.8459 79.5681 59.2547 79.7892 59.5176C80.0693 59.8534 80.5853 59.8972 81.0128 59.8972H84.3886C85.5827 59.8972 86.0987 59.4738 86.3493 58.291L86.9095 55.6333C87.0421 55.0054 87.0126 54.5965 86.7915 54.3337C86.5557 54.0562 86.1871 53.9394 85.5532 53.9394ZM84.4329 58.9481H81.1897C81.0275 58.9481 80.9833 58.9335 80.9833 58.9189C80.9686 58.9043 80.9538 58.8459 81.0128 58.5684L81.7056 55.3413C81.7941 54.9032 81.8678 54.8886 82.1479 54.8886H85.3911C85.5532 54.8886 85.5974 54.9032 85.5974 54.9178C85.6122 54.9324 85.6269 55.0054 85.568 55.2536L84.8898 58.4808C84.7867 58.9335 84.7277 58.9481 84.4329 58.9481Z" fill="#95989D"/>
<path d="M93.7639 53.9394H90.8451C90.7271 53.9394 90.447 53.9394 90.1964 54.0708L90.2112 53.9394H89.99H89.0024H88.796L88.8107 54.1585C88.8255 54.4651 88.7812 54.7572 88.678 55.2975L87.5577 60.5836C87.4397 61.1238 87.366 61.4159 87.2186 61.7225L87.0859 62.0146H87.4103H88.6191H88.8402L88.8255 61.7956C88.8107 61.5035 88.8402 61.2261 88.9581 60.6566C88.9581 60.6566 89.0613 60.1601 89.1498 59.7804C89.2824 59.8534 89.4741 59.8972 89.7542 59.8972H92.673C93.8376 59.8972 94.3536 59.4738 94.5894 58.291L95.1496 55.6333C95.2823 55.0054 95.2381 54.5965 95.017 54.3337C94.8106 54.0562 94.4273 53.9394 93.7639 53.9394ZM89.3856 58.583L90.0638 55.3559C90.1522 54.9178 90.2259 54.9032 90.506 54.9032H93.6312C93.7934 54.9032 93.8376 54.9178 93.8376 54.9324C93.8524 54.947 93.8671 55.02 93.8081 55.2682L93.13 58.4954C93.0416 58.9335 92.9826 58.9481 92.6878 58.9481H89.5625C89.4004 58.9481 89.3562 58.9335 89.3562 58.9189C89.3414 58.9043 89.3267 58.8459 89.3856 58.583Z" fill="#95989D"/>
<path d="M122.114 58.0135C122.114 58.1449 122.025 58.1742 121.834 58.1742H121.686V57.8675H121.893C122.055 57.8675 122.114 57.9113 122.114 58.0135ZM122.409 58.8751L122.394 58.8459L122.084 58.364C122.276 58.3202 122.379 58.2034 122.379 58.0281C122.379 57.7799 122.232 57.6631 121.937 57.6631H121.48H121.45V57.6923V58.8605V58.8897H121.48H121.657H121.686V58.8605V58.3932H121.834L122.143 58.8751L122.158 58.8897H122.173H122.364H122.394C122.261 59.0211 122.069 59.0941 121.863 59.0941C121.406 59.0941 121.067 58.7436 121.067 58.2618C121.067 57.7945 121.406 57.444 121.863 57.444C122.305 57.444 122.659 57.8091 122.659 58.2618C122.659 58.51 122.571 58.729 122.409 58.8751ZM121.863 57.2396C121.288 57.2396 120.816 57.7069 120.816 58.2764C120.816 58.8605 121.273 59.3131 121.863 59.3131C122.453 59.3131 122.91 58.8605 122.91 58.2764C122.91 57.6923 122.438 57.2396 121.863 57.2396Z" fill="#95989D"/>
</g>
<defs>
<clipPath id="clip0_2560_1310">
<rect width="103" height="27" fill="white" transform="translate(21 35)"/>
</clipPath>
</defs>
</svg>
