<svg width="144" height="96" viewBox="0 0 144 96" fill="none" xmlns="http://www.w3.org/2000/svg">
<path d="M115.743 40.4667H108.324V52.682H115.743V40.4667Z" fill="#95989D"/>
<path d="M106.916 40.4667H94.623V52.682H106.916V40.4667Z" fill="#95989D"/>
<path d="M115.744 31.7002H94.623V39.0726H115.744V31.7002Z" fill="#95989D"/>
<path d="M66.6998 42.1945C67.941 43.3861 68.5581 44.8425 68.5581 46.5775C68.5581 47.4068 68.3968 48.1872 68.0672 48.9328C67.7446 49.6784 67.3029 50.3334 66.7419 50.8839C66.1879 51.4414 65.5287 51.8804 64.7784 52.2009C64.0281 52.5215 63.2357 52.6817 62.4012 52.6817H51.4409C51.1744 52.6817 50.957 52.4657 50.957 52.2009V32.1811C50.957 31.9163 51.1744 31.7003 51.4409 31.7003H62.4012C63.2146 31.7003 64 31.8606 64.7574 32.1811C65.5217 32.5017 66.1739 32.9407 66.7349 33.4981C67.2958 34.0556 67.7306 34.7036 68.0602 35.4492C68.3828 36.1948 68.5511 36.9823 68.5511 37.8045C68.5511 39.5187 67.934 40.982 66.6928 42.1875M62.4012 35.2054H54.4562V40.4664H62.4012C62.7448 40.4664 63.0814 40.3967 63.404 40.2573C63.7265 40.118 64.0141 39.9229 64.2595 39.6859C64.5049 39.4421 64.6872 39.1633 64.8205 38.8358C64.9537 38.5153 65.0168 38.1738 65.0168 37.8045C65.0168 37.4631 64.9467 37.1286 64.8205 36.8081C64.6872 36.4875 64.4979 36.2018 64.2595 35.9579C64.0141 35.714 63.7336 35.5329 63.404 35.4005C63.0814 35.2681 62.7448 35.2054 62.4012 35.2054ZM62.4012 49.1767C62.7448 49.1767 63.0814 49.107 63.404 48.9816C63.7265 48.8492 64.0141 48.6611 64.2595 48.4241C64.5049 48.1802 64.6872 47.9015 64.8205 47.574C64.9537 47.2535 65.0168 46.919 65.0168 46.5775C65.0168 46.2361 64.9467 45.9016 64.8205 45.5811C64.6872 45.2605 64.5049 44.9749 64.2735 44.731C64.0421 44.4871 63.7616 44.2989 63.439 44.1596C63.1165 44.0202 62.7659 43.9505 62.4012 43.9505H54.4562V49.1837H62.4012V49.1767Z" fill="#95989D"/>
<path d="M80.4993 31.7002C81.9578 31.7002 83.3323 31.972 84.6085 32.5155C85.7235 32.9893 86.7262 33.6304 87.6168 34.4318C87.8202 34.6199 87.8342 34.9404 87.6308 35.1355L85.7936 36.9403C85.6113 37.1215 85.3238 37.1285 85.1344 36.9543C83.8371 35.7906 82.2944 35.2122 80.4993 35.2122C78.5709 35.2122 76.9089 35.8951 75.5065 37.2678C74.1461 38.6406 73.4659 40.2851 73.4659 42.1944C73.4659 44.1037 74.1461 45.7621 75.5065 47.1558C76.9089 48.5076 78.5709 49.1836 80.4993 49.1836C81.5511 49.1836 82.5329 48.9745 83.4374 48.5634C84.342 48.1523 85.1274 47.5669 85.7936 46.8213V43.9504H80.9831C80.7167 43.9504 80.4993 43.7344 80.4993 43.4696V40.954C80.4993 40.6893 80.7167 40.4732 80.9831 40.4732H88.837C89.1034 40.4732 89.3208 40.6893 89.3208 40.954V47.8178C89.3208 47.9153 89.2928 48.0199 89.2297 48.0965C88.7668 48.7515 88.2269 49.3578 87.6308 49.9083C86.9927 50.4936 86.2985 50.9953 85.5482 51.4064C84.7978 51.8176 83.9984 52.1381 83.1429 52.3611C82.2944 52.5841 81.4109 52.6956 80.4923 52.6956C77.5681 52.6956 75.0857 51.6643 73.0381 49.6086C70.9695 47.5739 69.9316 45.1002 69.9316 42.2014C69.9316 39.3026 70.9625 36.8497 73.0381 34.7941C75.0857 32.7385 77.5751 31.7072 80.4923 31.7072" fill="#95989D"/>
<path d="M33.4824 49.1769H43.8186L45.4525 52.4171C45.5366 52.5774 45.7049 52.6819 45.8872 52.6819H48.7272C49.0849 52.6819 49.3233 52.3056 49.162 51.9851L39.0852 31.9583C38.9099 31.6029 38.398 31.6029 38.2227 31.9583L28.1459 51.9851C27.9847 52.3056 28.2161 52.6819 28.5807 52.6819H31.4207C31.603 52.6819 31.7713 52.5774 31.8555 52.4171L33.4894 49.1769H33.4824ZM35.2354 45.6997L38.6505 38.9057L42.0655 45.6997H35.2284H35.2354Z" fill="#95989D"/>
<path d="M39.14 58.6255C39.9814 58.6255 40.5845 58.8903 41.1455 59.392C41.2226 59.4547 41.2226 59.5592 41.1525 59.6219L40.6476 60.1446C40.5915 60.2073 40.5074 60.2073 40.4372 60.1446C40.0866 59.838 39.6238 59.6568 39.161 59.6568C38.0951 59.6568 37.3097 60.5418 37.3097 61.58C37.3097 62.6183 38.1091 63.4824 39.168 63.4824C39.6659 63.4824 40.0866 63.2942 40.4372 63.0085C40.5004 62.9528 40.5915 62.9597 40.6476 63.0085L41.1595 63.5381C41.2226 63.5939 41.2086 63.7053 41.1525 63.7611C40.5915 64.3046 39.8763 64.5624 39.1329 64.5624C37.471 64.5624 36.1387 63.2524 36.1387 61.6009C36.1387 59.9495 37.478 58.6255 39.1329 58.6255H39.14Z" fill="#95989D"/>
<path d="M44.7266 58.8624C44.7266 58.7788 44.7897 58.7091 44.8808 58.7091H46.8303C47.8541 58.7091 48.6885 59.5314 48.6885 60.5348C48.6885 61.5382 47.8471 62.3883 46.8373 62.3883H45.7995V64.3255C45.7995 64.4091 45.7223 64.4788 45.6452 64.4788H44.8808C44.7897 64.4788 44.7266 64.4022 44.7266 64.3255V58.8624ZM46.7672 61.3779C47.23 61.3779 47.6227 61.0086 47.6227 60.5209C47.6227 60.0679 47.23 59.7195 46.7672 59.7195H45.8065V61.3779H46.7672Z" fill="#95989D"/>
<path d="M51.0546 64.2698L53.6351 58.7161C53.6632 58.6673 53.6982 58.6255 53.7754 58.6255H53.8595C53.9437 58.6255 53.9787 58.6673 53.9998 58.7161L56.5593 64.2698C56.6084 64.3743 56.5453 64.4858 56.419 64.4858H55.6968C55.5705 64.4858 55.5144 64.437 55.4583 64.3186L55.0516 63.4266H52.5692L52.1625 64.3186C52.1275 64.4022 52.0573 64.4858 51.9241 64.4858H51.2018C51.0756 64.4858 51.0125 64.3813 51.0616 64.2698H51.0546ZM54.6379 62.5138L53.8104 60.702H53.7824L52.9689 62.5138H54.6379Z" fill="#95989D"/>
<path d="M63.7878 63.6705L64.0894 63.1618C64.1525 63.0434 64.2997 63.0434 64.3698 63.1061C64.4119 63.134 65.0851 63.6148 65.6251 63.6148C66.0598 63.6148 66.3824 63.336 66.3824 62.9806C66.3824 62.5626 66.0248 62.2699 65.3305 61.9912C64.5522 61.6776 63.7668 61.1828 63.7668 60.2073C63.7668 59.4756 64.3137 58.6255 65.6321 58.6255C66.4806 58.6255 67.1257 59.0575 67.294 59.176C67.3782 59.2248 67.3992 59.3641 67.3431 59.4477L67.0275 59.9146C66.9644 60.0122 66.8382 60.0819 66.74 60.0122C66.6769 59.9704 66.0458 59.5592 65.583 59.5592C65.1202 59.5592 64.8537 59.8728 64.8537 60.1376C64.8537 60.5278 65.1622 60.7926 65.8354 61.0644C66.6419 61.3849 67.5675 61.8657 67.5675 62.9319C67.5675 63.782 66.8312 64.5624 65.6601 64.5624C64.6153 64.5624 63.9982 64.0747 63.8369 63.9214C63.7598 63.8447 63.7177 63.8029 63.7948 63.6705H63.7878Z" fill="#95989D"/>
<path d="M71.1172 58.8624C71.1172 58.7788 71.1803 58.7091 71.2715 58.7091H74.6514C74.7426 58.7091 74.8127 58.7858 74.8127 58.8624V59.5383C74.8127 59.6219 74.7496 59.6916 74.6514 59.6916H72.1971V61.0435H74.2447C74.3288 61.0435 74.399 61.1201 74.399 61.1968V61.8797C74.399 61.9702 74.3218 62.033 74.2447 62.033H72.1971V63.4754H74.6514C74.7426 63.4754 74.8127 63.552 74.8127 63.6287V64.3046C74.8127 64.3882 74.7496 64.4579 74.6514 64.4579H71.2715C71.1803 64.4579 71.1172 64.3813 71.1172 64.3046V58.8415V58.8624Z" fill="#95989D"/>
<path d="M78.4863 58.7718C78.4863 58.6882 78.5635 58.6255 78.6406 58.6255H78.851L82.3011 62.2699H82.3081V58.8624C82.3081 58.7788 82.3712 58.7091 82.4694 58.7091H83.2337C83.3178 58.7091 83.395 58.7858 83.395 58.8624V64.4161C83.395 64.4997 83.3178 64.5624 83.2337 64.5624H83.0374L79.5662 60.7787H79.5592V64.3255C79.5592 64.4091 79.4961 64.4788 79.4049 64.4788H78.6476C78.5635 64.4788 78.4933 64.4022 78.4933 64.3255V58.7718H78.4863Z" fill="#95989D"/>
<path d="M89.9583 58.6255C90.7998 58.6255 91.4029 58.8903 91.9639 59.392C92.041 59.4547 92.041 59.5592 91.9709 59.6219L91.466 60.1446C91.4099 60.2073 91.3257 60.2073 91.2556 60.1446C90.905 59.838 90.4422 59.6568 89.9794 59.6568C88.9135 59.6568 88.1281 60.5418 88.1281 61.58C88.1281 62.6183 88.9275 63.4824 89.9864 63.4824C90.4842 63.4824 90.905 63.2942 91.2556 63.0085C91.3187 62.9528 91.4099 62.9597 91.466 63.0085L91.9779 63.5381C92.041 63.5939 92.027 63.7053 91.9709 63.7611C91.4099 64.3046 90.6946 64.5624 89.9513 64.5624C88.2894 64.5624 86.957 63.2524 86.957 61.6009C86.957 59.9495 88.2964 58.6255 89.9513 58.6255H89.9583Z" fill="#95989D"/>
<path d="M95.5527 58.8624C95.5527 58.7788 95.6158 58.7091 95.707 58.7091H98.0842C99.08 58.7091 99.8934 59.5035 99.8934 60.479C99.8934 61.2386 99.3885 61.8588 98.6662 62.1445L99.8022 64.2419C99.8583 64.3464 99.8022 64.4788 99.662 64.4788H98.7924C98.7153 64.4788 98.6732 64.437 98.6592 64.4022L97.5583 62.2141H96.6397V64.3186C96.6397 64.4022 96.5625 64.4719 96.4854 64.4719H95.721C95.6299 64.4719 95.5668 64.3952 95.5668 64.3186V58.8554L95.5527 58.8624ZM97.993 61.3361C98.4348 61.3361 98.8135 60.9599 98.8135 60.493C98.8135 60.054 98.4348 59.6916 97.993 59.6916H96.6397V61.3361H97.993Z" fill="#95989D"/>
<path d="M103.568 58.8624C103.568 58.7788 103.631 58.7091 103.723 58.7091H104.487C104.571 58.7091 104.641 58.7858 104.641 58.8624V63.4893H106.759C106.85 63.4893 106.913 63.566 106.913 63.6426V64.3186C106.913 64.4022 106.85 64.4719 106.759 64.4719H103.723C103.631 64.4719 103.568 64.3952 103.568 64.3186V58.8554V58.8624Z" fill="#95989D"/>
</svg>
