<svg width="198" height="132" viewBox="0 0 198 132" fill="none" xmlns="http://www.w3.org/2000/svg">
<g clip-path="url(#clip0_2562_2035)">
<path d="M36.0019 66.5226C35.9993 62.8552 36.2882 59.7252 37.482 56.7205C39.4328 51.8107 43.2691 49.4365 48.5833 49.0656C50.7776 48.9124 52.963 49.0081 55.1064 49.5564C59.3452 50.6411 61.9112 53.3822 63.33 57.252C64.1761 59.5598 64.4958 61.9639 64.5836 64.3889C64.6972 67.5284 64.576 70.661 63.6732 73.7113C62.7868 76.7064 61.2733 79.3038 58.4644 81.0369C56.7472 82.0964 54.8298 82.624 52.829 82.8465C50.2826 83.1296 47.7445 83.0489 45.2614 82.3681C40.838 81.1552 38.3302 78.159 37.0327 74.0777C36.1999 71.4581 35.9762 68.7581 36.0019 66.5226ZM50.124 80.8038C50.5415 80.7775 51.0055 80.7552 51.468 80.7178C54.0134 80.5111 55.923 79.3897 57.0529 77.1347C57.9578 75.3287 58.3596 73.3971 58.5731 71.4263C58.9603 67.8515 58.962 64.2723 58.58 60.6962C58.3837 58.8575 58.0276 57.052 57.2652 55.3393C56.4094 53.4165 55.043 52.0426 52.8776 51.5051C51.4486 51.1504 50.0026 51.1227 48.5568 51.3302C45.9655 51.702 44.262 53.1511 43.2782 55.4494C42.4983 57.2712 42.1423 59.1854 41.9674 61.1305C41.6764 64.3667 41.6719 67.6079 41.962 70.8448C42.1387 72.8168 42.4925 74.757 43.2864 76.6019C44.2374 78.8117 45.8743 80.222 48.3615 80.6294C48.9264 80.722 49.5039 80.7444 50.124 80.8038Z" fill="black"/>
<path d="M101.562 82.3985V52.6918H106.584V64.5215C106.891 64.3093 107.075 64.1724 107.268 64.0501C108.981 62.9676 110.658 61.8263 112.423 60.8284C113.637 60.1423 115.013 59.8445 116.452 59.9642C117.809 60.0772 118.831 60.6616 119.466 61.8498C120.218 63.2574 120.563 64.7722 120.698 66.3259C120.977 69.5374 121.006 72.7429 120.277 75.9188C119.314 80.119 116.643 82.4325 112.19 82.8902C109.672 83.149 104.08 82.8959 101.563 82.3985H101.562ZM106.655 66.8611V80.4553C107.856 80.526 109.025 80.6675 110.192 80.647C112.021 80.6148 113.466 79.8533 114.315 78.2387C114.597 77.703 114.848 77.1332 114.987 76.551C115.733 73.442 115.793 70.291 115.447 67.1335C115.368 66.4142 115.141 65.6856 114.843 65.0184C114.322 63.8499 113.39 63.3984 112.117 63.6901C111.383 63.8582 110.618 64.0856 109.995 64.4753C108.808 65.2175 107.713 66.0949 106.655 66.8611H106.655Z" fill="black"/>
<path d="M84.6119 82.3882H79.6168C79.5081 81.1694 79.4016 79.9748 79.285 78.6678C78.6769 79.1623 78.1449 79.6007 77.6064 80.0318C75.9933 81.3233 74.2881 82.4581 72.168 82.8298C71.086 83.0195 69.9937 83.104 68.9193 82.7754C67.1151 82.2235 65.8415 81.1169 65.461 79.3068C64.8878 76.5803 65.121 73.9731 67.3716 71.9272C68.8818 70.5544 70.7477 69.7633 72.7927 69.4876C74.6318 69.2394 76.4938 69.1487 78.3458 68.9885C78.5874 68.9675 78.8289 68.946 79.1133 68.9211C79.145 68.7462 79.1944 68.5985 79.195 68.4504C79.2005 67.0006 79.2234 65.5503 79.1907 64.1011C79.1512 62.35 78.5365 61.8014 76.7093 61.8531C75.2207 61.8952 73.8683 62.4306 72.613 63.1281C71.1947 63.9163 69.8534 64.8326 68.4806 65.6961C68.2607 65.8343 68.051 65.9876 67.7418 66.1984V60.5178C70.3803 60.3336 72.9924 60.0989 75.61 59.989C77.0792 59.9272 78.5747 59.9541 80.0283 60.1491C82.7057 60.5083 84.1866 62.191 84.2291 64.7964C84.278 67.8004 84.2187 70.8063 84.2861 73.8098C84.3475 76.5463 84.5162 79.2808 84.6356 82.0162C84.64 82.1166 84.6234 82.2179 84.6119 82.3882ZM79.1965 71.1889C77.0199 71.2557 74.9726 71.3101 73.0261 72.0243C71.4227 72.6125 70.6301 73.7793 70.5689 75.4165C70.557 75.732 70.5619 76.0483 70.5684 76.3641C70.6079 78.3043 71.7767 79.3604 73.7869 79.337C76.0409 79.3108 77.6122 78.1061 79.0226 76.6063C79.1217 76.501 79.1883 76.326 79.1893 76.1828C79.2008 74.5551 79.1965 72.9272 79.1965 71.189V71.1889Z" fill="black"/>
<path d="M132.925 59.9797C134.751 59.9335 136.522 60.1745 138.171 60.9924C140.362 62.0798 141.61 63.9072 142.285 66.0887C143.421 69.7631 143.424 73.4655 142.155 77.1183C140.893 80.7469 138.198 82.7299 134.22 82.9049C132.786 82.968 131.31 82.9175 129.905 82.6576C126.92 82.1052 124.934 80.2807 123.898 77.5818C122.334 73.508 122.315 69.3793 123.888 65.3054C125.203 61.9015 127.931 60.2679 131.612 59.9847C132.047 59.9511 132.487 59.98 132.925 59.98L132.925 59.9797ZM137.896 71.5364L137.726 71.519C137.726 70.9917 137.735 70.4641 137.725 69.937C137.689 68.1428 137.578 66.3549 137.043 64.622C136.536 62.9798 135.463 61.9303 133.621 61.7738C130.966 61.5481 129.458 62.487 128.809 64.7188C128.669 65.1983 128.563 65.69 128.484 66.1824C128.063 68.8005 128.066 71.4406 128.229 74.0696C128.323 75.581 128.619 77.0946 128.978 78.5725C129.25 79.6926 130.012 80.545 131.215 80.9121C133.335 81.5586 136.275 81.2915 137.106 78.0296C137.145 77.8765 137.211 77.727 137.228 77.5721C137.455 75.5607 137.675 73.5485 137.896 71.5367L137.896 71.5364Z" fill="black"/>
<path d="M87.4584 55.4828C89.1386 54.8655 90.7868 54.26 92.551 53.6119V60.4698H98.7508V64.3171C96.7045 63.7374 94.7248 63.1768 92.6307 62.5837C92.6071 62.9058 92.5737 63.1508 92.5735 63.3957C92.5701 68.1676 92.5635 72.9397 92.5795 77.7116C92.5814 78.285 92.6699 78.8656 92.7891 79.4291C92.9214 80.0545 93.3793 80.4068 94.0203 80.5622C95.097 80.8233 96.1126 80.6025 97.0186 80.0759C97.9219 79.5508 98.7415 78.8922 99.6154 78.2796V82.3351C98.6212 82.5088 97.5668 82.7564 96.497 82.8649C94.8089 83.0363 93.1116 83.0932 91.4308 82.741C89.177 82.2687 87.7934 80.8055 87.5474 78.6012C87.4831 78.0258 87.4362 77.4454 87.4355 76.8671C87.4276 69.9333 87.4298 62.9995 87.4306 56.0657C87.4306 55.9087 87.4452 55.7518 87.4587 55.4827L87.4584 55.4828Z" fill="black"/>
<path d="M151.621 73.3327C149.685 76.4419 147.176 79.0183 145.887 82.3764H142.539C145.172 78.6495 147.733 75.0243 150.354 71.3143C147.962 67.753 145.574 64.1974 143.139 60.5729C143.387 60.5446 143.591 60.5021 143.794 60.5014C145.33 60.4957 146.865 60.5167 148.4 60.4879C148.903 60.4786 149.178 60.6412 149.427 61.0676C150.711 63.2723 152.034 65.4565 153.345 67.6471C153.424 67.7807 153.516 67.9076 153.697 68.1799C155.305 65.5928 157.495 63.4721 158.429 60.5451H161.812C159.49 63.8327 157.239 67.0206 154.931 70.2888C157.606 74.2874 160.284 78.2911 163.002 82.3551H157.032C155.268 79.4145 153.492 76.4519 151.621 73.3327Z" fill="black"/>
</g>
<defs>
<clipPath id="clip0_2562_2035">
<rect width="127" height="34" fill="white" transform="translate(36 49)"/>
</clipPath>
</defs>
</svg>
