<svg width="198" height="132" viewBox="0 0 198 132" fill="none" xmlns="http://www.w3.org/2000/svg">
<g clip-path="url(#clip0_2562_1963)">
<path d="M38 35C44.4876 35.0017 50.9752 35.0034 57.4628 35.005C57.624 35.005 57.7852 35.005 58.0051 35.005C58.0051 35.1924 58.0051 35.351 58.0051 35.5097C58.0052 36.5815 57.9863 37.6537 58.0153 38.7248C58.0264 39.1316 57.8866 39.2159 57.5083 39.2131C55.2825 39.1968 53.0566 39.2052 50.8307 39.2052C50.6685 39.2052 50.5064 39.2052 50.2779 39.2052V60.3785H45.7678C45.7678 60.1796 45.7678 59.9945 45.7678 59.8094C45.7677 53.1209 45.7676 46.4324 45.7671 39.7439C45.7671 39.3851 45.5929 39.2055 45.2446 39.2051C42.978 39.2048 40.7114 39.2043 38.4448 39.2059C38.2965 39.206 38.1483 39.2235 38.0001 39.2331C38.0001 37.822 38.0001 36.4109 38.0001 34.9998L38 35Z" fill="black"/>
<path d="M160 89.625C159.429 89.7118 158.857 89.7951 158.286 89.886C155.837 90.2764 153.382 90.3799 150.92 90.0296C150.066 89.9081 149.215 89.7617 148.287 89.6146C149.481 85.7713 151.342 82.404 154.146 79.4715C154.763 80.2231 155.368 80.9152 155.924 81.644C157.668 83.9278 158.97 86.4442 159.828 89.1882C159.867 89.3124 159.942 89.4254 160 89.5436V89.625Z" fill="black"/>
<path d="M45.4316 89.9622V64.5985C45.6076 64.5907 45.7665 64.5777 45.9255 64.5777C48.8977 64.5766 51.8702 64.5569 54.8422 64.5848C56.5472 64.6008 58.2249 64.8275 59.8033 65.54C62.3238 66.678 63.3463 68.775 63.189 71.3833C63.1493 72.0401 63.04 72.7103 62.8423 73.3364C62.3508 74.8932 61.2969 75.9518 59.7683 76.5334C59.6108 76.5933 59.4529 76.6517 59.182 76.7532C59.6311 76.9015 59.9635 76.9969 60.2853 77.1198C62.2439 77.8683 63.459 79.2535 63.8164 81.3338C64.1669 83.3734 63.964 85.321 62.6576 87.0203C61.5456 88.4668 60 89.2477 58.2583 89.5993C57.1758 89.8178 56.0565 89.9296 54.9515 89.9464C51.9392 89.9922 48.9257 89.9622 45.9128 89.9622H45.4316V89.9622ZM49.864 78.9947C49.853 79.0723 49.8293 79.1634 49.8292 79.2546C49.8271 81.3977 49.8319 83.5409 49.8227 85.684C49.8215 85.9773 49.9351 86.0515 50.208 86.0499C51.7142 86.0407 53.2206 86.0566 54.7267 86.0401C55.2675 86.0342 55.812 85.9923 56.3469 85.9131C57.1174 85.7992 57.8423 85.5575 58.4822 85.0765C59.8504 84.0482 60.097 80.7882 58.0147 79.7131C57.481 79.4375 56.8854 79.2291 56.2944 79.1262C54.1953 78.7605 52.072 78.9895 49.959 78.9507C49.9351 78.9503 49.9106 78.9723 49.864 78.9947ZM49.8482 75.035C49.9645 75.0499 50.0553 75.0715 50.1461 75.0716C51.5153 75.073 52.8853 75.0983 54.2535 75.0599C54.9536 75.0402 55.6667 74.9731 56.3456 74.8098C58.3132 74.3365 59.2142 73.0343 58.7632 70.7911C58.6025 69.9922 58.1113 69.3947 57.3563 69.1209C56.6892 68.8789 55.9771 68.6695 55.2752 68.6336C53.6118 68.5486 51.9426 68.5844 50.2762 68.5495C49.9141 68.542 49.8167 68.6564 49.8198 69.0115C49.8363 70.8815 49.8272 72.7516 49.8285 74.6217C49.8286 74.7541 49.8408 74.8864 49.8482 75.0349V75.035Z" fill="black"/>
<path d="M111.337 88.5628C111.296 88.5344 111.238 88.4984 111.184 88.4581C109.953 87.5473 109.913 85.8313 110.746 84.7499C111.137 84.2416 111.657 83.8315 112.123 83.3818C112.217 83.2916 112.332 83.2235 112.464 83.1251C112.369 83.0388 112.308 82.9699 112.235 82.9181C108.795 80.4918 108.764 74.389 113.271 72.2653C116.216 70.8774 119.208 70.9486 122.109 72.53C122.121 72.5365 122.136 72.5412 122.144 72.5509C122.752 73.2358 123.322 73.0458 124.012 72.6001C124.975 71.9772 126.085 71.6729 127.224 71.5065C127.304 71.4948 127.385 71.4848 127.466 71.4824C127.504 71.4813 127.543 71.5001 127.628 71.5214C127.628 72.3115 127.631 73.1091 127.626 73.9066C127.624 74.2845 127.737 74.7628 127.55 75.0083C127.4 75.2061 126.877 75.1107 126.523 75.1659C125.886 75.2652 125.251 75.3798 124.583 75.4934C124.726 75.904 124.872 76.2257 124.952 76.5628C125.53 78.9996 124.734 82.354 121.273 83.7615C119.346 84.5453 117.357 84.6912 115.329 84.1929C114.877 84.0819 114.341 84.4391 114.203 84.9417C114.083 85.3807 114.288 85.7775 114.815 85.8608C115.817 86.019 116.83 86.1172 117.842 86.1953C119.639 86.3339 121.448 86.3725 123.197 86.8806C124.238 87.1831 125.228 87.5961 125.949 88.4502C127.464 90.2465 127.142 93.3265 125.299 94.8802C124.288 95.7329 123.108 96.2387 121.835 96.5076C118.673 97.1761 115.505 97.1922 112.364 96.381C111.667 96.2008 110.972 95.8963 110.363 95.5101C108.181 94.1238 108.002 91.1931 109.973 89.5094C110.38 89.161 110.856 88.8929 111.337 88.5627V88.5628ZM117.543 74.7166C117.421 74.7166 117.298 74.7082 117.177 74.7179C115.914 74.8193 114.832 75.2434 114.283 76.4851C113.848 77.4709 113.848 78.4908 114.243 79.4957C114.556 80.2895 115.138 80.8597 115.952 81.0576C116.664 81.2309 117.423 81.3122 118.155 81.2828C119.153 81.2427 120.031 80.8451 120.592 79.9506C122.037 77.6439 120.571 74.83 117.868 74.7162C117.76 74.7117 117.651 74.7157 117.543 74.7167V74.7166ZM117.545 93.7759C118.6 93.6811 119.467 93.6373 120.323 93.5162C121.119 93.4036 121.895 93.1786 122.507 92.6102C123.194 91.9721 123.085 90.9461 122.242 90.5424C121.738 90.3008 121.17 90.1226 120.616 90.0682C118.54 89.8641 116.458 89.7211 114.378 89.5624C114.278 89.5549 114.15 89.5874 114.075 89.6494C113.733 89.93 113.337 90.1791 113.084 90.5288C112.34 91.5588 112.683 92.6855 113.843 93.185C114.005 93.2544 114.172 93.3272 114.344 93.3511C115.468 93.5076 116.594 93.6511 117.545 93.776V93.7759Z" fill="black"/>
<path d="M119.825 60.3992C118.366 60.3992 116.929 60.4045 115.492 60.3879C115.391 60.3867 115.229 60.2405 115.201 60.1339C115.077 59.6637 114.989 59.1836 114.894 58.706C114.868 58.5777 114.861 58.4456 114.833 58.2091C114.648 58.3881 114.528 58.5034 114.41 58.6197C111.845 61.1267 107.508 61.4038 104.871 59.2186C103.448 58.0394 102.688 56.4605 102.323 54.6976C101.738 51.8736 101.782 49.0713 102.81 46.3313C104.808 41.0009 111.531 40.6829 114.55 43.5621C114.607 43.6159 114.672 43.6608 114.817 43.7773V35.0225H119.27C119.27 35.2064 119.27 35.3889 119.27 35.5712C119.27 42.2181 119.26 48.865 119.279 55.5118C119.282 56.675 119.38 57.8399 119.483 58.9998C119.523 59.4503 119.696 59.889 119.825 60.3991L119.825 60.3992ZM114.835 51.2395C114.835 50.1543 114.847 49.0687 114.824 47.9839C114.82 47.7758 114.728 47.5331 114.597 47.3706C114.059 46.7046 113.366 46.2273 112.587 45.8835C109.834 44.6696 107.282 45.9435 106.627 48.8594C106.35 50.089 106.324 51.3418 106.463 52.5831C106.544 53.3008 106.721 54.0334 107 54.6982C107.642 56.2285 108.853 56.9814 110.518 56.9856C112.246 56.9899 113.564 56.1404 114.704 54.9434C114.799 54.8435 114.827 54.6473 114.828 54.4953C114.839 53.4101 114.834 52.3248 114.835 51.2395Z" fill="black"/>
<path d="M106.656 89.962C105.89 89.962 105.16 89.962 104.431 89.962C103.766 89.962 103.101 89.9452 102.437 89.9697C102.145 89.9804 102.008 89.8664 101.957 89.6049C101.869 89.1532 101.785 88.7008 101.701 88.2484C101.678 88.1201 101.662 87.9904 101.633 87.7921C101.403 88.0061 101.22 88.1758 101.037 88.3466C98.544 90.6808 94.3358 90.9139 91.7457 88.8405C90.3639 87.7343 89.5955 86.2387 89.1988 84.5481C88.5042 81.5889 88.5212 78.6426 89.6648 75.7948C90.7719 73.0379 92.9006 71.6006 95.849 71.3661C97.9821 71.1965 99.8751 71.7647 101.466 73.2334C101.501 73.2656 101.553 73.2799 101.653 73.3318V64.6092H106.089C106.089 64.7899 106.089 64.96 106.089 65.1302C106.089 71.4908 106.084 77.8514 106.092 84.212C106.095 86.1303 105.963 88.0644 106.656 89.9622L106.656 89.962ZM101.668 80.7869H101.67C101.67 79.7158 101.677 78.6445 101.663 77.5736C101.661 77.3978 101.616 77.1811 101.507 77.0547C100.348 75.7028 98.906 74.9509 97.0851 75.064C95.4919 75.1629 94.2847 75.8771 93.7486 77.4192C92.9827 79.6222 92.9213 81.8714 93.7214 84.0772C94.418 85.998 96.0978 86.8323 98.1648 86.4772C99.4551 86.2556 100.507 85.5734 101.388 84.6291C101.536 84.4704 101.651 84.2143 101.656 84.0001C101.683 82.9297 101.668 81.8582 101.668 80.787V80.7869Z" fill="black"/>
<path d="M65.4772 44.2105C66.3306 43.6736 67.1075 43.0974 67.9586 42.6683C69.5881 41.8466 71.3402 41.5882 73.1445 41.8794C75.3741 42.2393 76.8303 43.7399 77.174 45.9778C77.2396 46.4052 77.2782 46.8413 77.279 47.2736C77.2868 51.5064 77.2841 55.7393 77.2842 59.9721C77.2842 60.0926 77.2842 60.2131 77.2842 60.3693C77.1367 60.3816 77.0197 60.3995 76.9027 60.3997C75.6811 60.4019 74.4594 60.3885 73.2383 60.4093C72.8837 60.4154 72.8132 60.2853 72.814 59.9627C72.8234 56.1776 72.8272 52.3924 72.8122 48.6073C72.8101 48.0847 72.7517 47.5489 72.6238 47.0431C72.4256 46.2593 71.8567 45.8168 71.0719 45.6663C69.9185 45.4451 68.8112 45.6396 67.8087 46.2161C67.0611 46.646 66.3737 47.1854 65.6875 47.7126C65.5521 47.8166 65.4876 48.0874 65.487 48.2814C65.4754 52.1208 65.479 55.9602 65.4768 59.7996C65.4764 60.4817 65.5339 60.3987 64.8572 60.4007C63.7171 60.4041 62.5769 60.3924 61.437 60.4072C61.1303 60.4112 61.0094 60.3408 61.0098 60.0043C61.0186 51.7963 61.0169 43.5885 61.0183 35.3806C61.0183 35.2739 61.033 35.1674 61.0428 35.0334H65.4773V44.2103L65.4772 44.2105Z" fill="black"/>
<path d="M145.486 82.3242H133.247C133.262 82.5573 133.258 82.7429 133.287 82.9234C133.722 85.6523 135.542 86.837 138.213 86.7677C139.961 86.7223 141.46 86.0942 142.711 84.8723C142.779 84.8062 142.854 84.7475 142.926 84.6862C142.936 84.678 142.95 84.6753 143.027 84.6425C143.744 85.4286 144.479 86.2346 145.28 87.1138C144.811 87.5193 144.263 88.0607 143.649 88.5121C140.516 90.815 135.692 90.9751 132.469 88.8963C131.052 87.9817 130.061 86.7017 129.509 85.1219C128.496 82.2276 128.434 79.3015 129.624 76.455C130.929 73.3375 133.421 71.7426 136.726 71.3796C138.232 71.214 139.71 71.4124 141.098 72.0585C142.942 72.9174 144.063 74.4175 144.755 76.2789C145.457 78.1679 145.601 80.134 145.541 82.1261C145.539 82.1775 145.513 82.2281 145.486 82.3242ZM141.391 78.924C141.304 76.4807 139.877 75.0236 137.592 74.9768C134.869 74.9211 133.496 77.0065 133.365 78.924H141.391Z" fill="black"/>
<path d="M89.7539 60.3659V42.1499H94.1686V44.6863C94.1979 44.7044 94.227 44.7227 94.2563 44.7408C95.9267 42.4537 98.2629 41.7179 101.024 41.7793C100.975 43.1337 100.927 44.4627 100.877 45.8521C100.566 45.8335 100.301 45.8161 100.036 45.8022C97.5752 45.6726 95.6537 46.6153 94.3237 48.7014C94.2102 48.8794 94.1759 49.1343 94.1753 49.3536C94.1663 52.8523 94.1688 56.3511 94.1686 59.8497C94.1686 60.0102 94.1686 60.1707 94.1686 60.3659H89.7539Z" fill="black"/>
<path d="M78.2711 71.3404C78.2229 72.7311 78.1771 74.0528 78.1297 75.42C77.8027 75.4001 77.5228 75.3805 77.2426 75.3664C74.7926 75.243 72.8944 76.2033 71.5753 78.2742C71.4757 78.4305 71.4495 78.6561 71.4491 78.8497C71.4419 82.3484 71.4439 85.8473 71.444 89.3461C71.444 89.5337 71.444 89.7213 71.444 89.9349H67.0134C67.0134 89.7644 67.0134 89.6062 67.0134 89.4482C67.0137 83.6981 67.0189 77.9482 67.0039 72.1982C67.0028 71.7741 67.1266 71.6729 67.5304 71.6821C68.6694 71.7078 69.8094 71.6911 70.949 71.6911C71.0955 71.6911 71.242 71.6911 71.4368 71.6911V74.2362L71.5147 74.3036C73.1875 72.0197 75.519 71.2837 78.2711 71.3405V71.3404Z" fill="black"/>
<path d="M81.209 42.1486H85.6239V60.373H81.209V42.1486Z" fill="black"/>
<path d="M81.2051 71.7112H85.6189V89.9394H81.2051V71.7112Z" fill="black"/>
<path d="M85.6451 39.2091H81.1934V35.3763H85.6451V39.2091Z" fill="black"/>
<path d="M85.6483 68.7773H81.1953V64.9504H85.6483V68.7773Z" fill="black"/>
</g>
<defs>
<clipPath id="clip0_2562_1963">
<rect width="122" height="62" fill="white" transform="translate(38 35)"/>
</clipPath>
</defs>
</svg>
