<svg width="34" height="34" viewBox="0 0 34 34" fill="none" xmlns="http://www.w3.org/2000/svg">
<path fill-rule="evenodd" clip-rule="evenodd" d="M18.1187 2.65995C20.7309 5.17995 22.0992 8.41995 22.0992 11.9C22.0992 15.38 20.6065 18.62 18.1187 21.14L16.9992 22.1L15.8797 21.14C13.2675 18.62 11.8992 15.38 11.8992 11.9C11.8992 8.41995 13.2675 5.05995 15.8797 2.65995L16.9992 1.69995L18.1187 2.65995ZM3.03692 17H1.69922V18.5049C1.69922 22.2672 2.92545 25.6532 5.26643 28.2868C7.60742 30.9204 10.6173 32.3 13.85 32.3H13.9615H15.2992V30.795C15.2992 27.0327 14.073 23.6467 11.732 21.0131C9.39102 18.3795 6.38119 17 3.03692 17ZM32.2992 17H30.9615C27.7287 17 24.6074 18.3795 22.2664 21.0131C19.9254 23.6467 18.6992 27.1581 18.6992 30.795V32.3H20.0369H20.1484C23.3812 32.3 26.391 30.9204 28.732 28.2868C31.073 25.6532 32.2992 22.1418 32.2992 18.5049V17Z" fill="#FD1774"/>
</svg>
