<svg width="198" height="132" viewBox="0 0 198 132" fill="none" xmlns="http://www.w3.org/2000/svg">
<g clip-path="url(#clip0_2562_2071)">
<path d="M168.483 71.1072C157.078 70.854 150.932 70.854 150.042 71.1072C148.709 71.4869 144.658 77.7634 143.672 77.7443C142.685 77.7253 138.946 71.4942 137.518 71.1072C136.567 70.8492 130.525 70.8492 119.393 71.1072C118.003 71.1072 116.876 69.9817 116.876 68.5933V46.5138C116.876 45.1255 118.003 44 119.393 44H168.483C169.873 44 171 45.1255 171 46.5138V68.5943C170.999 69.9823 169.873 71.1072 168.483 71.1072ZM141.049 52.0895C142.286 52.0895 143.292 52.9221 143.292 53.9452C143.292 54.8085 142.621 55.8819 141.299 57.1348L135.771 62.3636V64.6703H146.646V61.7039H140.554L143.205 59.1941C145.4 57.183 146.513 55.3771 146.513 53.8316C146.512 52.5407 145.929 51.3188 144.926 50.5048C143.85 49.5814 142.468 49.0904 141.049 49.1272C138.589 49.1037 136.359 50.5698 135.408 52.8361L138.285 54.2157C138.846 52.8447 139.828 52.0895 141.052 52.0895H141.049ZM128.384 52.0895C129.621 52.0895 130.627 52.9221 130.627 53.9452C130.627 54.8075 129.956 55.8809 128.634 57.1348L123.106 62.3636V64.6703H133.981V61.7039H127.889L130.541 59.1941C132.735 57.183 133.848 55.3771 133.848 53.8316C133.848 52.5407 133.265 51.3188 132.261 50.5048C131.185 49.5814 129.803 49.0905 128.385 49.1272C125.925 49.1045 123.696 50.5705 122.746 52.8361L125.622 54.2157C126.183 52.8447 127.165 52.0895 128.387 52.0895H128.384ZM91.7258 88H91.7218C91.3486 87.9817 90.9987 87.8128 90.7519 87.5318C90.5006 87.2137 90.3955 85.9506 90.3693 85.5685C90.3266 84.9518 90.2884 83.8659 90.5166 83.5185C90.8635 83.1525 91.3594 82.9668 91.861 83.0151C91.9329 83.0151 91.9842 83.0151 92.0048 83.0186C94.2924 83.0186 95.5865 81.9151 96.7781 78.9585L98.0475 75.7839C97.3708 74.0849 89.8098 55.0932 89.6614 54.5898C89.629 54.4778 89.6526 54.357 89.7248 54.2656C90.032 53.8538 91.4407 53.6685 92.3427 53.6685C93.1632 53.6685 94.1918 53.8004 94.4307 54.4282C94.7766 55.3373 99.5041 66.7646 100.626 69.475C101.713 66.7424 106.2 55.4798 106.778 54.3995C107.133 53.7344 108.106 53.594 108.861 53.594C109.838 53.594 111.073 53.8457 111.371 54.2484C111.447 54.3461 111.472 54.475 111.436 54.5938C111.272 55.1148 101.579 79.6643 101.166 80.7079V80.7114C100.09 83.3242 98.9339 85.0686 97.5277 86.2023C96.0194 87.4196 94.1758 87.9904 91.7308 87.999L91.7258 88ZM46.5267 58.5737C46.1686 58.5364 46.4595 54.5545 47.0317 54.5485C47.6038 54.5424 49.9606 54.5485 49.9606 54.5485C49.9606 54.5485 49.9576 50.5469 49.9606 50.3688C49.9637 50.1907 54.5561 49.28 54.5561 50.0201C54.5561 50.7602 54.5561 54.5485 54.5561 54.5485C54.5561 54.5485 59.7979 54.5188 60.414 54.5485C61.0301 54.5782 60.6857 58.5737 60.414 58.5737H54.5561V69.6933C54.5264 70.5033 54.8258 71.291 55.3866 71.8782C55.9474 72.4653 56.7221 72.8023 57.5355 72.8129C58.1674 72.8336 58.7999 72.8168 59.4298 72.7626C60.01 72.6775 60.667 72.3505 60.67 72.9991C60.6731 73.6476 60.7534 75.9943 60.67 76.579C60.5867 77.1636 57.2325 77.1903 57.2325 77.1903C55.3074 77.2422 53.439 76.5374 52.0311 75.228C50.6814 73.9229 49.9322 72.1206 49.9606 70.2468V58.5737C49.9606 58.5737 46.8847 58.6109 46.5267 58.5737ZM86.1198 77.5957C85.9028 77.7007 85.6509 77.7533 85.3975 77.7431C84.3345 77.6603 83.2887 77.4278 82.2911 77.0529V74.3525L81.4942 75.048C79.5759 76.7223 77.1056 77.6267 74.5601 77.5866C73.0823 77.6008 71.6296 77.3128 70.2803 76.7406C68.9547 76.152 67.7542 75.2982 66.7575 74.2333C64.6698 71.9652 63.5505 68.9664 63.6416 65.8807V65.8525C63.5507 62.7679 64.6695 59.7701 66.7588 57.4995C67.7527 56.4375 68.9532 55.5838 70.2862 54.992C71.6286 54.4218 73.0819 54.133 74.548 54.1466C77.1056 54.1066 79.5759 55.0109 81.4942 56.6852L82.2911 57.3807V54.7163C83.1365 54.5888 83.9909 54.5166 84.8474 54.5005C85.2539 54.4888 85.6554 54.5309 86.0459 54.6256C86.3343 54.7092 86.4001 54.7905 86.4012 54.8939C86.4091 55.7077 86.43 61.4942 86.4355 65.7097C86.4438 72.1668 86.4248 76.4349 86.3712 77.1896C86.3631 77.3693 86.2674 77.5192 86.1198 77.5957ZM70.2979 70.9363C71.5199 72.2648 73.252 73.0066 75.0565 72.9744C76.8475 73.0187 78.5677 72.2741 79.7612 70.9379C81.0631 69.5764 81.765 67.7497 81.7098 65.8666C81.7649 63.9852 81.0642 62.16 79.7642 60.7989C78.5706 59.4605 76.8492 58.7145 75.0565 58.7588C73.2526 58.7273 71.5214 59.4693 70.2999 60.7974C69.0327 62.1762 68.3523 63.9945 68.4033 65.8666C68.3523 67.7387 69.0327 69.5571 70.2999 70.9358L70.2979 70.9363ZM44.4174 59.7038C44.6283 60.6445 40.2549 60.6943 40.1889 60.4576C40.0717 60.1125 39.906 59.7857 39.6966 59.4872C38.8418 58.4244 37.5713 57.945 35.7591 57.945C33.5945 57.945 31.9836 58.8998 31.9836 60.3571C31.9836 61.3119 32.7387 62.0657 34.1985 62.6184L39.2828 64.3773C42.9576 65.6838 44.8201 67.8447 44.8201 70.8598C44.8201 75.3323 41.1454 77.7444 36.1114 77.7444C30.9265 77.7444 27.6041 75.282 27 71.4126C27 71.4126 31.1449 70.1935 31.3292 70.7593C31.434 71.1914 31.6167 71.601 31.8683 71.9679C32.789 73.099 34.2911 73.7242 36.2121 73.7242C38.6284 73.7242 40.491 72.6689 40.491 71.0106C40.491 69.905 39.5848 69.0507 37.7223 68.3974L32.6884 66.7391C29.2149 65.5331 27.6041 63.6737 27.6041 60.7089C27.6041 56.2364 31.1278 53.9248 36.1114 53.9248C40.1361 53.9248 43.02 55.5947 44.0147 58.2279C44.2002 58.7045 44.3352 59.1992 44.4174 59.7038Z" fill="black"/>
</g>
<defs>
<clipPath id="clip0_2562_2071">
<rect width="144" height="44" fill="white" transform="translate(27 44)"/>
</clipPath>
</defs>
</svg>
