<svg xmlns="http://www.w3.org/2000/svg" width="188" height="209" fill="none"><path fill="#fff" d="M0 0h188v209H0z"/><path fill="#000" d="M20.16 25.56h1.904l3.056 5.472h.032l3.088-5.472h1.888l-4.112 6.864V37h-1.76v-4.576L20.16 25.56Zm12.603 11.68c-2.544 0-4.08-1.76-4.08-4.32 0-2.544 1.536-4.336 4.08-4.336s4.08 1.776 4.08 4.32c0 2.56-1.536 4.336-4.08 4.336Zm0-1.296c1.664 0 2.448-1.328 2.448-3.024 0-1.712-.784-3.024-2.448-3.024-1.68 0-2.448 1.312-2.448 3.024 0 1.696.768 3.024 2.448 3.024Zm6.886-1.888c0 1.104.48 1.84 1.648 1.84 1.344 0 2.208-.816 2.208-2.048V28.84h1.567V37h-1.568v-1.024h-.032c-.431.624-1.28 1.248-2.688 1.248-1.503 0-2.72-.864-2.72-2.736V28.84h1.584v5.216Zm7.183-5.216H48.4v1.552h.032c.416-1.024 1.088-1.744 2.192-1.744.288 0 .512.016.752.048V30.2a3.232 3.232 0 0 0-.528-.048c-1.424 0-2.448 1.072-2.448 2.624V37h-1.568v-8.16Zm17.475.608c-.208-1.12-.912-2.592-3.104-2.592-2.528 0-3.488 2.144-3.488 4.416 0 2.288.96 4.432 3.488 4.432 2.208 0 2.992-1.472 3.104-2.864h1.84c-.256 2.544-2.032 4.384-4.928 4.384-3.248 0-5.328-2.496-5.328-5.936 0-3.456 2.096-5.952 5.344-5.952 2.88 0 4.64 1.824 4.912 4.112h-1.84Zm5.391 7.776c-1.631 0-2.671-.944-2.671-2.336 0-1.824 1.376-2.352 3.407-2.752 1.28-.24 2.065-.4 2.065-1.2 0-.592-.352-1.088-1.552-1.088-1.425 0-1.856.448-1.937 1.536h-1.6c.08-1.568 1.105-2.8 3.6-2.8 1.68 0 3.024.704 3.024 2.816v3.744c0 .592.08.896.384.896.048 0 .096 0 .192-.016v.96a3.52 3.52 0 0 1-.8.096c-.767 0-1.2-.304-1.28-1.232H72.5c-.544.848-1.472 1.376-2.8 1.376Zm.353-1.264c1.407 0 2.448-.72 2.448-2.144v-1.168c-.256.24-.96.416-1.792.592-1.44.304-2.032.688-2.032 1.536 0 .768.4 1.184 1.376 1.184Zm4.878-7.12h1.184v-2.624h1.568v2.624h1.568v1.296H77.68v4.608c0 .864.24 1.056.912 1.056.256 0 .384-.016.672-.064V37c-.416.08-.656.096-1.008.096-1.328 0-2.144-.512-2.144-2.4v-4.56h-1.184V28.84Zm9.052 8.4c-2.592 0-4.032-1.84-4.032-4.336 0-2.56 1.536-4.32 4.032-4.32 2.48 0 3.872 1.632 3.872 4.16 0 .224 0 .464-.016.592h-6.272c.032 1.376.832 2.624 2.448 2.624 1.44 0 1.984-.928 2.144-1.472h1.584c-.416 1.568-1.616 2.752-3.76 2.752Zm-.048-7.376c-1.312 0-2.272.896-2.368 2.24h4.64c0-1.28-.88-2.24-2.272-2.24Zm11.02 6.592v-1.104h-.033c-.448.656-1.2 1.232-2.512 1.232-2.032 0-3.6-1.376-3.6-3.984 0-2.624 1.568-4 3.6-4 1.312 0 2.064.624 2.512 1.2h.032v-.96h1.568v7.52c0 2.464-1.488 3.568-3.824 3.568s-3.504-1.12-3.664-2.592h1.616c.16.736.72 1.312 2.048 1.312 1.488 0 2.256-.656 2.256-2.192Zm-2.257-6.544c-1.536 0-2.256 1.152-2.256 2.688 0 1.536.72 2.688 2.256 2.688 1.408 0 2.24-.912 2.24-2.688 0-1.792-.832-2.688-2.24-2.688Zm9.223 7.328c-2.544 0-4.08-1.76-4.08-4.32 0-2.544 1.536-4.336 4.08-4.336s4.08 1.776 4.08 4.32c0 2.56-1.536 4.336-4.08 4.336Zm0-1.296c1.664 0 2.448-1.328 2.448-3.024 0-1.712-.784-3.024-2.448-3.024-1.68 0-2.448 1.312-2.448 3.024 0 1.696.768 3.024 2.448 3.024Zm5.382-7.104h1.568v1.552h.032c.416-1.024 1.088-1.744 2.192-1.744.288 0 .512.016.752.048V30.2a3.232 3.232 0 0 0-.528-.048c-1.424 0-2.448 1.072-2.448 2.624V37h-1.568v-8.16Zm5.513-3.152h1.776v1.696h-1.776v-1.696Zm.112 3.152h1.568V37h-1.568v-8.16Zm6.899 8.4c-2.592 0-4.032-1.84-4.032-4.336 0-2.56 1.536-4.32 4.032-4.32 2.48 0 3.872 1.632 3.872 4.16 0 .224 0 .464-.016.592h-6.272c.032 1.376.832 2.624 2.448 2.624 1.44 0 1.984-.928 2.144-1.472h1.584c-.416 1.568-1.616 2.752-3.76 2.752Zm-.048-7.376c-1.312 0-2.272.896-2.368 2.24h4.64c0-1.28-.88-2.24-2.272-2.24Zm8.622 2.208c1.488.352 3.12.784 3.12 2.608 0 1.584-1.216 2.544-3.36 2.544-2.48 0-3.712-1.28-3.76-2.944h1.584c.08.944.64 1.68 2.16 1.68 1.376 0 1.744-.608 1.744-1.2 0-1.024-1.088-1.136-2.144-1.36-1.424-.32-3.056-.752-3.056-2.448 0-1.408 1.136-2.352 3.12-2.352 2.224 0 3.296 1.2 3.408 2.608h-1.584c-.112-.624-.432-1.344-1.808-1.344-1.04 0-1.504.416-1.504 1.024 0 .848.912.912 2.08 1.184ZM64.768 78v-8.58h3.576c1.62 0 2.82.756 2.82 2.556s-1.2 2.544-2.82 2.544h-2.256V78h-1.32Zm1.32-4.62h2.196c.996 0 1.5-.444 1.5-1.404 0-.972-.504-1.416-1.5-1.416h-2.196v2.82Zm8.421 4.8c-1.944 0-3.024-1.38-3.024-3.252 0-1.92 1.152-3.24 3.024-3.24 1.86 0 2.904 1.224 2.904 3.12 0 .168 0 .348-.012.444h-4.704c.024 1.032.624 1.968 1.836 1.968 1.08 0 1.488-.696 1.608-1.104h1.188c-.312 1.176-1.212 2.064-2.82 2.064Zm-.036-5.532c-.984 0-1.704.672-1.776 1.68h3.48c0-.96-.66-1.68-1.704-1.68Zm3.92-.768h1.177v1.164h.024c.312-.768.816-1.308 1.644-1.308.216 0 .383.012.564.036V72.9a2.424 2.424 0 0 0-.397-.036c-1.067 0-1.835.804-1.835 1.968V78h-1.176v-6.12Zm6.812 2.424c1.116.264 2.34.588 2.34 1.956 0 1.188-.912 1.908-2.52 1.908-1.86 0-2.784-.96-2.82-2.208h1.188c.06.708.48 1.26 1.62 1.26 1.032 0 1.308-.456 1.308-.9 0-.768-.816-.852-1.608-1.02-1.068-.24-2.292-.564-2.292-1.836 0-1.056.852-1.764 2.34-1.764 1.668 0 2.472.9 2.556 1.956H86.13c-.084-.468-.324-1.008-1.356-1.008-.78 0-1.128.312-1.128.768 0 .636.684.684 1.56.888Zm5.992 3.876c-1.908 0-3.06-1.32-3.06-3.24 0-1.908 1.152-3.252 3.06-3.252 1.908 0 3.06 1.332 3.06 3.24 0 1.92-1.152 3.252-3.06 3.252Zm0-.972c1.248 0 1.836-.996 1.836-2.268 0-1.284-.588-2.268-1.836-2.268-1.26 0-1.836.984-1.836 2.268 0 1.272.576 2.268 1.836 2.268Zm4.036.792v-6.12h1.176v.768h.024c.324-.468.96-.948 2.016-.948 1.128 0 2.04.648 2.04 2.052V78h-1.188v-3.924c0-.816-.36-1.368-1.236-1.368-1.008 0-1.656.612-1.656 1.536V78h-1.176Zm8.174.168c-1.224 0-2.004-.708-2.004-1.752 0-1.368 1.032-1.764 2.556-2.064.96-.18 1.548-.3 1.548-.9 0-.444-.264-.816-1.164-.816-1.068 0-1.392.336-1.452 1.152h-1.2c.06-1.176.828-2.1 2.7-2.1 1.26 0 2.268.528 2.268 2.112v2.808c0 .444.06.672.288.672.036 0 .072 0 .144-.012v.72a2.64 2.64 0 0 1-.6.072c-.576 0-.9-.228-.96-.924h-.024c-.408.636-1.104 1.032-2.1 1.032Zm.264-.948c1.056 0 1.836-.54 1.836-1.608v-.876c-.192.18-.72.312-1.344.444-1.08.228-1.524.516-1.524 1.152 0 .576.3.888 1.032.888Zm4.371-7.8h1.176V78h-1.176v-8.58Zm9.334 4.68c-.048-.636-.408-1.428-1.536-1.428-1.296 0-1.776 1.116-1.776 2.268 0 1.152.48 2.256 1.776 2.256 1.128 0 1.488-.768 1.536-1.464h1.224c-.084 1.404-1.188 2.448-2.748 2.448-1.824 0-3.012-1.32-3.012-3.24 0-1.92 1.188-3.24 3-3.24 1.572 0 2.616 1.02 2.76 2.4h-1.224Zm3.89 4.068c-1.224 0-2.004-.708-2.004-1.752 0-1.368 1.032-1.764 2.556-2.064.96-.18 1.548-.3 1.548-.9 0-.444-.264-.816-1.164-.816-1.068 0-1.392.336-1.452 1.152h-1.2c.06-1.176.828-2.1 2.7-2.1 1.26 0 2.268.528 2.268 2.112v2.808c0 .444.06.672.288.672.036 0 .072 0 .144-.012v.72a2.64 2.64 0 0 1-.6.072c-.576 0-.9-.228-.96-.924h-.024c-.408.636-1.104 1.032-2.1 1.032Zm.264-.948c1.056 0 1.836-.54 1.836-1.608v-.876c-.192.18-.72.312-1.344.444-1.08.228-1.524.516-1.524 1.152 0 .576.3.888 1.032.888Zm4.371-5.34h1.176v1.164h.024c.312-.768.816-1.308 1.644-1.308.216 0 .384.012.564.036V72.9a2.424 2.424 0 0 0-.396-.036c-1.068 0-1.836.804-1.836 1.968V78h-1.176v-6.12Zm6.698 6.3c-1.944 0-3.024-1.38-3.024-3.252 0-1.92 1.152-3.24 3.024-3.24 1.86 0 2.904 1.224 2.904 3.12 0 .168 0 .348-.012.444h-4.704c.024 1.032.624 1.968 1.836 1.968 1.08 0 1.488-.696 1.608-1.104h1.188c-.312 1.176-1.212 2.064-2.82 2.064Zm-.036-5.532c-.984 0-1.704.672-1.776 1.68h3.48c0-.96-.66-1.68-1.704-1.68ZM67.024 114v-7.44h-2.772v-1.14h6.876v1.14h-2.772V114h-1.332Zm3.518-6.12h1.176v1.164h.024c.312-.768.816-1.308 1.644-1.308.216 0 .384.012.564.036v1.128a2.424 2.424 0 0 0-.396-.036c-1.068 0-1.836.804-1.836 1.968V114h-1.176v-6.12Zm5.607 6.288c-1.224 0-2.004-.708-2.004-1.752 0-1.368 1.032-1.764 2.556-2.064.96-.18 1.548-.3 1.548-.9 0-.444-.264-.816-1.164-.816-1.068 0-1.392.336-1.452 1.152h-1.2c.06-1.176.828-2.1 2.7-2.1 1.26 0 2.268.528 2.268 2.112v2.808c0 .444.06.672.288.672.036 0 .072 0 .144-.012v.72a2.64 2.64 0 0 1-.6.072c-.576 0-.9-.228-.96-.924h-.024c-.408.636-1.104 1.032-2.1 1.032Zm.264-.948c1.056 0 1.836-.54 1.836-1.608v-.876c-.192.18-.72.312-1.344.444-1.08.228-1.524.516-1.524 1.152 0 .576.3.888 1.032.888Zm3.42-5.34h1.26l1.597 4.908h.024l1.572-4.908h1.236L83.338 114h-1.32l-2.184-6.12Zm8.88 6.3c-1.945 0-3.025-1.38-3.025-3.252 0-1.92 1.152-3.24 3.024-3.24 1.86 0 2.904 1.224 2.904 3.12 0 .168 0 .348-.012.444H86.9c.024 1.032.624 1.968 1.836 1.968 1.08 0 1.488-.696 1.608-1.104h1.188c-.312 1.176-1.212 2.064-2.82 2.064Zm-.037-5.532c-.984 0-1.704.672-1.776 1.68h3.48c0-.96-.66-1.68-1.704-1.68Zm3.92-3.228h1.177V114h-1.176v-8.58ZM64.768 141.42h1.32V150h-1.32v-8.58Zm2.715 8.58v-6.12h1.176v.768h.024c.324-.468.96-.948 2.016-.948 1.128 0 2.04.648 2.04 2.052V150h-1.188v-3.924c0-.816-.36-1.368-1.236-1.368-1.008 0-1.656.612-1.656 1.536V150h-1.176Zm10.802-5.376h.024v-3.204h1.188V150h-1.188v-.72h-.024c-.324.432-.924.888-1.884.888-1.56 0-2.736-1.212-2.736-3.228s1.176-3.24 2.736-3.24c.96 0 1.56.444 1.884.924Zm-1.692 4.572c1.056 0 1.716-.876 1.716-2.256 0-1.392-.66-2.256-1.716-2.256-1.152 0-1.704 1.056-1.704 2.256 0 1.2.552 2.256 1.704 2.256Zm4.13-7.68h1.333v1.272h-1.332v-1.272Zm.085 2.364h1.176V150h-1.176v-6.12Zm1.85 0h1.26l1.596 4.908h.024l1.572-4.908h1.236L86.162 150h-1.32l-2.184-6.12Zm6.292-2.364h1.332v1.272H88.95v-1.272Zm.084 2.364h1.176V150h-1.176v-6.12Zm6.77.744h.024v-3.204h1.188V150h-1.188v-.72h-.024c-.324.432-.924.888-1.884.888-1.56 0-2.736-1.212-2.736-3.228s1.176-3.24 2.736-3.24c.96 0 1.56.444 1.884.924Zm-1.692 4.572c1.056 0 1.716-.876 1.716-2.256 0-1.392-.66-2.256-1.716-2.256-1.152 0-1.704 1.056-1.704 2.256 0 1.2.552 2.256 1.704 2.256Zm5.343-1.404c0 .828.36 1.38 1.236 1.38 1.008 0 1.656-.612 1.656-1.536v-3.756h1.176V150h-1.176v-.768h-.024c-.324.468-.96.936-2.016.936-1.128 0-2.04-.648-2.04-2.052v-4.236h1.188v3.912Zm7.045 2.376c-1.224 0-2.004-.708-2.004-1.752 0-1.368 1.032-1.764 2.556-2.064.96-.18 1.548-.3 1.548-.9 0-.444-.264-.816-1.164-.816-1.068 0-1.392.336-1.452 1.152h-1.2c.06-1.176.828-2.1 2.7-2.1 1.26 0 2.268.528 2.268 2.112v2.808c0 .444.06.672.288.672.036 0 .072 0 .144-.012v.72a2.64 2.64 0 0 1-.6.072c-.576 0-.9-.228-.96-.924h-.024c-.408.636-1.104 1.032-2.1 1.032Zm.264-.948c1.056 0 1.836-.54 1.836-1.608v-.876c-.192.18-.72.312-1.344.444-1.08.228-1.524.516-1.524 1.152 0 .576.3.888 1.032.888Zm4.372-7.8h1.176V150h-1.176v-8.58Zm9.334 4.68c-.048-.636-.408-1.428-1.536-1.428-1.296 0-1.776 1.116-1.776 2.268 0 1.152.48 2.256 1.776 2.256 1.128 0 1.488-.768 1.536-1.464h1.224c-.084 1.404-1.188 2.448-2.748 2.448-1.824 0-3.012-1.32-3.012-3.24 0-1.92 1.188-3.24 3-3.24 1.572 0 2.616 1.02 2.76 2.4h-1.224Zm4.958 4.08c-1.908 0-3.06-1.32-3.06-3.24 0-1.908 1.152-3.252 3.06-3.252 1.908 0 3.06 1.332 3.06 3.24 0 1.92-1.152 3.252-3.06 3.252Zm0-.972c1.248 0 1.836-.996 1.836-2.268 0-1.284-.588-2.268-1.836-2.268-1.26 0-1.836.984-1.836 2.268 0 1.272.576 2.268 1.836 2.268Zm3.214-5.328h1.26l1.596 4.908h.024l1.572-4.908h1.236l-2.184 6.12h-1.32l-2.184-6.12Zm8.879 6.3c-1.944 0-3.024-1.38-3.024-3.252 0-1.92 1.152-3.24 3.024-3.24 1.86 0 2.904 1.224 2.904 3.12 0 .168 0 .348-.012.444h-4.704c.024 1.032.624 1.968 1.836 1.968 1.08 0 1.488-.696 1.608-1.104h1.188c-.312 1.176-1.212 2.064-2.82 2.064Zm-.036-5.532c-.984 0-1.704.672-1.776 1.68h3.48c0-.96-.66-1.68-1.704-1.68Zm3.92-.768h1.176v1.164h.024c.312-.768.816-1.308 1.644-1.308.216 0 .384.012.564.036v1.128a2.424 2.424 0 0 0-.396-.036c-1.068 0-1.836.804-1.836 1.968V150h-1.176v-6.12Zm5.607 6.288c-1.224 0-2.004-.708-2.004-1.752 0-1.368 1.032-1.764 2.556-2.064.96-.18 1.548-.3 1.548-.9 0-.444-.264-.816-1.164-.816-1.068 0-1.392.336-1.452 1.152h-1.2c.06-1.176.828-2.1 2.7-2.1 1.26 0 2.268.528 2.268 2.112v2.808c0 .444.06.672.288.672.036 0 .072 0 .144-.012v.72a2.64 2.64 0 0 1-.6.072c-.576 0-.9-.228-.96-.924h-.024c-.408.636-1.104 1.032-2.1 1.032Zm.264-.948c1.056 0 1.836-.54 1.836-1.608v-.876c-.192.18-.72.312-1.344.444-1.08.228-1.524.516-1.524 1.152 0 .576.3.888 1.032.888Zm8.633.372v-.828h-.024c-.336.492-.9.924-1.884.924-1.524 0-2.7-1.032-2.7-2.988 0-1.968 1.176-3 2.7-3 .984 0 1.548.468 1.884.9h.024v-.72h1.176v5.64c0 1.848-1.116 2.676-2.868 2.676-1.752 0-2.628-.84-2.748-1.944h1.212c.12.552.54.984 1.536.984 1.116 0 1.692-.492 1.692-1.644Zm-1.692-4.908c-1.152 0-1.692.864-1.692 2.016 0 1.152.54 2.016 1.692 2.016 1.056 0 1.68-.684 1.68-2.016 0-1.344-.624-2.016-1.68-2.016Zm6.882 5.496c-1.944 0-3.024-1.38-3.024-3.252 0-1.92 1.152-3.24 3.024-3.24 1.86 0 2.904 1.224 2.904 3.12 0 .168 0 .348-.012.444h-4.704c.024 1.032.624 1.968 1.836 1.968 1.08 0 1.488-.696 1.608-1.104h1.188c-.312 1.176-1.212 2.064-2.82 2.064Zm-.036-5.532c-.984 0-1.704.672-1.776 1.68h3.48c0-.96-.66-1.68-1.704-1.68ZM64.768 186v-8.58h3.264c2.376 0 3.816 1.536 3.816 4.296 0 2.76-1.416 4.284-3.792 4.284h-3.288Zm1.32-7.44v6.3h1.884c1.992 0 2.508-1.488 2.508-3.144 0-1.656-.516-3.156-2.508-3.156h-1.884Zm9.652 7.62c-1.944 0-3.024-1.38-3.024-3.252 0-1.92 1.152-3.24 3.024-3.24 1.86 0 2.904 1.224 2.904 3.12 0 .168 0 .348-.013.444h-4.704c.024 1.032.624 1.968 1.836 1.968 1.08 0 1.488-.696 1.608-1.104h1.189c-.313 1.176-1.213 2.064-2.82 2.064Zm-.036-5.532c-.984 0-1.704.672-1.776 1.68h3.48c0-.96-.66-1.68-1.704-1.68Zm3.92 5.352v-6.12H80.8v.768h.024c.324-.468.96-.948 2.016-.948 1.128 0 2.04.648 2.04 2.052V186h-1.188v-3.924c0-.816-.36-1.368-1.236-1.368-1.008 0-1.656.612-1.656 1.536V186h-1.176Zm5.92-6.12h.888v-1.968h1.176v1.968h1.176v.972h-1.176v3.456c0 .648.18.792.684.792.192 0 .288-.012.504-.048V186c-.312.06-.492.072-.756.072-.996 0-1.608-.384-1.608-1.8v-3.42h-.888v-.972Zm5.863 6.288c-1.224 0-2.004-.708-2.004-1.752 0-1.368 1.032-1.764 2.556-2.064.96-.18 1.548-.3 1.548-.9 0-.444-.264-.816-1.164-.816-1.068 0-1.392.336-1.452 1.152h-1.2c.06-1.176.828-2.1 2.7-2.1 1.26 0 2.268.528 2.268 2.112v2.808c0 .444.06.672.288.672.036 0 .072 0 .144-.012v.72a2.64 2.64 0 0 1-.6.072c-.576 0-.9-.228-.96-.924h-.024c-.408.636-1.104 1.032-2.1 1.032Zm.264-.948c1.056 0 1.836-.54 1.836-1.608v-.876c-.192.18-.72.312-1.344.444-1.08.228-1.524.516-1.524 1.152 0 .576.3.888 1.032.888Zm4.371-7.8h1.176V186h-1.176v-8.58Zm9.334 4.68c-.048-.636-.408-1.428-1.536-1.428-1.296 0-1.776 1.116-1.776 2.268 0 1.152.48 2.256 1.776 2.256 1.128 0 1.488-.768 1.536-1.464h1.224c-.084 1.404-1.188 2.448-2.748 2.448-1.824 0-3.012-1.32-3.012-3.24 0-1.92 1.188-3.24 3-3.24 1.572 0 2.616 1.02 2.76 2.4h-1.224Zm3.89 4.068c-1.224 0-2.004-.708-2.004-1.752 0-1.368 1.032-1.764 2.556-2.064.96-.18 1.548-.3 1.548-.9 0-.444-.264-.816-1.164-.816-1.068 0-1.392.336-1.452 1.152h-1.2c.06-1.176.828-2.1 2.7-2.1 1.26 0 2.268.528 2.268 2.112v2.808c0 .444.06.672.288.672.036 0 .072 0 .144-.012v.72a2.64 2.64 0 0 1-.6.072c-.576 0-.9-.228-.96-.924h-.024c-.408.636-1.104 1.032-2.1 1.032Zm.264-.948c1.056 0 1.836-.54 1.836-1.608v-.876c-.192.18-.72.312-1.344.444-1.08.228-1.524.516-1.524 1.152 0 .576.3.888 1.032.888Zm4.371-5.34h1.176v1.164h.024c.312-.768.816-1.308 1.644-1.308.216 0 .384.012.564.036v1.128a2.424 2.424 0 0 0-.396-.036c-1.068 0-1.836.804-1.836 1.968V186h-1.176v-6.12Zm6.698 6.3c-1.944 0-3.024-1.38-3.024-3.252 0-1.92 1.152-3.24 3.024-3.24 1.86 0 2.904 1.224 2.904 3.12 0 .168 0 .348-.012.444h-4.704c.024 1.032.624 1.968 1.836 1.968 1.08 0 1.488-.696 1.608-1.104h1.188c-.312 1.176-1.212 2.064-2.82 2.064Zm-.036-5.532c-.984 0-1.704.672-1.776 1.68h3.48c0-.96-.66-1.68-1.704-1.68Z"/><rect width="32" height="32" x="20" y="58" fill="#FD1774" opacity=".2" rx="6.4"/><g clip-path="url(#a)"><path fill="#FD1774" fill-rule="evenodd" d="M36.526 67.252c1.23 1.186 1.873 2.71 1.873 4.348s-.702 3.162-1.873 4.348L36 76.4l-.527-.452c-1.229-1.186-1.873-2.71-1.873-4.348s.644-3.219 1.873-4.348L36 66.8l.527.452ZM29.43 74h-.63v.708c0 1.77.578 3.364 1.68 4.603 1.101 1.24 2.517 1.889 4.039 1.889h.682v-.709c0-1.77-.577-3.364-1.679-4.603C32.42 74.648 31.003 74 29.43 74Zm13.77 0h-.629c-1.521 0-2.99.649-4.092 1.888-1.101 1.24-1.678 2.892-1.678 4.603v.709h.682c1.521 0 2.938-.65 4.04-1.889 1.1-1.24 1.678-2.892 1.678-4.603V74Z" clip-rule="evenodd"/></g><rect width="32" height="32" x="20" y="94" fill="#64D71E" opacity=".2" rx="4.876"/><g clip-path="url(#b)"><path fill="#64D71E" d="m39.991 108.216 1.968-1.735a3.657 3.657 0 0 0 1.238-2.879.823.823 0 0 0-.8-.8 3.673 3.673 0 0 0-2.88 1.238l-1.734 1.968-7.04-2.502a.985.985 0 0 0-1.024.234l-.836.822a.283.283 0 0 0-.04.349.275.275 0 0 0 .088.089l6.257 3.958-2.954 3.346-1.235.103a.994.994 0 0 0-.615.285l-.464.476a.285.285 0 0 0 .115.471l1.773.553.554 1.785a.282.282 0 0 0 .207.181c.047.01.096.008.142-.005a.29.29 0 0 0 .121-.073l.477-.477a.999.999 0 0 0 .285-.614l.102-1.235 3.348-2.953 3.945 6.267a.286.286 0 0 0 .208.13.278.278 0 0 0 .23-.082l.833-.832a.983.983 0 0 0 .233-1.023l-2.502-7.045Z"/></g><rect width="32" height="32" x="20" y="130" fill="#80F" opacity=".2" rx="4.706"/><path fill="#80F" d="M38.834 140.09h-.016a4.443 4.443 0 0 0-2.823 1.021c-.9-.798-1.751-1.229-2.54-1.229a3.945 3.945 0 0 0-2.87 1.229 4.35 4.35 0 0 0-1.074 2.052 4.384 4.384 0 0 0 .127 2.318s0 .032.016.032h2.003l.946-1.499a.493.493 0 0 1 .426-.24.503.503 0 0 1 .395.24l1.34 2.6 1.435-2.393a.472.472 0 0 1 .557-.201c.069.022.131.058.185.105l1.309 1.277a.48.48 0 0 1-.137.78.468.468 0 0 1-.526-.095l-.883-.861-1.577 2.6a.458.458 0 0 1-.394.239h-.016a.501.501 0 0 1-.41-.271l-1.357-2.616-.646 1.037a.519.519 0 0 1-.395.255h-1.813c.142.16.315.399.504.59l5.063 4.929a.431.431 0 0 0 .332.128.472.472 0 0 0 .33-.143l5.08-4.961a4.22 4.22 0 0 0 1.184-2.935 4.219 4.219 0 0 0-1.185-2.935 3.496 3.496 0 0 0-2.57-1.053Z"/><rect width="32" height="32" x="20" y="166" fill="#01B8C7" opacity=".2" rx="4.706"/><path fill="#01B8C7" d="M41.176 178.941c0 .727-.182 1.356-.358 1.963-.17.588-.332 1.144-.332 1.776 0 3.1-1.038 5.438-2.416 5.438-1.184 0-1.288-1.432-1.38-2.695-.087-1.208-.188-2.064-.69-2.064-.503 0-.604.856-.691 2.064-.092 1.263-.196 2.695-1.38 2.695-1.377 0-2.416-2.338-2.416-5.438 0-.632-.16-1.188-.331-1.776-.176-.607-.359-1.236-.359-1.963 0-1.27.857-3.059 2.761-3.059 1.002 0 1.661.325 2.097.54.122.06.273.134.324.14.04-.006.191-.08.313-.14.437-.215 1.096-.54 2.097-.54 1.905 0 2.761 1.789 2.761 3.059Z"/><path fill="url(#c)" d="M0 133h188v64c0 6.627-5.373 12-12 12H12c-6.627 0-12-5.373-12-12v-64Z"/><defs><clipPath id="a"><path fill="#fff" d="M28 66h16v16H28z"/></clipPath><clipPath id="b"><path fill="#fff" d="M28 102h16v16H28z"/></clipPath><linearGradient id="c" x1="94" x2="94" y1="133" y2="209" gradientUnits="userSpaceOnUse"><stop stop-color="#fff" stop-opacity="0"/><stop offset=".84" stop-color="#fff"/></linearGradient></defs></svg>