<svg width="160" height="106" viewBox="0 0 160 106" fill="none" xmlns="http://www.w3.org/2000/svg">
<g clip-path="url(#clip0_426_671)">
<path d="M122 95H38V11C66 11 94 11 122 11V95ZM64.8463 60.6908C66.3521 59.702 67.1957 58.3319 67.4087 56.5962C67.6235 54.8472 67.2911 53.2459 65.97 51.967C65.1403 51.1636 64.1207 50.7058 63.0123 50.4646C60.5165 49.9215 58.0092 50.2003 55.5046 50.4127C55.244 50.4347 55.2517 50.6 55.2518 50.7855C55.253 56.0758 55.2545 61.366 55.2481 66.6562C55.2478 66.9398 55.3344 67.036 55.6231 67.0303C56.4703 67.0138 57.318 67.0245 58.1656 67.0246C58.5158 67.0246 58.866 67.0246 59.2563 67.0246V61.6239C59.7713 61.6239 60.2488 61.658 60.7189 61.6135C61.1158 61.576 61.2921 61.7476 61.4581 62.0739C62.2379 63.6066 63.0484 65.1238 63.8281 66.6566C63.9736 66.9424 64.1421 67.0376 64.4591 67.0325C65.6754 67.013 66.8922 67.0253 68.1088 67.0235C68.2361 67.0233 68.3634 67.0079 68.5543 66.9954C67.3034 64.8686 66.0874 62.801 64.8463 60.6908ZM69.6391 66.9876H80.2111V63.3236H73.643V60.2673H79.495V56.7545H73.6331V53.9707C73.8171 53.9707 73.9773 53.9707 74.1377 53.9707C76.0376 53.9707 77.9374 53.9644 79.8372 53.9767C80.1523 53.9787 80.2651 53.8989 80.2576 53.5652C80.2357 52.5953 80.2508 51.6245 80.2486 50.6541C80.2483 50.5368 80.2312 50.4197 80.2219 50.3018H69.6391V66.9875V66.9876ZM111.32 53.9634H117.903V50.3107H107.342V66.9919H117.891V63.3414H111.322V60.2826H111.826C113.439 60.2826 115.052 60.2827 116.664 60.2825C117.041 60.2824 117.229 60.1004 117.23 59.7365C117.23 58.9302 117.23 58.1239 117.23 57.3176V56.7532H111.32V53.9634ZM46.0447 62.0955C46.2541 62.0955 46.4025 62.1023 46.55 62.0944C47.4346 62.0474 48.3342 62.0844 49.201 61.9335C53.9664 61.1037 54.8431 56.9211 53.8254 54.1C53.0754 52.0208 51.4111 50.9748 49.358 50.454C47.689 50.0306 45.9934 50.1555 44.3024 50.2473C43.5704 50.287 42.8407 50.3679 42.1046 50.4306V66.9986H46.0448L46.0447 62.0955ZM93.9792 65.4004C95.2566 66.2376 96.6019 66.7842 98.0432 67.0803C99.8699 67.4555 101.651 67.3733 103.338 66.469C106.334 64.8635 106.944 60.0535 103.766 58.1039C102.944 57.5999 102.047 57.2182 101.189 56.7738C100.609 56.4739 100.013 56.1964 99.4648 55.8461C99.0105 55.5558 98.8655 55.0673 98.9776 54.5451C99.0824 54.0568 99.4475 53.7949 99.908 53.6597C100.686 53.4312 101.456 53.521 102.201 53.7864C102.824 54.0087 103.426 54.2915 104.072 54.5619C104.568 53.496 105.066 52.4256 105.562 51.3621C103.284 49.8099 99.3231 49.448 96.9757 51.05C94.4113 52.8002 94.1912 56.4935 96.6133 58.4339C97.3669 59.0377 98.2972 59.423 99.1539 59.8951C99.8332 60.2695 100.55 60.5826 101.201 60.9997C101.741 61.3459 101.923 61.909 101.761 62.5479C101.6 63.1859 101.118 63.4404 100.523 63.5043C98.8747 63.6808 97.4039 63.1465 96.0072 62.3379C95.8584 62.2517 95.7124 62.1605 95.5371 62.0548C95.011 63.1846 94.5056 64.2699 93.9792 65.4004ZM93.1508 51.3192C92.8192 51.1488 92.525 50.9772 92.2151 50.8418C90.0118 49.8792 87.7533 49.6323 85.4902 50.5516C82.0313 51.9566 81.4127 56.3342 84.369 58.5876C85.1904 59.2139 86.2138 59.5716 87.131 60.0771C87.7604 60.4239 88.3989 60.7695 88.9727 61.1971C89.4366 61.5429 89.4464 62.1051 89.3069 62.6298C89.1734 63.1322 88.77 63.3827 88.2907 63.4728C87.9453 63.5377 87.5822 63.5628 87.232 63.5378C85.8567 63.4398 84.5956 62.9866 83.4331 62.2503C83.3351 62.1882 83.228 62.1402 83.0973 62.0709C82.5723 63.1994 82.0632 64.2941 81.5523 65.3928C81.6564 65.4658 81.7207 65.5162 81.7899 65.5587C83.3392 66.5086 85.0149 67.1135 86.8258 67.2572C88.5888 67.3971 90.2637 67.0978 91.6803 65.9308C93.7611 64.2167 94.0629 60.8123 92.3038 58.9168C91.5743 58.1307 90.6522 57.628 89.693 57.1822C88.8774 56.8031 88.0466 56.4499 87.2608 56.016C86.6243 55.6647 86.4119 55.1197 86.5494 54.5454C86.676 54.0164 87.1396 53.675 87.8356 53.5756C88.6161 53.4642 89.3607 53.6061 90.0801 53.8918C90.5958 54.0966 91.0969 54.338 91.6336 54.576C92.1368 53.4958 92.6363 52.4236 93.1509 51.3192H93.1508ZM68.9054 47.1807C68.8366 47.0077 68.7939 46.8822 68.7382 46.7627C66.2426 41.4057 63.7455 36.0495 61.2507 30.6922C61.1518 30.4796 61.0851 30.2903 60.7724 30.2836C60.4367 30.2764 60.3671 30.4871 60.2635 30.7096C57.7686 36.066 55.2725 41.4217 52.7778 46.7782C52.7236 46.8944 52.6838 47.0174 52.6199 47.1818C53.9415 47.1818 55.1981 47.189 56.4542 47.1695C56.5674 47.1678 56.7291 47.0167 56.7814 46.897C57.1253 46.1095 57.4602 45.317 57.7655 44.5138C57.8729 44.2313 58.0242 44.1578 58.3091 44.16C59.9222 44.1725 61.5357 44.1738 63.1487 44.1587C63.4282 44.156 63.5624 44.2452 63.6621 44.4991C63.9762 45.299 64.3071 46.0925 64.6465 46.8821C64.6968 46.9994 64.8264 47.1667 64.9215 47.168C66.2306 47.1869 67.5399 47.1807 68.9054 47.1807ZM46.0348 43.5227V30.4655H42.1049V47.1565C42.1875 47.1672 42.24 47.1799 42.2925 47.1799C45.0934 47.1814 47.8944 47.186 50.6952 47.1696C50.8348 47.1688 51.0346 47.0163 51.1022 46.8819C51.4578 46.1757 51.7808 45.453 52.1132 44.7352C52.2887 44.3564 52.4602 43.9757 52.6669 43.5227H46.0348Z" fill="black"/>
<path d="M59.2705 58.3411V53.8071C60.2472 53.6712 61.2091 53.5739 62.1424 53.9531C62.8984 54.2601 63.3624 54.8179 63.4226 55.6515C63.4936 56.6352 63.207 57.4708 62.3057 57.9826C61.3636 58.5175 60.3398 58.4476 59.2705 58.3411Z" fill="black"/>
<path d="M46.0732 58.6616V53.95C46.9438 53.8517 47.7965 53.7587 48.6381 54.017C49.7357 54.3536 50.2808 55.2174 50.2157 56.4833C50.1605 57.5547 49.4752 58.3241 48.349 58.5638C48.1101 58.6147 47.8641 58.6504 47.6204 58.6573C47.1176 58.6715 46.6141 58.6616 46.0732 58.6616Z" fill="black"/>
<path d="M60.7274 36.8398C61.325 38.3704 61.8797 39.7916 62.4458 41.2417H58.9863C59.5618 39.7868 60.1234 38.367 60.7274 36.8398H60.7274Z" fill="black"/>
</g>
<defs>
<clipPath id="clip0_426_671">
<rect width="84" height="84" fill="white" transform="translate(38 11)"/>
</clipPath>
</defs>
</svg>
