<svg width="144" height="96" viewBox="0 0 144 96" fill="none" xmlns="http://www.w3.org/2000/svg">
<path d="M42.1048 39.7313L42.9837 38.7489V34L29.4906 38.9739L16 34V38.7868L16.8713 39.7502L16 39.8855V46.876L29.4906 61L42.9812 46.8786L43 39.8804L42.1048 39.7313ZM17.3811 41.2687L28.2313 53.1535L17.4074 38.3607V35.8687L29.4868 40.7326V58.9391L17.4338 46.2401L17.3811 41.2687ZM30.6243 50.2632L40.9045 40.9602L41.8211 41.1144L30.6243 50.2632Z" fill="#95989D"/>
<path d="M126.238 41.0314C126.634 41.2185 127.031 41.4056 127.427 41.5925C127.882 42.1679 128.014 42.8128 128.008 43.5299C127.982 46.5033 127.999 49.477 127.991 52.4507C127.99 52.8335 127.931 53.2163 127.898 53.5989C127.575 53.9602 127.252 54.3215 126.929 54.6827C126.754 54.7556 126.579 54.8284 126.404 54.9013C126.122 54.9299 125.84 54.9587 125.557 54.9873C125.455 54.9914 125.353 54.9954 125.251 54.9995C125.111 54.9985 124.972 54.9975 124.832 54.9967C124.682 54.9974 124.531 54.9979 124.381 54.9985C124.242 54.998 124.102 54.9977 123.963 54.9972C122.064 54.9975 120.165 54.9979 118.266 54.9982C118.21 54.9717 118.154 54.9722 118.098 54.9998H117.06C116.93 54.999 116.799 54.9983 116.669 54.9975C116.221 54.9983 115.772 54.9992 115.324 55L114.793 54.9965C114.16 54.8407 113.527 54.685 112.894 54.5291C112.716 54.3428 112.538 54.1566 112.36 53.9703C112.249 53.2961 112.051 52.6233 112.041 51.9478C112.002 49.3592 111.993 46.7694 112.039 44.181C112.053 43.3713 112.277 42.5649 112.404 41.757C113.113 41.1651 113.959 41.0033 114.874 41.0046C118.559 41.0099 122.243 41.0026 125.928 41C126.031 41.0106 126.135 41.0212 126.238 41.0317L126.238 41.0314ZM116.097 51.0768H123.952V44.8975H116.097V51.0768Z" fill="#95989D"/>
<path d="M92.0029 44.0027C92.004 44.1766 92.005 44.3505 92.0061 44.5244C92.0048 44.6773 92.0038 44.8303 92.0026 44.9832C92.0038 45.1022 92.0052 45.2213 92.0064 45.3402C91.9864 47.2067 91.9796 49.0733 91.9407 50.9394C91.9221 51.8303 91.843 52.7201 91.7913 53.6104L91.823 53.5997C91.7557 53.7192 91.6885 53.8387 91.6212 53.9583C90.9437 54.8199 89.978 54.9759 88.912 54.9732C83.6684 54.9602 78.4248 54.9662 73.1814 54.9682C72.8035 54.9682 72.4256 54.9889 72.0478 55C71.8771 54.9985 71.7067 54.9969 71.5361 54.9954C70.5829 54.9178 69.7756 54.5988 69.2583 53.8007C69.2186 53.6856 69.1788 53.5706 69.1392 53.4554C69.1068 53.3017 69.0744 53.1479 69.042 52.9942C69.0428 52.4741 69.046 51.9539 69.0439 51.4338C69.0339 48.9705 69.0225 46.5072 69.0117 44.0441L69.0078 43.6576C69.0078 43.5122 69.0082 43.367 69.0083 43.2217C69.0094 42.8342 69.0104 42.4467 69.0113 42.0594L69.0148 41.5632C69.0234 41.4568 69.0318 41.3505 69.0404 41.2441C69.1234 41.2066 69.2065 41.1692 69.2897 41.1317C69.7977 41.1307 70.3059 41.1299 70.814 41.1289C70.9378 41.1322 71.0618 41.1354 71.1857 41.1387L71.5462 41.1322C72.0303 41.1682 72.5143 41.2041 73.1462 41.2511V43.2567C73.1481 44.0714 73.1498 44.886 73.1518 45.7008V51.1269H78.3707L78.4341 51.1117L78.4208 51.0551C78.4262 48.9346 78.4315 46.8141 78.4369 44.6935C78.4395 44.5806 78.442 44.4677 78.4444 44.3546C78.4414 43.7485 78.4385 43.1425 78.4355 42.5364C78.4393 42.3814 78.4434 42.2266 78.4472 42.0716C78.4448 41.9081 78.4421 41.7445 78.4397 41.581C78.4548 41.4689 78.4698 41.357 78.4849 41.2449L79.4302 41.1338L79.9172 41.1261C80.6883 41.1284 81.4595 41.1308 82.2307 41.1331C82.3349 41.168 82.4391 41.2031 82.5434 41.238C82.5523 41.6781 82.5612 42.1181 82.5703 42.5581C82.5451 42.6051 82.5456 42.6519 82.5719 42.6986C82.5719 42.8694 82.5719 43.0402 82.5719 43.2111C82.574 44.0304 82.5763 44.8498 82.5784 45.6693C82.5773 45.7664 82.5761 45.8633 82.5751 45.9603C82.5761 46.1344 82.577 46.3085 82.578 46.4826C82.578 48.0218 82.578 49.561 82.578 51.1413H87.8115C87.8115 48.6874 87.8115 46.279 87.8115 43.8704C87.8095 43.6943 87.8076 43.5183 87.8059 43.3421C87.8073 43.1926 87.8087 43.0433 87.8101 42.8939C87.8104 42.6084 87.8106 42.3228 87.8109 42.0372C87.8376 41.999 87.8369 41.9611 87.8088 41.9238C87.8218 41.6996 87.8349 41.4753 87.8479 41.2511C87.8658 41.1674 87.8838 41.0837 87.9017 41L87.9246 41.0204C88.2251 41.0767 88.5252 41.1782 88.8261 41.1808C89.719 41.1883 90.6123 41.1566 91.5056 41.1403C91.8726 41.1764 91.9537 41.3868 91.953 41.6996C91.9516 42.3152 91.9875 42.9308 92.0078 43.5465C92.0062 43.6984 92.0048 43.8504 92.0033 44.0023L92.0029 44.0027Z" fill="#95989D"/>
<path d="M65.3186 41.003C65.8241 41.0074 66.3294 41.012 66.8348 41.0165L66.8562 41.0533L66.8987 41.0429C66.935 41.095 66.9713 41.1469 67.0078 41.199C66.9608 41.2925 66.9138 41.3859 66.8669 41.4793C66.6837 42.0301 66.5006 42.5808 66.3175 43.1316C66.0838 43.7145 65.8501 44.2972 65.586 44.9561H55.1666V46.1259H56.1717C58.8064 46.1259 61.441 46.1211 64.0758 46.131C64.4732 46.1325 64.8796 46.1643 65.2658 46.2489C66.2268 46.4593 66.8679 47.0973 66.888 48.0303C66.9274 49.8574 66.8758 51.6865 66.8617 53.5146C66.3977 54.599 65.5045 55.0013 64.3367 55C60.096 54.9955 55.8555 54.9998 51.6148 54.9992C51.4749 54.9992 51.335 54.9817 51.1467 54.9692C51.1007 54.8044 51.0581 54.6522 51.0156 54.4999C51.0464 54.4476 51.0469 54.395 51.0173 54.3422V51.1618H53.2609L53.4743 51.0803C53.5701 51.1073 53.666 51.1344 53.7619 51.1614C56.7491 51.1619 59.7365 51.1624 62.7238 51.1629C62.7812 51.1225 62.8387 51.0821 62.8964 51.0417V49.961H58.9252C58.8724 49.9308 58.8197 49.931 58.7672 49.9617C57.3935 49.9622 56.0197 49.9626 54.646 49.9631C54.5198 49.9628 54.3935 49.9626 54.2673 49.9623C54.1649 49.9635 54.0623 49.9646 53.9599 49.9658C51.6104 49.7415 51.0729 49.1693 51.0579 46.8907C51.0546 46.3983 51.0295 45.9059 51.0145 45.4136C51.0421 45.371 51.0417 45.3288 51.0133 45.2867C51.0114 44.8879 51.0097 44.489 51.0078 44.0901C51.0095 43.9384 51.0113 43.7869 51.013 43.6352C51.4398 41.4848 51.6926 41.2688 54.0942 41.0003C54.2188 41.0008 54.3434 41.0013 54.4682 41.0016C56.4135 41.0173 58.3586 41.0439 60.3039 41.045C61.8482 41.046 63.3927 41.0162 64.937 41C65.0642 41.001 65.1912 41.0018 65.3184 41.0028L65.3186 41.003Z" fill="#95989D"/>
<path d="M94.0505 43.3869C94.0629 43.2091 94.0755 43.0314 94.0879 42.8536C94.1308 42.6991 94.1737 42.5446 94.2165 42.39C94.6576 41.4135 95.4693 41.0033 96.5362 41.0023C100.197 40.9992 103.858 40.9993 107.52 41.0023C108.592 41.0031 109.386 41.4438 109.841 42.4009L109.934 42.714C109.959 42.9933 109.983 43.2725 110.008 43.5516C109.992 46.7546 109.976 49.9578 109.959 53.1608C109.814 53.4906 109.668 53.8204 109.522 54.1504C109.377 54.2954 109.231 54.4402 109.086 54.5853C108.449 54.7208 107.814 54.9663 107.177 54.9736C103.735 55.013 100.293 54.9825 96.8517 54.9999C95.5444 55.0066 94.5572 54.5937 94.1206 53.32C94.1041 53.1541 94.0877 52.9881 94.0712 52.8222C94.0588 52.7105 94.0466 52.5989 94.0342 52.4872C94.0321 52.3245 94.03 52.1615 94.028 51.9988C94.0273 51.8843 94.0266 51.7696 94.0257 51.6551C94.0257 49.4543 94.0257 47.2536 94.0257 45.053C94.0225 44.8676 94.0192 44.6823 94.0159 44.4968C94.0164 44.3568 94.0169 44.2167 94.0175 44.0767C94.0142 43.9378 94.0109 43.7991 94.0078 43.6602C94.0221 43.5692 94.0366 43.478 94.0509 43.3871L94.0505 43.3869ZM105.929 51.1105V44.9093H98.1266V51.1105H105.929Z" fill="#95989D"/>
</svg>
