<svg width="198" height="132" viewBox="0 0 198 132" fill="none" xmlns="http://www.w3.org/2000/svg">
<g clip-path="url(#clip0_2560_1784)">
<path d="M58.9023 73.2135L63.2382 52.4668H69.9621L68.4991 59.468H74.8566L76.3343 52.4668H83.0612L78.7136 73.2135H71.9867L73.6654 65.1724H67.311L65.6263 73.2135H58.9023ZM91.6176 73.2135L91.6708 71.5998C89.6581 73.1836 87.8522 73.6467 85.6297 73.6467C82.807 73.6467 80.6051 72.2334 81.2494 69.0928C82.6829 62.2201 92.6639 65.3457 93.252 62.5189C93.4796 61.4253 92.1999 61.2818 91.5733 61.2818C90.7457 61.2818 89.5989 61.4521 89.1851 62.749H83.4868C84.1548 59.5517 86.7971 57.6691 92.6964 57.6691C99.7661 57.6691 99.639 60.3197 98.8853 63.9234L97.4075 70.9814C97.2273 71.8479 97.1682 72.2782 97.8037 72.9147L97.7445 73.2135H91.6176ZM92.4156 66.529C90.2787 67.4793 87.8108 67.0191 87.3911 68.9763C87.2374 69.7263 87.8404 70.2462 89.0108 70.2462C91.0974 70.2462 92.126 68.6028 92.4156 66.529ZM102.636 58.1144H108.021L107.383 61.1683H107.439C108.76 58.8047 110.45 57.6811 112.759 57.6811C113.01 57.702 113.258 57.7349 113.507 57.7797L112.256 63.756C111.866 63.6693 111.474 63.6126 111.074 63.5827C108.654 63.5827 107.185 64.7361 106.505 67.9902L105.408 73.2135H99.4824L102.636 58.1144ZM115.026 58.1144H120.44L119.95 60.4691C121.667 58.6522 123.325 57.6722 125.565 57.6722C129.499 57.6722 130.865 60.0059 129.999 64.1564L128.107 73.2045H122.19L123.851 65.2321C124.161 63.7381 124.04 62.4084 122.374 62.4084C120.549 62.4084 119.817 63.5887 119.418 65.519L117.81 73.2135H111.872L115.026 58.1144ZM141.496 57.5556C146.768 57.5556 149.364 60.6962 148.38 65.3935C147.224 70.9276 142.98 73.5212 138.188 73.5212C133.398 73.5212 130.25 70.8678 131.329 65.7102C132.422 60.4691 136.451 57.5556 141.496 57.5556ZM137.322 65.3935C136.732 68.2471 137.523 69.4843 139.034 69.4843C140.63 69.4843 141.856 68.2471 142.453 65.3935C142.917 63.1733 142.297 61.5089 140.739 61.5896C138.715 61.5896 137.677 63.6932 137.322 65.3935ZM148.19 73.2135L151.338 58.1144H157.267L154.119 73.2135H148.19ZM162.33 68.2801C162.185 68.7701 162.315 69.299 162.67 69.6636C163.051 69.9803 163.533 70.1446 164.026 70.1237C164.936 70.1237 165.968 69.8249 166.19 68.7701C166.695 66.3497 157.143 68.2801 158.364 62.4292C159.17 58.5686 163.367 57.4451 166.473 57.4451C169.725 57.4451 173.387 58.195 172.893 62.1992H167.505C167.57 61.8018 167.443 61.3954 167.165 61.1055C166.855 60.8366 166.453 60.7021 166.045 60.729C165.019 60.729 164.295 61.0488 164.138 61.7958C163.701 63.8875 173.428 62.489 172.251 68.1366C171.595 71.2771 168.584 73.4107 163.113 73.4107C159.69 73.4107 156.152 72.3439 156.688 68.2801H162.33Z" fill="black"/>
<path d="M33.1704 47.3328L26.3814 81.5261L26.3164 81.8517L39.7791 70.6372L39.8115 70.6104L44.4075 47.3208L33.1704 47.3328ZM40.9642 70.6014L49.8132 81.8458L56.8741 47.3208H45.5454L40.9642 70.6014Z" fill="black"/>
<path d="M128.858 76.9032H134.411L134.137 78.2121H130.182L129.854 79.73H133.513L133.25 80.9253H129.591L129.213 82.6614H133.229L132.934 83.9702H127.318L128.858 76.9032ZM132.109 76.2698H131.092L131.979 74.8594H133.528L132.109 76.2698ZM135.041 78.8575H136.427L136.262 79.5717H136.282C136.732 79.0129 137.414 78.6962 138.127 78.717C139.126 78.717 139.667 79.2041 139.667 80.0946C139.64 80.3964 139.587 80.6982 139.513 80.9911L138.862 83.9792H137.414L138.056 80.9911C138.106 80.7849 138.136 80.5757 138.147 80.3665C138.147 80.0677 137.792 79.8407 137.456 79.8407C136.569 79.8407 136.132 80.5547 135.978 81.2689L135.387 83.9941H133.939L135.041 78.8575ZM141.682 81.762C141.677 81.8606 141.677 81.9622 141.682 82.0608C141.682 82.6584 142.061 83.0619 142.844 83.0619C143.305 83.0469 143.719 82.778 143.925 82.3596H145.371C144.913 83.5101 144.159 84.1256 142.64 84.1256C141.236 84.1256 140.296 83.3397 140.296 81.8845C140.296 80.247 141.408 78.7201 143.201 78.7201C144.679 78.7201 145.657 79.4731 145.657 80.9612C145.657 81.2301 145.631 81.502 145.575 81.765L141.682 81.762ZM144.251 80.8656C144.251 80.3396 144.118 79.7749 143.272 79.7749C142.428 79.7749 142.048 80.2918 141.833 80.8656H144.251ZM146.905 78.8575H148.279L148.066 79.7779L148.087 79.7988C148.427 79.1085 149.136 78.6842 149.899 78.717C150.049 78.717 150.2 78.7261 150.348 78.7469L150.053 80.1156C149.852 80.0677 149.648 80.0379 149.441 80.0259C148.332 80.0259 147.933 80.8387 147.742 81.7112L147.251 83.9822H145.802L146.905 78.8575ZM154.752 83.7133C154.395 85.2701 153.59 85.9245 151.849 85.9245C150.779 85.9245 149.597 85.4793 149.597 84.2511H151.042C151.022 84.7651 151.521 84.9832 151.991 84.9832C152.907 84.9832 153.174 84.2003 153.469 83.1903L153.448 83.1694C153.115 83.6356 152.573 83.9074 152.003 83.8955C150.75 83.8955 149.976 83.0619 149.976 81.8039C149.976 80.3097 150.942 78.7111 152.636 78.7111C153.357 78.7111 153.948 78.9591 154.244 79.6344H154.264L154.427 78.8516H155.813L154.752 83.7133ZM151.409 81.7112C151.409 82.3088 151.704 82.8437 152.387 82.8437C153.428 82.8437 153.927 81.762 153.927 80.8895C153.927 80.244 153.59 79.7779 152.887 79.7779C151.929 79.7779 151.409 80.8895 151.409 81.7112ZM156.91 78.8575H158.366L157.249 83.9822H155.792L156.91 78.8575ZM158.532 78.0627H157.075L157.338 76.9032H158.795L158.532 78.0627ZM159.945 81.762V82.0608C159.945 82.6584 160.32 83.0619 161.107 83.0619C161.568 83.0469 161.981 82.778 162.185 82.3596H163.633C163.176 83.5101 162.421 84.1256 160.902 84.1256C159.495 84.1256 158.559 83.3397 158.559 81.8845C158.559 80.247 159.67 78.7201 161.464 78.7201C162.941 78.7201 163.92 79.4731 163.92 80.9612C163.92 81.2301 163.891 81.4991 163.837 81.765L159.945 81.762ZM162.513 80.8656C162.513 80.3396 162.38 79.7749 161.535 79.7749C160.867 79.7689 160.279 80.2171 160.099 80.8656H162.513ZM167.78 80.3546C167.78 79.9183 167.514 79.6583 166.964 79.6583C166.415 79.6583 166.078 79.7988 166.078 80.1663C166.078 80.3934 166.252 80.5308 166.74 80.6803L167.464 80.9074C168.238 81.1554 168.85 81.505 168.85 82.3745C168.85 83.6445 167.555 84.1226 166.344 84.1226C165.315 84.1226 164.101 83.7252 164.101 82.524V82.3178H165.448V82.4851C165.448 82.9513 165.986 83.1784 166.485 83.1784C166.923 83.1784 167.402 83.032 167.402 82.5807C167.402 82.2222 167.197 82.1146 166.885 82.013L165.773 81.6664C165.049 81.4393 164.632 81.1614 164.632 80.3575C164.632 79.1474 165.944 78.732 166.964 78.732C168.117 78.732 169.146 79.0488 169.125 80.3695L167.78 80.3546Z" fill="black"/>
</g>
<defs>
<clipPath id="clip0_2560_1784">
<rect width="146.62" height="38.6038" fill="white" transform="translate(26.3164 47.3208)"/>
</clipPath>
</defs>
</svg>
