<svg width="144" height="96" viewBox="0 0 144 96" fill="none" xmlns="http://www.w3.org/2000/svg">
<g clip-path="url(#clip0_2560_1043)">
<path d="M42.8379 53.246L45.9912 38.1575H50.8814L49.8173 43.2492H54.441L55.5157 38.1575H60.408L57.246 53.246H52.3538L53.5747 47.3979H48.9533L47.728 53.246H42.8379ZM66.6308 53.246L66.6695 52.0724C65.2057 53.2242 63.8923 53.5611 62.2759 53.5611C60.2231 53.5611 58.6217 52.5332 59.0903 50.2491C60.1328 45.2508 67.3917 47.5239 67.8195 45.4681C67.985 44.6727 67.0543 44.5684 66.5986 44.5684C65.9967 44.5684 65.1627 44.6923 64.8617 45.6354H60.7175C61.2033 43.3101 63.125 41.941 67.4154 41.941C72.557 41.941 72.4645 43.8686 71.9164 46.4895L70.8417 51.6226C70.7106 52.2528 70.6676 52.5658 71.1298 53.0287L71.0867 53.246H66.6308ZM67.2111 48.3846C65.6571 49.0756 63.8622 48.7409 63.557 50.1644C63.4452 50.7099 63.8837 51.088 64.735 51.088C66.2525 51.088 67.0005 49.8927 67.2111 48.3846ZM74.6442 42.2648H78.5606L78.0963 44.4858H78.137C79.0979 42.7668 80.3274 41.9497 82.0064 41.9497C82.189 41.9649 82.3693 41.9888 82.5502 42.0214L81.6406 46.3678C81.3572 46.3048 81.0715 46.2635 80.781 46.2417C79.0207 46.2417 77.9522 47.0806 77.4578 49.4472L76.6604 53.246H72.3507L74.6442 42.2648ZM83.6548 42.2648H87.5926L87.2361 43.9773C88.4851 42.656 89.6905 41.9432 91.32 41.9432C94.1808 41.9432 95.1741 43.6405 94.5443 46.659L93.1687 53.2395H88.8651L90.0734 47.4413C90.299 46.3548 90.2107 45.3877 88.9988 45.3877C87.6721 45.3877 87.1395 46.2461 86.8491 47.65L85.6796 53.246H81.3613L83.6548 42.2648ZM102.906 41.8584C106.741 41.8584 108.628 44.1425 107.912 47.5587C107.072 51.5835 103.985 53.4698 100.5 53.4698C97.0163 53.4698 94.7269 51.54 95.5117 47.7891C96.307 43.9773 99.2367 41.8584 102.906 41.8584ZM99.8706 47.5587C99.4412 49.6341 100.017 50.5338 101.115 50.5338C102.276 50.5338 103.168 49.6341 103.602 47.5587C103.94 45.944 103.489 44.7335 102.356 44.7922C100.883 44.7922 100.129 46.3221 99.8706 47.5587ZM107.774 53.246L110.064 42.2648H114.376L112.086 53.246H107.774ZM118.058 49.658C117.952 50.0144 118.047 50.3991 118.305 50.6642C118.582 50.8946 118.933 51.0141 119.291 50.9989C119.954 50.9989 120.704 50.7815 120.865 50.0144C121.233 48.2541 114.286 49.658 115.173 45.4029C115.76 42.5951 118.812 41.778 121.071 41.778C123.436 41.778 126.099 42.3235 125.74 45.2356H121.822C121.869 44.9466 121.776 44.651 121.574 44.4402C121.349 44.2446 121.056 44.1468 120.759 44.1664C120.014 44.1664 119.487 44.3989 119.373 44.9422C119.055 46.4634 126.129 45.4464 125.273 49.5537C124.796 51.8377 122.606 53.3894 118.627 53.3894C116.138 53.3894 113.565 52.6136 113.954 49.658H118.058Z" fill="#95989D"/>
<path d="M24.1244 34.4237L19.1869 59.2916L19.1396 59.5284L28.9307 51.3724L28.9543 51.3529L32.2968 34.415L24.1244 34.4237ZM29.7926 51.3464L36.2282 59.5241L41.3634 34.415H33.1243L29.7926 51.3464Z" fill="#95989D"/>
<path d="M93.7156 55.9295H97.7541L97.5544 56.8814H94.6783L94.4397 57.9853H97.1008L96.9099 58.8547H94.2488L93.9737 60.1173H96.8946L96.6796 61.0691H92.5957L93.7156 55.9295ZM96.0798 55.4688H95.3405L95.9856 54.4431H97.112L96.0798 55.4688ZM98.2125 57.3508H99.2205L99.1003 57.8702H99.115C99.442 57.4638 99.9381 57.2335 100.456 57.2486C101.183 57.2486 101.576 57.6029 101.576 58.2505C101.557 58.47 101.518 58.6895 101.465 58.9025L100.991 61.0757H99.9381L100.405 58.9025C100.441 58.7525 100.463 58.6004 100.471 58.4482C100.471 58.2309 100.213 58.0658 99.9687 58.0658C99.3236 58.0658 99.0055 58.5851 98.8935 59.1045L98.4641 61.0865H97.4107L98.2125 57.3508ZM103.042 59.4631C103.038 59.5349 103.038 59.6088 103.042 59.6804C103.042 60.1151 103.317 60.4085 103.887 60.4085C104.222 60.3976 104.523 60.2021 104.673 59.8978H105.725C105.392 60.7345 104.844 61.1821 103.739 61.1821C102.718 61.1821 102.034 60.6106 102.034 59.5523C102.034 58.3613 102.842 57.2508 104.147 57.2508C105.222 57.2508 105.933 57.7985 105.933 58.8807C105.933 59.0763 105.914 59.2741 105.873 59.4653L103.042 59.4631ZM104.91 58.8112C104.91 58.4287 104.814 58.018 104.199 58.018C103.584 58.018 103.308 58.3939 103.152 58.8112H104.91ZM106.84 57.3508H107.84L107.685 58.0202L107.7 58.0353C107.947 57.5333 108.463 57.2247 109.018 57.2486C109.127 57.2486 109.237 57.2552 109.345 57.2704L109.13 58.2657C108.984 58.2309 108.835 58.2092 108.685 58.2005C107.878 58.2005 107.589 58.7916 107.449 59.4262L107.092 61.0778H106.039L106.84 57.3508ZM112.547 60.8823C112.287 62.0145 111.702 62.4904 110.436 62.4904C109.658 62.4904 108.799 62.1666 108.799 61.2734H109.85C109.835 61.6472 110.198 61.8058 110.539 61.8058C111.206 61.8058 111.4 61.2365 111.615 60.5019L111.599 60.4867C111.357 60.8257 110.963 61.0235 110.548 61.0148C109.637 61.0148 109.074 60.4085 109.074 59.4936C109.074 58.407 109.777 57.2443 111.008 57.2443C111.533 57.2443 111.963 57.4247 112.178 57.9158H112.193L112.311 57.3465H113.319L112.547 60.8823ZM110.116 59.4262C110.116 59.8608 110.331 60.2498 110.828 60.2498C111.585 60.2498 111.948 59.4631 111.948 58.8286C111.948 58.3592 111.702 58.0202 111.191 58.0202C110.495 58.0202 110.116 58.8286 110.116 59.4262ZM114.117 57.3508H115.176L114.364 61.0778H113.304L114.117 57.3508ZM115.297 56.7727H114.237L114.428 55.9295H115.488L115.297 56.7727ZM116.324 59.4631V59.6804C116.324 60.1151 116.597 60.4085 117.169 60.4085C117.504 60.3976 117.805 60.2021 117.953 59.8978H119.006C118.674 60.7345 118.125 61.1821 117.021 61.1821C115.997 61.1821 115.316 60.6106 115.316 59.5523C115.316 58.3613 116.124 57.2508 117.429 57.2508C118.503 57.2508 119.215 57.7985 119.215 58.8807C119.215 59.0763 119.194 59.2719 119.155 59.4653L116.324 59.4631ZM118.192 58.8112C118.192 58.4287 118.095 58.018 117.481 58.018C116.995 58.0136 116.567 58.3396 116.436 58.8112H118.192ZM122.022 58.4396C122.022 58.1223 121.829 57.9332 121.429 57.9332C121.03 57.9332 120.784 58.0353 120.784 58.3027C120.784 58.4678 120.911 58.5678 121.266 58.6764L121.792 58.8416C122.356 59.022 122.8 59.2762 122.8 59.9086C122.8 60.8323 121.859 61.18 120.978 61.18C120.23 61.18 119.346 60.8909 119.346 60.0173V59.8674H120.326V59.989C120.326 60.3281 120.718 60.4933 121.081 60.4933C121.399 60.4933 121.747 60.3868 121.747 60.0586C121.747 59.7978 121.599 59.7196 121.371 59.6457L120.563 59.3936C120.036 59.2284 119.733 59.0263 119.733 58.4417C119.733 57.5616 120.687 57.2595 121.429 57.2595C122.267 57.2595 123.016 57.4899 123 58.4504L122.022 58.4396Z" fill="#95989D"/>
</g>
<defs>
<clipPath id="clip0_2560_1043">
<rect width="106.633" height="28.0755" fill="white" transform="translate(19.1396 34.415)"/>
</clipPath>
</defs>
</svg>
