<svg width="144" height="96" viewBox="0 0 144 96" fill="none" xmlns="http://www.w3.org/2000/svg">
<g clip-path="url(#clip0_2560_1148)">
<path d="M19.3651 41.18V56.816H17.3164V41.18H19.3651Z" fill="#95989D"/>
<path d="M28.2576 52.1428C28.2836 52.4676 28.3523 52.7876 28.4621 53.0949C28.6182 53.5664 28.879 53.9978 29.2256 54.3579C29.5722 54.7179 29.9959 54.9975 30.466 55.1765C31.0583 55.3825 31.6839 55.4802 32.3119 55.4646C33.1888 55.4637 34.0583 55.3063 34.8781 55.0002L34.8557 56.6173C33.936 56.9261 32.9689 57.0758 31.9972 57.0597C30.9663 57.0833 29.9431 56.879 29.0031 56.4619C27.8544 55.9087 26.144 54.469 26.1664 51.3902C26.158 50.5667 26.3028 49.7486 26.5937 48.9764C26.9183 48.0872 27.5144 47.3184 28.3003 46.7752C29.0862 46.2321 30.0236 45.9411 30.984 45.9422C33.7306 45.9422 35.4864 47.9577 35.4864 50.593C35.4871 51.1177 35.4112 51.6398 35.2612 52.1434L28.2576 52.1428ZM33.5031 50.7919C33.5538 50.1229 33.4306 49.4523 33.1453 48.8431C32.9799 48.5215 32.7437 48.2403 32.4538 48.0199C32.1639 47.7994 31.8277 47.6454 31.4697 47.569C31.1117 47.4926 30.7408 47.4957 30.3842 47.578C30.0275 47.6604 29.694 47.8201 29.408 48.0453C28.6646 48.7729 28.2439 49.7602 28.2375 50.7919H33.5031Z" fill="#95989D"/>
<path d="M43.9916 46.1852V52.209C43.9916 53.1836 44.014 54.247 44.9369 54.8646C45.4068 55.1586 45.9565 55.3052 46.513 55.285C47.066 55.3156 47.6131 55.1595 48.0637 54.8425C48.9637 54.112 48.8965 52.8045 48.8965 51.8083V46.1824H50.9453V51.8089C50.9974 52.6338 50.9285 53.4618 50.7408 54.2673C50.6217 54.7308 50.4061 55.165 50.1078 55.5423C49.8094 55.9197 49.4347 56.232 49.0074 56.4596C48.2295 56.8803 47.3507 57.0869 46.4636 57.0575C45.9713 57.0655 45.4799 57.0133 45.0007 56.9021C44.4012 56.7713 43.8417 56.5025 43.3682 56.1179C42.8947 55.7333 42.5206 55.2438 42.2765 54.6894C42.0041 53.8379 41.8897 52.945 41.9388 52.0536V46.1858L43.9916 46.1852Z" fill="#95989D"/>
<path d="M65.6253 48.3339H65.6029C65.4831 48.2412 65.3549 48.1597 65.2198 48.0904C64.671 47.8068 64.0591 47.6621 63.4393 47.6694C62.9102 47.6653 62.387 47.7787 61.9086 48.0011C61.2565 48.3052 60.7125 48.7952 60.3471 49.4074C59.9818 50.0196 59.812 50.7258 59.8599 51.4342C59.8454 51.9707 59.9373 52.5048 60.1304 53.0067C60.3729 53.6947 60.8299 54.2898 61.4363 54.7074C62.0427 55.125 62.7675 55.3437 63.5076 55.3323C64.2825 55.327 65.0397 55.1042 65.6902 54.6899L65.7126 56.3951C65.5223 56.52 65.3185 56.6239 65.1049 56.7047C64.4744 56.9485 63.8013 57.0681 63.124 57.0568C59.8594 57.0347 57.721 54.5543 57.721 51.4314C57.7129 50.6676 57.8492 49.9091 58.1231 49.1944C58.4866 48.2113 59.1573 47.3667 60.0391 46.7818C60.9208 46.1969 61.9682 45.9017 63.0309 45.9387C63.93 45.9311 64.8178 46.1361 65.6195 46.5365L65.6253 48.3339Z" fill="#95989D"/>
<path d="M72.5144 46.8722C72.7396 46.7591 72.9866 46.6507 73.2347 46.5405C74.2381 46.1497 75.307 45.947 76.3862 45.9427C77.9168 45.9427 78.795 46.3416 79.3125 46.784C79.5868 46.9996 79.8097 47.2718 79.9655 47.5813C80.2364 48.2023 80.3522 48.878 80.3033 49.5521L80.2808 56.6607C79.0146 56.9182 77.7256 57.0518 76.4327 57.0596C75.7836 57.0662 75.1354 57.0142 74.496 56.9042C73.8642 56.7912 71.6374 56.3064 71.6374 53.9372C71.6275 53.4775 71.7235 53.0215 71.9182 52.6034C72.113 52.1854 72.4015 51.8162 72.762 51.5234C74.2926 50.216 76.4534 50.1284 78.2993 50.1284V49.6408C78.3355 49.2668 78.2895 48.8895 78.1644 48.5345C77.9392 48.0259 77.3316 47.5383 76.0686 47.5383C75.0475 47.5635 74.0429 47.7973 73.1187 48.2248C72.9011 48.3222 72.69 48.4332 72.4869 48.5571L72.5144 46.8722ZM78.2999 51.4568C77.084 51.4568 75.3954 51.5009 74.3828 52.3201C74.1527 52.4943 73.9675 52.7195 73.8424 52.9773C73.7172 53.2351 73.6556 53.5183 73.6626 53.8039C73.6455 54.1554 73.7571 54.5013 73.9773 54.7786C74.4052 55.3103 75.1703 55.5329 76.5217 55.5329C77.1185 55.5289 77.714 55.4769 78.3022 55.3775L78.2999 51.4568Z" fill="#95989D"/>
<path d="M89.78 46.1856V48.2689C89.9079 47.9845 90.0584 47.7105 90.2303 47.4496C90.5517 46.9777 90.9882 46.5926 91.4999 46.3295C92.0116 46.0664 92.5822 45.9336 93.1595 45.9432C93.9794 45.9301 94.7829 46.1702 95.4569 46.6297C96.8078 47.6264 96.8526 49.1322 96.8526 50.6166V56.816H94.8039V50.8607C94.8039 49.9301 94.7815 49 94.0371 48.3141C93.6309 47.9535 93.098 47.7628 92.5513 47.7824C91.9782 47.7906 91.4241 47.9851 90.9752 48.3356C89.8507 49.2441 89.8719 50.772 89.8719 52.0348V56.8166H87.8203V46.1856H89.78Z" fill="#95989D"/>
<path d="M125.705 54.2232C124.803 56.1962 123.328 57.8619 121.464 59.0098C119.6 60.1577 117.432 60.7361 115.235 60.6719C113.037 60.6078 110.908 59.9039 109.116 58.6493C107.325 57.3947 105.953 55.6458 105.172 53.6236C104.391 51.6015 104.237 49.397 104.73 47.289C105.223 45.1809 106.34 43.2639 107.94 41.7805C109.541 40.297 111.552 39.3137 113.72 38.9549C115.889 38.5961 118.116 38.8779 120.122 39.7647C122.811 40.9538 124.91 43.145 125.957 45.8565C127.004 48.568 126.913 51.5775 125.705 54.2232ZM117.032 46.5326C117.857 46.0777 118.781 45.8244 119.726 45.7938C120.671 45.7632 121.61 45.9563 122.463 46.3568C123.274 46.7174 123.998 47.2421 124.588 47.8965C124.293 46.4937 123.663 45.1797 122.752 44.0624C121.84 42.9452 120.672 42.0565 119.344 41.4692C118.015 40.882 116.564 40.6129 115.11 40.6842C113.655 40.7554 112.239 41.1649 110.976 41.879C111.867 41.8786 112.747 42.0631 113.561 42.4203C114.431 42.7826 115.201 43.3452 115.804 44.0608C116.408 44.7764 116.828 45.624 117.03 46.5326H117.032ZM115.016 48.6542C115.674 46.9682 114.691 44.9629 112.789 44.134C110.623 43.1786 107.881 44.0075 106.773 47.0321C106.099 49.149 106.237 51.4357 107.161 53.4592C108.086 55.4827 109.733 57.1024 111.79 58.0117C113.847 58.9209 116.171 59.0565 118.323 58.3927C120.475 57.729 122.304 56.312 123.465 54.4102C125.026 51.585 123.84 49.0204 121.674 48.0627C119.779 47.2151 117.601 47.8214 116.756 49.4249C116.709 49.543 116.638 49.6504 116.547 49.7405C116.456 49.8307 116.348 49.9018 116.228 49.9496C116.108 49.9973 115.98 50.0208 115.851 50.0184C115.722 50.016 115.595 49.988 115.477 49.9359C115.36 49.8838 115.254 49.8087 115.167 49.7153C115.079 49.6219 115.012 49.512 114.969 49.3923C114.926 49.2726 114.909 49.1456 114.917 49.0189C114.925 48.8922 114.96 48.7686 115.018 48.6554L115.016 48.6542Z" fill="#95989D"/>
<path d="M109.377 52.0324C109.475 51.8157 109.637 51.6326 109.841 51.5062C110.045 51.3798 110.283 51.3158 110.524 51.3224C110.765 51.3289 110.999 51.4057 111.195 51.543C111.392 51.6803 111.543 51.8719 111.629 52.0936C111.715 52.3153 111.732 52.5571 111.678 52.7884C111.625 53.0197 111.502 53.2301 111.327 53.3929C111.151 53.5558 110.931 53.6638 110.693 53.7032C110.455 53.7426 110.211 53.7118 109.991 53.6145C109.696 53.4844 109.467 53.2448 109.352 52.9482C109.237 52.6516 109.246 52.3223 109.377 52.0324Z" fill="#95989D"/>
<path d="M111.302 47.8179C111.418 47.565 111.619 47.3593 111.871 47.2358C112.123 47.1123 112.411 47.0786 112.686 47.1406C112.96 47.2026 113.205 47.3563 113.377 47.5756C113.55 47.795 113.639 48.0663 113.631 48.3434C113.623 48.6205 113.517 48.8863 113.332 49.0954C113.147 49.3045 112.895 49.4441 112.617 49.4904C112.339 49.5366 112.053 49.4866 111.809 49.349C111.564 49.2114 111.376 48.9946 111.275 48.7355C111.218 48.5883 111.191 48.4315 111.196 48.2741C111.2 48.1166 111.237 47.9616 111.302 47.8179Z" fill="#95989D"/>
<path d="M117.931 55.8142C118.029 55.5978 118.06 55.3575 118.02 55.1237C117.98 54.8899 117.87 54.6731 117.705 54.5007C117.539 54.3283 117.325 54.208 117.091 54.155C116.856 54.1021 116.61 54.1188 116.385 54.2032C116.159 54.2876 115.965 54.4358 115.825 54.629C115.685 54.8223 115.607 55.052 115.6 55.289C115.593 55.526 115.658 55.7597 115.786 55.9606C115.914 56.1615 116.1 56.3206 116.319 56.4176C116.466 56.4821 116.623 56.5176 116.783 56.5222C116.943 56.5268 117.102 56.5003 117.252 56.4442C117.402 56.3882 117.539 56.3037 117.655 56.1956C117.771 56.0875 117.865 55.9579 117.931 55.8142Z" fill="#95989D"/>
<path d="M119.854 51.5991C119.953 51.3827 119.984 51.1423 119.944 50.9083C119.904 50.6743 119.794 50.4573 119.629 50.2847C119.463 50.1122 119.249 49.9918 119.014 49.9389C118.779 49.8859 118.533 49.9028 118.308 49.9874C118.082 50.0719 117.888 50.2204 117.748 50.4139C117.609 50.6074 117.531 50.8373 117.524 51.0745C117.517 51.3117 117.582 51.5455 117.711 51.7463C117.839 51.9471 118.025 52.1059 118.246 52.2026C118.54 52.3319 118.875 52.341 119.177 52.2279C119.478 52.1148 119.722 51.8886 119.854 51.5991Z" fill="#95989D"/>
<path d="M115.938 42.1965C116.02 42.0176 116.154 41.8665 116.323 41.7624C116.492 41.6583 116.689 41.6059 116.888 41.6117C117.088 41.6176 117.281 41.6814 117.443 41.7952C117.606 41.9091 117.73 42.0677 117.801 42.2511C117.872 42.4346 117.886 42.6345 117.841 42.8258C117.796 43.017 117.695 43.1909 117.55 43.3255C117.405 43.4601 117.222 43.5493 117.026 43.5819C116.829 43.6145 116.627 43.5889 116.445 43.5085C116.324 43.4551 116.215 43.3788 116.124 43.284C116.033 43.1891 115.962 43.0776 115.915 42.9558C115.868 42.8339 115.846 42.7042 115.85 42.5739C115.854 42.4436 115.884 42.3154 115.938 42.1965Z" fill="#95989D"/>
<path d="M121.049 44.4565C121.131 44.2776 121.157 44.0788 121.124 43.8852C121.091 43.6917 121.001 43.5122 120.864 43.3693C120.727 43.2264 120.55 43.1267 120.356 43.0826C120.162 43.0386 119.958 43.0522 119.772 43.1218C119.585 43.1915 119.424 43.3139 119.308 43.4737C119.193 43.6335 119.128 43.8235 119.122 44.0196C119.116 44.2158 119.169 44.4093 119.275 44.5757C119.38 44.742 119.534 44.8738 119.716 44.9543C119.837 45.0078 119.967 45.0373 120.099 45.0412C120.232 45.0452 120.364 45.0234 120.487 44.9772C120.611 44.9309 120.725 44.8612 120.821 44.7718C120.918 44.6825 120.995 44.5754 121.049 44.4565Z" fill="#95989D"/>
<path d="M116.644 35.1609C116.748 34.933 116.919 34.7406 117.134 34.608C117.35 34.4755 117.6 34.4087 117.854 34.4162C118.108 34.4236 118.354 34.505 118.561 34.65C118.767 34.7949 118.926 34.997 119.016 35.2306C119.106 35.4643 119.124 35.719 119.067 35.9625C119.01 36.206 118.881 36.4274 118.696 36.5987C118.511 36.7701 118.279 36.8836 118.028 36.925C117.778 36.9663 117.52 36.9337 117.289 36.8312C116.978 36.6937 116.736 36.4405 116.615 36.1273C116.494 35.8141 116.505 35.4665 116.644 35.1609Z" fill="#95989D"/>
<path d="M125.926 39.2672C126.03 39.0393 126.064 38.7861 126.021 38.5397C125.979 38.2932 125.864 38.0647 125.69 37.8828C125.515 37.701 125.29 37.574 125.043 37.518C124.795 37.462 124.536 37.4795 124.299 37.5683C124.061 37.657 123.856 37.813 123.709 38.0166C123.561 38.2201 123.479 38.4621 123.471 38.7119C123.464 38.9616 123.532 39.208 123.666 39.4198C123.801 39.6316 123.997 39.7993 124.229 39.9017C124.539 40.039 124.893 40.0493 125.211 39.9303C125.529 39.8114 125.787 39.5728 125.926 39.2672Z" fill="#95989D"/>
</g>
<defs>
<clipPath id="clip0_2560_1148">
<rect width="109.367" height="26.2641" fill="white" transform="translate(17.3164 34.4151)"/>
</clipPath>
</defs>
</svg>
