<svg width="34" height="34" viewBox="0 0 34 34" fill="none" xmlns="http://www.w3.org/2000/svg">
<path d="M25.4804 13.2084L29.6626 9.52345C30.5263 8.7614 31.2103 7.81738 31.6654 6.75934C32.1205 5.70129 32.3352 4.55555 32.2943 3.40457C32.2806 2.9581 32.0972 2.53366 31.7812 2.21782C31.4653 1.90197 31.0408 1.71852 30.5942 1.70488C29.443 1.66394 28.297 1.87867 27.2387 2.33363C26.1804 2.78859 25.2362 3.47245 24.474 4.336L20.7882 8.51724L5.82762 3.2006C5.455 3.06981 5.05298 3.047 4.66795 3.13482C4.28291 3.22263 3.93056 3.41749 3.65154 3.69691L1.87667 5.44419C1.81263 5.50756 1.76373 5.58457 1.73362 5.66948C1.70351 5.75438 1.69297 5.84498 1.70277 5.93453C1.71258 6.02407 1.74249 6.11025 1.79026 6.18663C1.83803 6.263 1.90243 6.32761 1.97867 6.37562L15.2732 14.7857L8.99655 21.8972L6.37165 22.1148C5.87921 22.1582 5.41741 22.3722 5.06599 22.7198L4.07995 23.7329C4.00773 23.8064 3.95549 23.8972 3.92818 23.9965C3.90088 24.0959 3.89942 24.2006 3.92394 24.3007C3.94846 24.4008 3.99815 24.493 4.0683 24.5686C4.13844 24.6441 4.22672 24.7004 4.32476 24.7323L8.09212 25.9085L9.26856 29.7022C9.30353 29.7981 9.3622 29.8836 9.43912 29.9507C9.51603 30.0179 9.60868 30.0645 9.70845 30.0862C9.80822 30.1079 9.91187 30.104 10.0097 30.0749C10.1076 30.0458 10.1965 29.9924 10.2682 29.9197L11.2814 28.9067C11.6291 28.5554 11.8432 28.0937 11.8867 27.6014L12.1043 24.977L19.2174 18.7018L27.6021 32.0206C27.6501 32.0968 27.7147 32.1612 27.7911 32.2089C27.8675 32.2567 27.9537 32.2866 28.0433 32.2964C28.1329 32.3062 28.2235 32.2957 28.3084 32.2655C28.3933 32.2354 28.4704 32.1866 28.5337 32.1225L30.3018 30.3549C30.5813 30.0759 30.7762 29.7236 30.864 29.3387C30.9519 28.9537 30.9291 28.5518 30.7982 28.1793L25.4804 13.2084Z" fill="#64D71E"/>
</svg>
