<svg width="144" height="96" viewBox="0 0 144 96" fill="none" xmlns="http://www.w3.org/2000/svg">
<path d="M125.553 55.3307C125.051 55.3185 124.55 55.2957 124.048 55.2957C92.0456 55.2941 60.0436 55.2986 28.0417 55.275C26.9696 55.2742 26.164 55.5159 25.3653 56.2371C23.3406 58.0651 21.2184 59.7938 19.0726 61.6154C18.8596 61.4527 18.6646 61.3039 18.4453 61.1365C18.5299 60.9863 18.5648 60.8525 18.6539 60.7764C20.9654 58.7916 23.2686 56.7975 25.6142 54.8502C25.9543 54.5676 26.4904 54.4686 26.9553 54.3686C27.3031 54.2937 27.6823 54.3532 28.0474 54.3532C59.9582 54.3532 91.869 54.3534 123.78 54.35C124.371 54.35 124.962 54.3038 125.553 54.2791V55.3307H125.553Z" fill="#95989D"/>
<path d="M26.791 34.4449C29.9029 34.4449 32.9579 34.2825 35.9851 34.4916C38.8904 34.6922 40.6809 36.4673 41.4063 39.1423C42.1149 41.7554 41.9154 44.2719 40.1496 46.5069C39.1113 47.8212 37.7468 48.7127 35.9994 48.752C32.9584 48.8205 29.9147 48.7711 26.7913 48.7711L26.791 34.4449ZM29.7191 36.7605V46.4366C31.4819 46.4366 33.1604 46.483 34.8347 46.4244C36.7965 46.3559 37.9524 45.4686 38.5263 43.6619C38.9489 42.3322 38.9074 40.9896 38.4983 39.656C38.0765 38.2812 37.1273 37.3841 35.7126 37.0129C33.7497 36.4976 31.7544 36.7661 29.7188 36.7603L29.7191 36.7605Z" fill="#95989D"/>
<path d="M86.9399 48.7968H77.6109V42.7809C76.946 42.7358 76.4124 42.6995 75.7656 42.6554V40.4117C76.3382 40.3562 76.9083 40.3007 77.6131 40.2326V34.6168H86.9443V36.9221H80.5917V40.2944H85.6161V42.7072H80.6137V46.3445H86.9396V48.7971L86.9399 48.7968Z" fill="#95989D"/>
<path d="M101.723 34.5709C99.6611 37.028 97.7807 39.2691 95.8134 41.6134C97.7628 43.971 99.6987 46.3124 101.738 48.7796C99.976 48.9959 98.6126 49.0402 97.3886 47.6548C96.0456 46.1349 94.3597 44.8934 92.8038 43.5133V48.7974H90.0117V34.6155H92.7079V40.3355L93.0096 40.4563C93.5195 39.933 94.0363 39.4153 94.5383 38.8849C95.52 37.8487 96.5734 36.863 97.4463 35.7477C98.217 34.7627 99.108 34.3255 100.361 34.4987C100.716 34.5478 101.08 34.5391 101.723 34.5709Z" fill="#95989D"/>
<path d="M54.6367 34.5693H56.1632C58.2516 39.2521 60.3403 43.9357 62.4928 48.7621H59.4559C59.08 47.8533 58.6973 46.928 58.2846 45.9303H52.6544C52.2612 46.8789 51.8603 47.8456 51.4589 48.8136H48.5586C50.6028 44.0228 52.5936 39.3575 54.6367 34.5693ZM53.6583 43.1564H57.3112C56.7166 41.6108 56.1737 40.1983 55.6305 38.7862C55.5357 38.7957 55.4409 38.805 55.3464 38.8146C54.7996 40.2212 54.2529 41.6277 53.6583 43.1564Z" fill="#95989D"/>
<path d="M115.499 45.9075C115.103 46.8826 114.725 47.8132 114.324 48.7987H111.43C113.485 43.9713 115.473 39.2996 117.481 34.5842H119.021C121.095 39.229 123.188 43.9172 125.352 48.7626H122.332C121.957 47.8795 121.548 46.9161 121.119 45.9075H115.498H115.499ZM120.194 43.1829C119.572 41.593 119.023 40.1883 118.474 38.7835C118.374 38.8047 118.274 38.8262 118.174 38.8475C117.638 40.257 117.103 41.6665 116.526 43.1829H120.194Z" fill="#95989D"/>
<path d="M64.6526 48.8056V34.5037C65.1719 34.5037 65.6126 34.4955 66.053 34.5061C66.455 34.5157 66.8561 34.5457 67.4051 34.5746V46.3551H74.8622V48.8058H64.6523L64.6526 48.8056Z" fill="#95989D"/>
<path d="M111.827 34.6343V36.8624H109.108V48.8122H106.213V36.9574H103.49V34.6343H111.827Z" fill="#95989D"/>
<path d="M43.9375 34.5802H46.5589V48.8003H43.9375V34.5802Z" fill="#95989D"/>
</svg>
