<svg width="144" height="96" viewBox="0 0 144 96" fill="none" xmlns="http://www.w3.org/2000/svg">
<path d="M52.4883 37.7103C53.8473 39.0496 55.2097 40.3856 56.5632 41.7304C56.9702 42.1347 57.3525 42.5636 57.746 42.9812C57.7848 42.9584 57.8234 42.9358 57.8621 42.913V37.6457C58.1495 37.9293 58.3344 38.1106 58.5182 38.293C59.0991 38.8698 59.6904 39.4368 60.2526 40.0312C60.3895 40.1759 60.5044 40.4104 60.5048 40.6039C60.5185 45.6146 60.5171 50.6254 60.5087 55.6361C60.5084 55.7942 60.4495 55.9931 60.3442 56.1035C59.5808 56.9046 58.7983 57.6878 58.0218 58.4767C57.9764 58.4636 57.931 58.4507 57.8856 58.4376C57.8856 58.277 57.8856 58.1164 57.8856 57.9558C57.8856 54.3698 57.8919 50.7838 57.8721 47.1979C57.8707 46.9482 57.7343 46.6465 57.5618 46.4595C56.8137 45.6493 56.0289 44.8727 55.2574 44.0839C55.211 44.1056 55.1645 44.1274 55.118 44.149C55.118 44.3141 55.118 44.4792 55.118 44.6443C55.118 48.2463 55.1126 51.8482 55.1261 55.4501C55.1275 55.8188 55.017 56.0762 54.7522 56.3261C54.1105 56.9322 53.493 57.5637 52.871 58.1902C52.7626 58.2993 52.6795 58.4335 52.5848 58.5561C52.5526 58.412 52.4924 58.2679 52.4923 58.1238C52.4877 51.3194 52.4883 44.5148 52.4883 37.7103Z" fill="#95989D"/>
<path d="M83.9735 58.4208C83.9771 57.5734 84.0423 56.7206 83.9673 55.8802C83.8904 55.0197 84.1766 54.4137 84.8217 53.8511C85.6774 53.1049 86.4506 52.2649 87.2885 51.4362C86.3013 50.4542 85.3467 49.4847 84.3664 48.5419C84.0897 48.2757 83.9744 48.0093 83.9762 47.6248C83.9907 44.4571 83.9844 41.2894 83.9844 38.1217V37.6457C86.6384 40.3088 89.2569 42.9363 91.8717 45.56C91.3311 46.0825 90.7222 46.6709 90.0687 47.3025C89.0023 46.1985 87.9138 45.0718 86.8255 43.9452C86.7751 43.9703 86.7246 43.9954 86.6741 44.0204C86.6595 44.1483 86.6329 44.2761 86.6321 44.4039C86.628 45.1399 86.6489 45.8765 86.6218 46.6114C86.6088 46.9656 86.7346 47.2045 86.9807 47.4465C88.3185 48.7614 89.6412 50.0916 90.9965 51.4439C90.8761 51.5729 90.7651 51.6998 90.6458 51.8184C88.5529 53.8997 86.4585 55.9795 84.3667 58.062C84.2572 58.171 84.1684 58.3007 84.0699 58.4208H83.9733H83.9735Z" fill="#95989D"/>
<path d="M115.459 58.5551C115.463 54.2845 115.467 50.0138 115.47 45.7431C115.471 43.2636 115.47 40.784 115.47 38.3045V37.6457C116.166 38.3431 116.726 38.9788 117.365 39.5225C117.954 40.0233 118.144 40.5796 118.134 41.3476C118.091 44.7383 118.116 48.1301 118.116 51.5214V52.1488C119.306 50.9571 120.421 49.8407 121.527 48.7334C122.204 49.4047 122.816 50.0129 123.499 50.69C123.319 50.8373 123.121 50.9747 122.952 51.1417C120.56 53.5132 118.172 55.8883 115.784 58.2646C115.698 58.3511 115.631 58.4579 115.556 58.5552L115.459 58.5551Z" fill="#95989D"/>
<path d="M125.984 58.462C125.99 57.6949 125.999 56.928 126 56.1609C126.001 50.1787 126 44.1964 126 38.2142V37.706C126.038 37.686 126.077 37.6658 126.115 37.6457C126.649 38.188 127.142 38.7789 127.727 39.2601C128.457 39.8605 128.694 40.5481 128.676 41.4951C128.613 44.805 128.652 48.1167 128.652 51.4277C128.652 51.6107 128.652 51.7937 128.652 52.0617C129.842 50.8693 130.957 49.7533 132.17 48.5385C132.819 49.2301 133.41 49.8595 134.001 50.4888V50.5849C133.926 50.6412 133.843 50.6896 133.777 50.755C131.253 53.2605 128.731 55.7675 126.21 58.2759C126.158 58.3284 126.124 58.3997 126.081 58.4621H125.984L125.984 58.462Z" fill="#95989D"/>
<path d="M70.871 58.3917C70.6897 58.1696 70.5265 57.9297 70.3245 57.7283C67.9724 55.3825 65.6108 53.0462 63.2662 50.693C63.1064 50.5327 62.9787 50.2584 62.9778 50.0363C62.9606 46.0512 62.9649 42.0659 62.9666 38.0807C62.9666 37.9576 62.9863 37.8345 63.0024 37.6457C63.1526 37.7791 63.2604 37.8657 63.3579 37.9625C65.8073 40.3927 68.2526 42.8267 70.7086 45.2502C70.9437 45.482 71.0417 45.7119 71.0408 46.0439C71.0293 49.9652 71.0334 53.8864 71.0334 57.8076V58.2796C70.9792 58.317 70.9251 58.3543 70.871 58.3917ZM65.615 43.8981C65.615 45.3629 65.6795 46.6909 65.5934 48.0091C65.5309 48.9682 65.7849 49.674 66.5385 50.2863C67.1752 50.8037 67.7132 51.4414 68.2834 52.0143C68.3583 51.9649 68.382 51.9567 68.3821 51.9483C68.3891 50.2557 68.397 48.563 68.3935 46.8705C68.3933 46.757 68.3351 46.6155 68.2551 46.5346C67.4136 45.6829 66.5622 44.841 65.615 43.8981Z" fill="#95989D"/>
<path d="M105.014 37.6457C107.659 40.295 110.264 42.9033 112.858 45.5011C112.291 46.04 111.671 46.6294 111.04 47.2296C110.001 46.1893 108.885 45.0714 107.769 43.9535C107.724 43.9746 107.679 43.9958 107.633 44.017C107.633 44.7082 107.622 45.3999 107.645 46.0904C107.649 46.2051 107.793 46.3262 107.892 46.4249C108.413 46.9456 108.94 47.46 109.479 47.9897C108.926 48.5412 108.394 49.0524 107.888 49.5873C107.76 49.7236 107.647 49.9317 107.637 50.1125C107.606 50.7186 107.626 51.3271 107.626 51.928C108.751 50.8044 109.871 49.6847 110.964 48.593C111.696 49.3027 112.313 49.9018 112.873 50.4457C110.264 53.0627 107.652 55.6825 105.014 58.3284V37.6458V37.6457Z" fill="#95989D"/>
<path d="M73.5273 58.37V37.6457C76.1515 40.2725 78.7642 42.8879 81.3978 45.5241C80.3128 46.5906 79.1618 47.722 78.0007 48.8633C78.8794 49.7374 79.7046 50.5583 80.4917 51.3414C79.8553 51.9952 79.2646 52.6021 78.6285 53.2556C77.8404 52.4489 77.0541 51.6439 76.2677 50.8389C76.2257 50.8621 76.1837 50.8854 76.1417 50.9087C76.1417 51.5403 76.1417 52.1719 76.1417 52.8037C76.1417 53.6836 76.1472 54.5635 76.1363 55.4433C76.1344 55.5914 76.1082 55.7834 76.0147 55.8794C75.2223 56.6933 74.4117 57.4896 73.5274 58.3701L73.5273 58.37ZM77.5922 45.5137C77.1126 45.0376 76.6135 44.542 76.1763 44.108V46.912C76.6843 46.4104 77.1792 45.9215 77.5922 45.5137Z" fill="#95989D"/>
<path d="M102.335 45.4599C101.815 45.9617 101.206 46.5504 100.588 47.1473C99.5151 46.0703 98.3986 44.9491 97.282 43.8279C97.2348 43.8506 97.1875 43.8733 97.1402 43.8959C97.1402 44.5982 97.1306 45.3008 97.1511 46.0024C97.154 46.1021 97.2964 46.2051 97.3868 46.2937C97.9131 46.8093 98.4432 47.321 99.0147 47.8755C98.4656 48.4087 97.9704 48.909 97.452 49.3842C97.2084 49.6074 97.1101 49.8425 97.1134 50.1764C97.13 51.8893 97.1311 53.6026 97.1086 55.3153C97.1057 55.5389 96.9869 55.8083 96.8325 55.9743C96.1141 56.7463 95.3641 57.4894 94.5273 58.3429V37.6457C97.1002 40.2208 99.7192 42.8419 102.335 45.4599Z" fill="#95989D"/>
<path d="M28.0017 30.7129C28.3773 31.0881 28.4257 31.5594 28.4195 32.0561C28.4118 32.6706 28.4299 33.2854 28.4309 33.9001C28.4314 34.1688 28.0351 34.5675 27.7621 34.574C27.4638 34.5812 27.1636 34.5571 26.8671 34.5811C26.462 34.6139 26.217 34.3671 25.9712 34.1179C25.9199 34.0659 25.9034 33.9707 25.8904 33.8922C25.8649 33.7383 25.8532 33.5822 25.8338 33.4094C25.4682 33.4271 25.1297 33.4433 24.7913 33.4601C24.7702 33.4611 24.7335 33.4611 24.7305 33.4703C24.5937 33.8798 24.0086 33.9746 24.0092 34.4727C24.0095 34.726 24.0525 34.979 24.0629 35.2328C24.0727 35.474 24.065 35.7159 24.065 36.0419C24.2434 36.0954 24.5132 36.1743 24.7815 36.258C24.8804 36.2887 25.0199 36.3028 25.0648 36.3727C25.2426 36.6499 25.4889 36.7023 25.777 36.6291C25.9073 36.5961 26.0261 36.518 26.1353 36.4214C26.7031 36.3885 27.2267 36.5779 27.6755 36.9404C27.8383 37.0719 27.9447 37.2712 28.0839 37.4336C28.1147 37.4696 28.1753 37.4804 28.2663 37.524C28.3392 37.3674 28.4095 37.2166 28.4916 37.0404C28.153 37.0473 27.9095 36.6622 28.0409 36.3683C28.4165 35.5278 28.8162 34.698 29.2111 33.8543C29.1344 33.6223 29.0382 33.3583 28.96 33.0891C28.8679 32.7718 29.0211 32.5397 29.2871 32.4053C29.7568 32.168 30.2429 31.9627 30.7222 31.7439C30.7372 31.7731 30.7523 31.8023 30.7674 31.8314C30.5477 31.9996 30.3135 32.1521 30.1113 32.339C29.6816 32.736 29.685 32.9294 30.0435 33.3214C30.4922 33.2758 30.9047 33.2594 31.306 33.1839C31.5593 33.1364 31.7957 33.0005 32.0515 32.8997C32.0522 32.9001 32.0775 32.9058 32.0855 32.9207C32.3775 33.467 32.6733 34.0113 32.9544 34.5631C33.0198 34.6914 33.0563 34.8449 33.2352 34.7763C33.4182 34.7062 33.6938 34.6298 33.7364 34.4956C33.8169 34.242 33.7596 33.9451 33.7596 33.6354C34.0832 34.0033 34.2524 34.436 34.1758 34.8693C34.1131 35.2242 33.7645 35.4828 33.4 35.5462C33.0442 35.608 32.9383 35.8268 32.8397 36.1017C32.6575 36.6099 32.5055 37.1331 32.2734 37.618C32.0879 38.0059 31.8022 38.3463 31.561 38.7079C31.5268 38.6884 31.4927 38.6689 31.4585 38.6494C31.4724 38.5631 31.4863 38.4768 31.5091 38.335C31.3066 38.4931 31.1383 38.6245 30.9473 38.7735C31.1347 38.9451 31.2888 39.0529 31.5488 39.0007C31.6882 38.9727 31.8764 39.0431 32.0043 39.127C32.4032 39.3884 32.7838 39.6774 33.1714 39.9557C33.1432 39.9677 33.115 39.9797 33.0868 39.9917C33.1307 40.1329 33.1436 40.2951 33.2239 40.4115C33.5001 40.8123 33.8075 41.1919 34.0862 41.5911C34.1729 41.7153 34.2359 41.8718 34.2586 42.0212C34.3258 42.4634 34.4576 42.862 34.8298 43.1507C35.0353 43.3101 35.1002 43.5214 35.1055 43.7896C35.1145 44.2491 35.1199 44.6979 34.8972 45.1174C34.8824 45.1452 34.8562 45.1814 34.8638 45.2047C35.0772 45.8627 34.6584 46.4874 34.7676 47.147C34.8268 47.505 34.4076 47.9343 34.0437 47.9175C33.9385 47.9127 33.8412 47.7385 33.7058 47.6091C33.6616 47.6403 33.5528 47.7204 33.4408 47.7957C33.2925 47.8954 33.1335 48.0452 32.9634 47.8618C32.798 47.6834 32.8092 47.4823 32.973 47.2901C33.0621 47.1858 33.1404 47.0705 33.2097 46.9521C33.256 46.8731 33.2781 46.78 33.3391 46.6192C33.1029 46.8881 32.9172 47.0926 32.7397 47.3039C32.5647 47.5122 32.2858 47.5904 32.1285 47.4368C31.957 47.2692 32.0079 47.079 32.1377 46.8959C32.2537 46.7324 32.3543 46.5581 32.4735 46.3698C32.3979 46.3035 32.3298 46.2436 32.242 46.1666C32.1642 46.2621 32.1063 46.3504 32.0312 46.4203C31.9587 46.4877 31.8699 46.5799 31.7855 46.5826C31.658 46.5868 31.4461 46.5547 31.4174 46.4811C31.3668 46.3516 31.3996 46.1694 31.4493 46.0272C31.5038 45.8718 31.6171 45.7368 31.6938 45.6109C30.7126 44.7663 29.75 43.9377 28.7839 43.106C28.826 43.3673 28.8304 43.6585 28.9248 43.9171C29.0682 44.3101 28.9908 44.6373 28.7955 44.9862C28.4332 45.6335 28.1148 46.3052 27.7502 46.9511C27.6025 47.2128 27.5457 47.4547 27.6742 47.7242C27.7649 47.9145 27.719 48.0553 27.5658 48.1893C27.4706 48.2725 27.4055 48.3894 27.3114 48.4741C27.0575 48.7025 26.8957 48.9291 27.1214 49.2846C27.1812 49.3789 27.1197 49.571 27.0752 49.7056C26.7596 50.6607 26.4335 51.6125 26.1118 52.5657C26.0785 52.6641 26.0518 52.7647 26.0051 52.9212C26.2811 52.7548 26.5105 52.6167 26.8183 52.4312C26.6667 52.741 26.5501 52.9794 26.4147 53.2562C26.9184 53.2644 27.053 52.7459 27.4406 52.6644C27.4122 52.9101 27.3813 53.1783 27.346 53.4846C27.7571 53.4743 27.8888 53.7044 27.9627 54.0169C28.0654 54.451 28.3128 54.7436 28.7618 54.9088C29.3144 55.1122 29.8375 55.3949 30.4028 55.6571H29.7118C29.9108 55.8654 30.0613 56.0229 30.2501 56.2205C30.0763 56.5114 29.8891 56.8243 29.6678 57.1945C29.867 57.2551 30.0413 57.3517 30.2156 57.3515C30.5099 57.3512 30.7341 57.4619 30.9606 57.6296C31.4127 57.9644 31.88 58.2791 32.346 58.6056C32.252 58.792 32.1631 58.968 32.044 59.2041C32.1829 59.1491 32.261 59.1181 32.3785 59.0716C32.4642 59.6489 32.4172 60.2006 32.1048 60.6466C31.0395 62.1678 29.6801 63.4308 28.3208 64.7085C28.7191 63.9592 29.1174 63.2099 29.5597 62.3779C29.0108 62.7796 28.5271 63.1334 28.0434 63.4874C28.3347 62.6584 29.0649 62.0504 29.1562 61.0967C28.7161 61.3134 28.3064 61.5152 27.8967 61.717C27.8785 61.7002 27.8604 61.6834 27.8423 61.6667C27.9836 61.3086 28.1249 60.9506 28.2663 60.5925C28.2536 60.5798 28.2409 60.567 28.2282 60.5543C27.9127 60.8036 27.5972 61.0529 27.2817 61.3022C27.2643 61.2928 27.2468 61.2833 27.2293 61.2738C27.471 60.7699 27.7127 60.2661 27.9965 59.6746C27.7453 59.7533 27.581 59.8048 27.4164 59.8563C27.3999 59.8442 27.3758 59.8357 27.3681 59.8194C27.1271 59.3129 26.9178 59.2299 26.3558 59.4487C25.6231 59.734 24.895 60.0312 24.0632 60.364C24.3265 59.8018 24.558 59.3075 24.7985 58.7941C24.1686 59.2192 23.5538 59.6342 22.8864 60.0846C22.9151 59.9489 22.9281 59.8804 22.9442 59.8126C23.0429 59.3979 23.1423 58.9833 23.244 58.5583C22.7335 58.9166 22.2254 59.2733 21.7173 59.63C21.7088 59.6151 21.7003 59.6002 21.6918 59.5854C21.9531 59.1981 22.2143 58.8109 22.5033 58.3827C21.5756 59.0315 20.6932 59.6486 19.8107 60.2658C19.7889 60.2439 19.7672 60.2219 19.7454 60.2001L20.329 59.5085C20.3164 59.4914 20.3038 59.4743 20.2912 59.4572C19.9783 59.6351 19.6653 59.8129 19.3523 59.9908C19.3385 59.973 19.3247 59.9552 19.3109 59.9374C20.1764 58.964 21.0418 57.9907 21.9379 56.9828C21.6043 57.1355 21.3123 57.2693 21.0203 57.4029C20.9998 57.3827 20.9792 57.3624 20.9587 57.342C21.1718 56.9665 21.3849 56.591 21.598 56.2154C21.5833 56.2034 21.5685 56.1914 21.5538 56.1794C21.1081 56.6076 20.6479 57.0222 20.2215 57.4689C19.9188 57.7859 19.5421 57.9191 19.1057 58.0585C19.1274 57.9167 19.1434 57.8119 19.1615 57.6932C17.9966 58.5812 16.8474 59.4572 15.6983 60.3332C15.9817 59.871 16.4782 59.5532 16.6191 58.9703C16.4463 58.9566 16.2919 58.9444 16.1033 58.9295C16.126 58.7916 16.1457 58.673 16.1803 58.4625C15.9307 58.5264 15.6978 58.5418 15.5101 58.6414C14.2608 59.3041 13.0214 59.9852 11.7779 60.6588C11.6784 60.7127 11.5727 60.7554 11.4096 60.8313C12.614 59.6046 13.7696 58.4276 14.8635 57.3134C13.2034 58.3996 11.4649 59.5372 9.72646 60.6747C9.69524 60.6362 9.66403 60.5977 9.63281 60.5593C9.70727 60.4978 9.78211 60.4367 9.85619 60.3746C10.5083 59.8282 11.1746 59.2976 11.809 58.7315C12.9188 57.7413 13.9946 56.7132 15.1128 55.7328C15.7163 55.2037 16.2754 54.6473 16.7267 53.9838C17.7252 52.5163 19.0836 51.4483 20.5831 50.5299C20.8341 50.3762 21.0223 50.1175 21.2303 49.8986C21.6742 49.4314 22.0873 48.9326 22.5568 48.4929C23.9612 47.1774 25.3935 45.8916 26.8007 44.5789C27.4511 43.9722 28.0682 43.3302 28.6716 42.6722C27.6229 43.5932 26.5709 44.5106 25.5265 45.4364C24.4781 46.3657 23.4373 47.3033 22.377 48.2519C22.3822 48.1841 22.3711 48.1041 22.3962 48.0377C22.5757 47.5632 22.7142 47.0639 22.9646 46.6289C23.1219 46.3555 23.4505 46.1797 23.7207 45.9441C23.7112 45.8198 23.697 45.6327 23.6819 45.434C23.5144 45.5673 23.3447 45.7022 23.1749 45.8372C23.1489 45.8201 23.1228 45.803 23.0968 45.7859C23.1736 45.5746 23.2504 45.3633 23.3382 45.122C23.2472 45.173 23.1684 45.2171 23.0512 45.2826C23.2497 44.5429 23.6014 43.9257 24.1034 43.3009C23.95 43.3387 23.8719 43.358 23.7823 43.3801C23.7759 43.3477 23.7597 43.3172 23.7671 43.2942C23.8383 43.0724 23.9144 42.8523 23.9869 42.631C24.0065 42.5711 24.0515 42.4904 24.029 42.4506C23.8438 42.1232 24.104 41.9281 24.2336 41.6876C24.3386 41.4927 24.4106 41.2802 24.529 41.0007C24.3383 41.0495 24.253 41.0714 24.1678 41.0932C24.1446 41.0726 24.1215 41.0519 24.0983 41.0313C24.4487 40.554 24.799 40.0767 25.1653 39.5777C25.1443 39.5629 25.077 39.4906 25.0537 39.5027C24.8144 39.6261 24.6659 39.4523 24.4959 39.3485C23.8918 38.9799 23.2133 38.7353 22.7209 38.18C22.5441 37.9806 22.2311 37.8895 21.9668 37.7814C21.7627 37.6979 21.6507 37.5884 21.6646 37.3608C21.6863 37.0085 21.6838 36.6657 21.3509 36.4204C21.3078 36.3886 21.3239 36.2276 21.3601 36.1478C21.4917 35.8588 21.6564 35.5846 21.7848 35.2944C22.0359 34.7271 21.9491 34.1813 21.6273 33.6676C21.5837 33.598 21.4832 33.5294 21.4038 33.523C21.2145 33.5076 21.0191 33.511 20.8315 33.5404C20.456 33.5992 20.3452 33.5224 20.326 33.1493C20.3249 33.1281 20.3257 33.1068 20.3254 33.0856C20.3168 32.4699 20.3638 32.4183 20.9655 32.3895C21.1146 32.3823 21.264 32.3821 21.4129 32.3723C21.475 32.3682 21.5806 32.3624 21.5907 32.3322C21.6999 32.0056 22.0381 32.0116 22.2648 31.8596C22.3159 31.8254 22.3779 31.7928 22.4373 31.7877C22.7406 31.7614 23.0448 31.7444 23.3487 31.7241C23.3903 31.7213 23.4343 31.7254 23.4732 31.7136C24.0063 31.5516 24.0204 31.5442 24.2538 32.0184C24.3773 32.2691 24.6089 32.3135 24.8178 32.3442C25.1187 32.3885 25.4311 32.3555 25.7798 32.3555C25.7363 31.7354 25.6532 31.1309 26.2103 30.7129H28.0014L28.0017 30.7129ZM32.5831 44.8512C32.5157 44.744 32.4681 44.676 32.4284 44.6037C32.2862 44.3451 31.9495 44.1397 32.2015 43.7691C32.2233 43.7371 32.1869 43.6321 32.1461 43.5974C31.9102 43.3963 31.6648 43.2062 31.4706 43.0509C31.3939 43.2473 31.2819 43.5339 31.145 43.8842C31.0813 43.7501 31.0541 43.693 31.013 43.6065C30.8548 43.9086 30.7143 44.1767 30.5654 44.4611C30.9101 44.7487 31.2497 45.0321 31.542 45.276C31.9075 45.1268 32.2365 44.9927 32.5831 44.8513V44.8512ZM29.6712 35.705C29.6746 36.1807 29.8621 36.4084 30.3407 36.519C30.4303 36.5398 30.5881 36.5434 30.6174 36.4958C30.7011 36.3598 30.8209 36.1551 30.7719 36.0461C30.6306 35.7318 30.4385 35.435 30.0117 35.4199C29.766 35.4113 29.6411 35.4712 29.6712 35.705ZM31.7989 36.2412C31.6437 36.2552 31.5126 36.228 31.4605 36.2796C31.3346 36.4045 31.2367 36.5611 31.1483 36.7166C31.1272 36.7538 31.173 36.8775 31.2132 36.8919C31.4177 36.9652 31.6507 37.097 31.8346 37.0517C32.0275 37.0041 32.1911 36.7904 32.3267 36.6177C32.3453 36.594 32.1409 36.3715 32.0149 36.2723C31.9526 36.2232 31.8338 36.245 31.7989 36.2412Z" fill="#95989D"/>
<path d="M38.4814 51.9089C38.7835 52.1954 39.0855 52.4819 39.422 52.8011C38.3872 52.6542 37.7026 51.947 36.8963 51.4721C36.8727 51.4948 36.8492 51.5175 36.8256 51.5402C37.1245 51.8403 37.4234 52.1405 37.7683 52.4868C36.9326 51.9542 36.1517 51.4565 35.3941 50.9736C35.7078 50.8797 35.942 51.1312 36.1914 51.3071C36.3486 51.418 36.4657 51.4542 36.6414 51.3456C36.7158 51.2996 36.8727 51.3125 36.9528 51.3618C37.2506 51.5451 37.532 51.7545 37.8418 51.9695C37.887 51.8152 37.925 51.6857 37.963 51.5559C37.9398 51.5274 37.9252 51.4924 37.8996 51.4803C37.3839 51.2354 37.0039 50.8601 36.7505 50.3477C36.6876 50.2204 36.5655 50.1175 36.4576 50.0173C35.8108 49.4175 35.1597 48.8225 34.5117 48.224C34.4292 48.1478 34.3562 48.0612 34.3223 47.9274C34.393 47.9767 34.4689 48.0201 34.5337 48.0763C35.336 48.7732 36.1386 49.4696 36.9356 50.1724C37.0696 50.2905 37.2134 50.4208 37.2898 50.576C37.4782 50.9585 37.7959 51.1816 38.1444 51.3963C38.6145 51.686 39.0722 51.9975 39.5211 52.3191C40.5277 53.0401 41.5269 53.7714 42.5251 54.504C42.6238 54.5764 42.7132 54.6759 42.7748 54.7814C43.26 55.6136 43.8935 56.3165 44.5764 56.996C45.499 57.9143 46.3538 58.8999 47.2379 59.8565C47.4307 60.065 47.6242 60.273 47.781 60.5369C47.5641 60.3771 47.3239 60.2406 47.1344 60.0534C46.3414 59.2706 45.5331 58.4996 44.7887 57.6725C44.0158 56.8136 43.3103 55.8946 42.5736 55.0032C42.5272 54.9471 42.4711 54.8961 42.4113 54.8542C41.7516 54.3927 41.0773 53.9507 40.4351 53.4665C40.1251 53.2327 39.8377 52.9481 39.6061 52.6378C39.3192 52.2532 38.929 52.0532 38.4816 51.9089L38.4814 51.9089Z" fill="#95989D"/>
<path d="M36.5385 55.9635C34.803 54.4757 33.0675 52.9879 31.332 51.5001C31.3476 51.4594 31.3632 51.4186 31.3788 51.3779C31.7336 51.6062 32.0954 51.9952 32.444 51.289C32.6995 51.6206 32.9786 51.8709 33.1161 52.1829C33.4976 53.0491 34.2047 53.6383 34.8363 54.2899C35.0278 54.4875 35.3166 54.5917 35.6017 54.7633C35.2638 54.1065 34.9479 53.4923 34.588 52.7926C34.9053 53.1323 35.1643 53.405 35.4161 53.6842C35.4542 53.7265 35.4904 53.811 35.4733 53.8556C35.3675 54.1318 35.5408 54.3221 35.669 54.5228C35.9696 54.9933 36.2778 55.4591 36.5829 55.9267C36.5681 55.939 36.5534 55.9513 36.5385 55.9636L36.5385 55.9635Z" fill="#95989D"/>
<path d="M32.582 49.178C33.082 49.6255 33.582 50.073 34.082 50.5205C34.0714 50.5378 34.0607 50.5552 34.0501 50.5724C33.9259 50.4888 33.8016 50.4052 33.6533 50.3053C33.8523 50.8595 34.1293 51.1252 34.326 51.099C34.9158 51.6874 35.4568 52.2272 35.9979 52.767C35.9917 52.7789 35.9855 52.7909 35.9793 52.8028C35.6236 52.6054 35.2679 52.4078 34.8327 52.1662C34.8833 52.4415 34.9223 52.6543 34.9615 52.8673C34.2845 51.5653 33.5975 50.2679 32.582 49.178Z" fill="#95989D"/>
<path d="M30.04 54.4955C29.7907 53.9844 29.5414 53.4733 29.2559 52.8879C29.4154 53.0876 29.5361 53.2388 29.6568 53.3899C29.688 53.3799 29.7191 53.3699 29.7503 53.3598C29.7221 52.756 29.6938 52.1521 29.6656 51.5482C30.052 52.5191 30.102 53.542 30.2411 54.5969C30.1379 54.5423 30.0846 54.5141 30.0313 54.4859L30.04 54.4954V54.4955Z" fill="#95989D"/>
<path d="M30.0394 45.4274C30.4297 45.9354 30.8201 46.4433 31.2104 46.9513L31.1331 47.0077C30.9812 46.8707 30.8162 46.7452 30.6806 46.5937C30.5267 46.4217 30.383 46.236 30.2647 46.0386C30.1542 45.8542 30.0827 45.6466 29.9941 45.4492C30.0092 45.4419 30.0243 45.4347 30.0394 45.4274Z" fill="#95989D"/>
<path d="M30.033 54.4861C30.0892 54.7519 30.1454 55.0176 30.2044 55.297C30.0098 55.2085 29.8285 55.1467 29.6747 55.044C29.6242 55.0104 29.6015 54.8294 29.6416 54.7878C29.7543 54.6707 29.9063 54.591 30.0422 54.4961C30.0416 54.4955 30.0331 54.4861 30.0331 54.4861H30.033Z" fill="#95989D"/>
<path d="M32.0248 53.8813C31.8474 53.4388 31.6486 52.9427 31.4648 52.4843C31.5771 52.5558 31.7429 52.6613 31.9124 52.769C31.9512 53.1532 31.9914 53.5506 32.0248 53.8813Z" fill="#95989D"/>
<path d="M29.6573 50.3878L30.0164 51.4319C29.4089 51.2447 29.8287 50.7119 29.5527 50.4135C29.5876 50.4049 29.6225 50.3963 29.6573 50.3878Z" fill="#95989D"/>
<path d="M31.0633 51.8543C30.9623 51.6527 30.8728 51.4737 30.7832 51.2947C30.8049 51.2718 30.8266 51.2489 30.8483 51.226C31.007 51.3263 31.1657 51.4266 31.3347 51.5335C31.2418 51.6433 31.1666 51.7323 31.0633 51.8544V51.8543Z" fill="#95989D"/>
<path d="M35.5606 51.8772C35.388 51.6892 35.2321 51.5195 35.0762 51.3497C35.0847 51.3273 35.0934 51.3049 35.102 51.2825C35.2688 51.3069 35.4355 51.3313 35.5606 51.3496V51.8772Z" fill="#95989D"/>
<path d="M37.9653 53.1735L37.1992 52.6132L37.278 52.5019L38.0455 53.0601L37.9653 53.1735Z" fill="#95989D"/>
<path d="M35.3696 53.2508C35.2515 53.0155 35.16 52.8332 35.0684 52.651C35.0957 52.638 35.1231 52.6252 35.1504 52.6123C35.2631 52.7949 35.5741 52.8861 35.3695 53.2507L35.3696 53.2508Z" fill="#95989D"/>
</svg>
