<svg xmlns="http://www.w3.org/2000/svg" width="180" height="186" fill="none"><path fill="#fff" d="M0 0h180v186H0z"/><path fill="#000" d="M20.16 25.56h1.904l3.056 5.472h.032l3.088-5.472h1.888l-4.112 6.864V37h-1.76v-4.576L20.16 25.56Zm12.603 11.68c-2.544 0-4.08-1.76-4.08-4.32 0-2.544 1.536-4.336 4.08-4.336s4.08 1.776 4.08 4.32c0 2.56-1.536 4.336-4.08 4.336Zm0-1.296c1.664 0 2.448-1.328 2.448-3.024 0-1.712-.784-3.024-2.448-3.024-1.68 0-2.448 1.312-2.448 3.024 0 1.696.768 3.024 2.448 3.024Zm6.886-1.888c0 1.104.48 1.84 1.648 1.84 1.344 0 2.208-.816 2.208-2.048V28.84h1.567V37h-1.568v-1.024h-.032c-.431.624-1.28 1.248-2.688 1.248-1.503 0-2.72-.864-2.72-2.736V28.84h1.584v5.216Zm7.183-5.216H48.4v1.552h.032c.416-1.024 1.088-1.744 2.192-1.744.288 0 .512.016.752.048V30.2a3.232 3.232 0 0 0-.528-.048c-1.424 0-2.448 1.072-2.448 2.624V37h-1.568v-8.16Zm17.475.608c-.208-1.12-.912-2.592-3.104-2.592-2.528 0-3.488 2.144-3.488 4.416 0 2.288.96 4.432 3.488 4.432 2.208 0 2.992-1.472 3.104-2.864h1.84c-.256 2.544-2.032 4.384-4.928 4.384-3.248 0-5.328-2.496-5.328-5.936 0-3.456 2.096-5.952 5.344-5.952 2.88 0 4.64 1.824 4.912 4.112h-1.84Zm3.181-3.888h1.568V37h-1.568V25.56Zm5.523 11.664c-1.632 0-2.672-.944-2.672-2.336 0-1.824 1.376-2.352 3.408-2.752 1.28-.24 2.064-.4 2.064-1.2 0-.592-.352-1.088-1.552-1.088-1.424 0-1.856.448-1.936 1.536h-1.6c.08-1.568 1.104-2.8 3.6-2.8 1.68 0 3.024.704 3.024 2.816v3.744c0 .592.08.896.384.896.048 0 .096 0 .192-.016v.96a3.52 3.52 0 0 1-.8.096c-.768 0-1.2-.304-1.28-1.232h-.032c-.544.848-1.472 1.376-2.8 1.376Zm.352-1.264c1.408 0 2.448-.72 2.448-2.144v-1.168c-.256.24-.96.416-1.792.592-1.44.304-2.032.688-2.032 1.536 0 .768.4 1.184 1.376 1.184Zm5.716-10.272h1.776v1.696H79.08v-1.696Zm.112 3.152h1.568V37h-1.568v-8.16ZM82.504 37v-8.16h1.568v1.024h.032c.432-.624 1.184-1.264 2.416-1.264 1.136 0 1.824.512 2.16 1.424h.032c.592-.784 1.408-1.424 2.672-1.424 1.648 0 2.48.992 2.48 2.736V37h-1.568v-5.232c0-1.088-.224-1.824-1.424-1.824-1.168 0-1.904.816-1.904 2.048V37H87.4v-5.232c0-1.088-.224-1.824-1.424-1.824-1.168 0-1.904.816-1.904 2.048V37h-1.568Zm16.473-4.928c1.488.352 3.12.784 3.12 2.608 0 1.584-1.216 2.544-3.36 2.544-2.48 0-3.712-1.28-3.76-2.944h1.584c.08.944.64 1.68 2.16 1.68 1.376 0 1.744-.608 1.744-1.2 0-1.024-1.088-1.136-2.144-1.36-1.424-.32-3.056-.752-3.056-2.448 0-1.408 1.136-2.352 3.12-2.352 2.224 0 3.296 1.2 3.408 2.608h-1.584c-.112-.624-.432-1.344-1.808-1.344-1.04 0-1.504.416-1.504 1.024 0 .848.912.912 2.08 1.184Z"/><path stroke="#000" stroke-linecap="square" d="M20 58h140M20 96h140M20 134h140" opacity=".1"/><path fill="#000" d="M23.878 83.414v-1.246c-1.946-.196-3.416-1.33-3.514-3.36h1.428c.098 1.218.798 1.96 2.086 2.128V77.59l-.028-.014c-1.456-.392-3.094-.994-3.094-2.674 0-1.582 1.204-2.618 3.122-2.688v-.994h.84v1.036c1.708.196 2.898 1.26 3.01 3.08H26.3c-.126-1.05-.672-1.652-1.582-1.834v2.968c1.918.56 3.262 1.064 3.262 2.996 0 1.47-1.092 2.646-3.262 2.73v1.218h-.84Zm-1.694-8.652c0 .826.686 1.148 1.694 1.456v-2.772c-1.036.056-1.694.532-1.694 1.316Zm4.354 4.746c0-.924-.588-1.302-1.82-1.68v3.15c1.344-.07 1.82-.658 1.82-1.47Zm6.46-4.018c1.834 0 3.108 1.358 3.108 3.206 0 2.142-1.54 3.5-3.528 3.5-2.31 0-3.57-1.4-3.626-3.024h1.54c.098.882.616 1.722 2.002 1.722 1.232 0 2.044-.756 2.044-2.198 0-1.358-.742-1.974-1.946-1.974-.784 0-1.498.266-1.96.868h-1.554l1.036-5.264h5.502v1.302h-4.34l-.532 2.674v.028c.504-.518 1.218-.84 2.254-.84Zm8.15 6.706c-2.703 0-3.85-2.254-3.85-5.026s1.147-5.04 3.85-5.04c2.701 0 3.85 2.268 3.85 5.04 0 2.772-1.149 5.026-3.85 5.026Zm0-1.302c1.75 0 2.267-1.736 2.267-3.724 0-1.988-.518-3.738-2.268-3.738-1.736 0-2.268 1.75-2.268 3.738s.532 3.724 2.268 3.724Z"/><path fill="#D9F4F7" d="M103 115c0-6.075 4.925-11 11-11h35c6.075 0 11 4.925 11 11s-4.925 11-11 11h-35c-6.075 0-11-4.925-11-11Z"/><path fill="#000" d="M111.61 119v-7.15h3.05c1.47 0 2.42.75 2.42 2.05 0 1-.51 1.58-1.33 1.78v.02c1.65.31 1.05 3.11 1.43 3.23v.07h-1.25c-.33-.3.34-2.76-1.38-2.76h-1.75V119h-1.19Zm1.19-6.14v2.36h1.61c.73 0 1.49-.14 1.49-1.18 0-1.03-.76-1.18-1.49-1.18h-1.61Zm7.356 5.43c.87 0 1.22-.54 1.31-.85h1.05c-.26.97-1.02 1.71-2.33 1.71-1.59 0-2.56-1.1-2.56-2.7 0-1.66.97-2.7 2.51-2.7 1.65 0 2.46 1.15 2.46 2.97h-3.92c0 .86.55 1.57 1.48 1.57Zm-.02-3.71c-.85 0-1.46.57-1.46 1.36h2.87c0-.79-.56-1.36-1.41-1.36Zm6.7 1.18c-.04-.52-.37-1.15-1.27-1.15-1.03 0-1.47.88-1.47 1.84 0 .96.43 1.84 1.47 1.84.9 0 1.23-.62 1.27-1.19h1.05c-.08 1.18-.99 2.05-2.32 2.05-1.53 0-2.52-1.1-2.52-2.7s.99-2.7 2.51-2.7c1.33 0 2.2.85 2.33 2.01h-1.05Zm4.004 2.53c.87 0 1.22-.54 1.31-.85h1.05c-.26.97-1.02 1.71-2.33 1.71-1.59 0-2.56-1.1-2.56-2.7 0-1.66.97-2.7 2.51-2.7 1.65 0 2.46 1.15 2.46 2.97h-3.92c0 .86.55 1.57 1.48 1.57Zm-.02-3.71c-.85 0-1.46.57-1.46 1.36h2.87c0-.79-.56-1.36-1.41-1.36Zm3.77-1.55c-.29 0-.59-.2-.59-.56 0-.36.3-.55.59-.55.31 0 .6.19.6.55 0 .36-.29.56-.6.56Zm-.52.86h1.05V119h-1.05v-5.11Zm1.618 0h1.11l1.29 4h.01l1.29-4h1.11l-1.81 5.11h-1.19l-1.81-5.11Zm7.447 4.4c.87 0 1.22-.54 1.31-.85h1.05c-.26.97-1.02 1.71-2.33 1.71-1.59 0-2.56-1.1-2.56-2.7 0-1.66.97-2.7 2.51-2.7 1.65 0 2.46 1.15 2.46 2.97h-3.92c0 .86.55 1.57 1.48 1.57Zm-.02-3.71c-.85 0-1.46.57-1.46 1.36h2.87c0-.79-.56-1.36-1.41-1.36Zm6.77-2.73h1.05V119h-1.05v-.59h-.02c-.27.35-.77.74-1.56.74-1.31 0-2.28-1.02-2.28-2.7 0-1.68.97-2.7 2.28-2.7.79 0 1.29.37 1.56.76h.02v-2.66Zm-1.4 6.44c.86 0 1.39-.71 1.39-1.84 0-1.14-.53-1.84-1.39-1.84-.92 0-1.41.84-1.41 1.84s.49 1.84 1.41 1.84ZM23.878 121.414v-1.246c-1.946-.196-3.416-1.33-3.514-3.36h1.428c.098 1.218.798 1.96 2.086 2.128v-3.346l-.028-.014c-1.456-.392-3.094-.994-3.094-2.674 0-1.582 1.204-2.618 3.122-2.688v-.994h.84v1.036c1.708.196 2.898 1.26 3.01 3.08H26.3c-.126-1.05-.672-1.652-1.582-1.834v2.968c1.918.56 3.262 1.064 3.262 2.996 0 1.47-1.092 2.646-3.262 2.73v1.218h-.84Zm-1.694-8.652c0 .826.686 1.148 1.694 1.456v-2.772c-1.036.056-1.694.532-1.694 1.316Zm4.354 4.746c0-.924-.588-1.302-1.82-1.68v3.15c1.344-.07 1.82-.658 1.82-1.47Zm4.766-7.182h1.204V120h-1.512v-7.182c-.406.392-1.162.462-2.03.462v-1.232c1.708-.042 2.226-.56 2.338-1.722Zm6.726 9.87c-2.702 0-3.85-2.254-3.85-5.026s1.148-5.04 3.85-5.04 3.85 2.268 3.85 5.04c0 2.772-1.148 5.026-3.85 5.026Zm0-1.302c1.75 0 2.268-1.736 2.268-3.724 0-1.988-.518-3.738-2.268-3.738-1.736 0-2.268 1.75-2.268 3.738s.532 3.724 2.268 3.724Zm9.078 1.302c-2.702 0-3.85-2.254-3.85-5.026s1.148-5.04 3.85-5.04 3.85 2.268 3.85 5.04c0 2.772-1.148 5.026-3.85 5.026Zm0-1.302c1.75 0 2.268-1.736 2.268-3.724 0-1.988-.518-3.738-2.268-3.738-1.736 0-2.268 1.75-2.268 3.738s.532 3.724 2.268 3.724Z"/><path fill="#D9F4F7" d="M103 77c0-6.075 4.925-11 11-11h35c6.075 0 11 4.925 11 11s-4.925 11-11 11h-35c-6.075 0-11-4.925-11-11Z"/><path fill="#000" d="M111.61 81v-7.15h3.05c1.47 0 2.42.75 2.42 2.05 0 1-.51 1.58-1.33 1.78v.02c1.65.31 1.05 3.11 1.43 3.23V81h-1.25c-.33-.3.34-2.76-1.38-2.76h-1.75V81h-1.19Zm1.19-6.14v2.36h1.61c.73 0 1.49-.14 1.49-1.18 0-1.03-.76-1.18-1.49-1.18h-1.61Zm7.356 5.43c.87 0 1.22-.54 1.31-.85h1.05c-.26.97-1.02 1.71-2.33 1.71-1.59 0-2.56-1.1-2.56-2.7 0-1.66.97-2.7 2.51-2.7 1.65 0 2.46 1.15 2.46 2.97h-3.92c0 .86.55 1.57 1.48 1.57Zm-.02-3.71c-.85 0-1.46.57-1.46 1.36h2.87c0-.79-.56-1.36-1.41-1.36Zm6.7 1.18c-.04-.52-.37-1.15-1.27-1.15-1.03 0-1.47.88-1.47 1.84 0 .96.43 1.84 1.47 1.84.9 0 1.23-.62 1.27-1.19h1.05c-.08 1.18-.99 2.05-2.32 2.05-1.53 0-2.52-1.1-2.52-2.7s.99-2.7 2.51-2.7c1.33 0 2.2.85 2.33 2.01h-1.05Zm4.004 2.53c.87 0 1.22-.54 1.31-.85h1.05c-.26.97-1.02 1.71-2.33 1.71-1.59 0-2.56-1.1-2.56-2.7 0-1.66.97-2.7 2.51-2.7 1.65 0 2.46 1.15 2.46 2.97h-3.92c0 .86.55 1.57 1.48 1.57Zm-.02-3.71c-.85 0-1.46.57-1.46 1.36h2.87c0-.79-.56-1.36-1.41-1.36Zm3.77-1.55c-.29 0-.59-.2-.59-.56 0-.36.3-.55.59-.55.31 0 .6.19.6.55 0 .36-.29.56-.6.56Zm-.52.86h1.05V81h-1.05v-5.11Zm1.618 0h1.11l1.29 4h.01l1.29-4h1.11l-1.81 5.11h-1.19l-1.81-5.11Zm7.447 4.4c.87 0 1.22-.54 1.31-.85h1.05c-.26.97-1.02 1.71-2.33 1.71-1.59 0-2.56-1.1-2.56-2.7 0-1.66.97-2.7 2.51-2.7 1.65 0 2.46 1.15 2.46 2.97h-3.92c0 .86.55 1.57 1.48 1.57Zm-.02-3.71c-.85 0-1.46.57-1.46 1.36h2.87c0-.79-.56-1.36-1.41-1.36Zm6.77-2.73h1.05V81h-1.05v-.59h-.02c-.27.35-.77.74-1.56.74-1.31 0-2.28-1.02-2.28-2.7 0-1.68.97-2.7 2.28-2.7.79 0 1.29.37 1.56.76h.02v-2.66Zm-1.4 6.44c.86 0 1.39-.71 1.39-1.84 0-1.14-.53-1.84-1.39-1.84-.92 0-1.41.84-1.41 1.84s.49 1.84 1.41 1.84Z"/><path fill="#D9F4F7" d="M103 153c0-6.075 4.925-11 11-11h35c6.075 0 11 4.925 11 11s-4.925 11-11 11h-35c-6.075 0-11-4.925-11-11Z"/><path fill="#000" d="M111.61 157v-7.15h3.05c1.47 0 2.42.75 2.42 2.05 0 1-.51 1.58-1.33 1.78v.02c1.65.31 1.05 3.11 1.43 3.23v.07h-1.25c-.33-.3.34-2.76-1.38-2.76h-1.75V157h-1.19Zm1.19-6.14v2.36h1.61c.73 0 1.49-.14 1.49-1.18 0-1.03-.76-1.18-1.49-1.18h-1.61Zm7.356 5.43c.87 0 1.22-.54 1.31-.85h1.05c-.26.97-1.02 1.71-2.33 1.71-1.59 0-2.56-1.1-2.56-2.7 0-1.66.97-2.7 2.51-2.7 1.65 0 2.46 1.15 2.46 2.97h-3.92c0 .86.55 1.57 1.48 1.57Zm-.02-3.71c-.85 0-1.46.57-1.46 1.36h2.87c0-.79-.56-1.36-1.41-1.36Zm6.7 1.18c-.04-.52-.37-1.15-1.27-1.15-1.03 0-1.47.88-1.47 1.84 0 .96.43 1.84 1.47 1.84.9 0 1.23-.62 1.27-1.19h1.05c-.08 1.18-.99 2.05-2.32 2.05-1.53 0-2.52-1.1-2.52-2.7s.99-2.7 2.51-2.7c1.33 0 2.2.85 2.33 2.01h-1.05Zm4.004 2.53c.87 0 1.22-.54 1.31-.85h1.05c-.26.97-1.02 1.71-2.33 1.71-1.59 0-2.56-1.1-2.56-2.7 0-1.66.97-2.7 2.51-2.7 1.65 0 2.46 1.15 2.46 2.97h-3.92c0 .86.55 1.57 1.48 1.57Zm-.02-3.71c-.85 0-1.46.57-1.46 1.36h2.87c0-.79-.56-1.36-1.41-1.36Zm3.77-1.55c-.29 0-.59-.2-.59-.56 0-.36.3-.55.59-.55.31 0 .6.19.6.55 0 .36-.29.56-.6.56Zm-.52.86h1.05V157h-1.05v-5.11Zm1.618 0h1.11l1.29 4h.01l1.29-4h1.11l-1.81 5.11h-1.19l-1.81-5.11Zm7.447 4.4c.87 0 1.22-.54 1.31-.85h1.05c-.26.97-1.02 1.71-2.33 1.71-1.59 0-2.56-1.1-2.56-2.7 0-1.66.97-2.7 2.51-2.7 1.65 0 2.46 1.15 2.46 2.97h-3.92c0 .86.55 1.57 1.48 1.57Zm-.02-3.71c-.85 0-1.46.57-1.46 1.36h2.87c0-.79-.56-1.36-1.41-1.36Zm6.77-2.73h1.05V157h-1.05v-.59h-.02c-.27.35-.77.74-1.56.74-1.31 0-2.28-1.02-2.28-2.7 0-1.68.97-2.7 2.28-2.7.79 0 1.29.37 1.56.76h.02v-2.66Zm-1.4 6.44c.86 0 1.39-.71 1.39-1.84 0-1.14-.53-1.84-1.39-1.84-.92 0-1.41.84-1.41 1.84s.49 1.84 1.41 1.84ZM23.878 159.414v-1.246c-1.946-.196-3.416-1.33-3.514-3.36h1.428c.098 1.218.798 1.96 2.086 2.128v-3.346l-.028-.014c-1.456-.392-3.094-.994-3.094-2.674 0-1.582 1.204-2.618 3.122-2.688v-.994h.84v1.036c1.708.196 2.898 1.26 3.01 3.08H26.3c-.126-1.05-.672-1.652-1.582-1.834v2.968c1.918.56 3.262 1.064 3.262 2.996 0 1.47-1.092 2.646-3.262 2.73v1.218h-.84Zm-1.694-8.652c0 .826.686 1.148 1.694 1.456v-2.772c-1.036.056-1.694.532-1.694 1.316Zm4.354 4.746c0-.924-.588-1.302-1.82-1.68v3.15c1.344-.07 1.82-.658 1.82-1.47Zm6.222 2.688c-2.1 0-3.71-.966-3.71-2.926 0-1.33.868-2.002 1.792-2.408v-.028c-.686-.364-1.316-.98-1.316-2.072 0-1.666 1.358-2.632 3.234-2.632s3.234.966 3.234 2.632c0 1.092-.644 1.708-1.316 2.072v.028c.91.406 1.792 1.078 1.792 2.408 0 1.96-1.61 2.926-3.71 2.926Zm0-5.936c1.092 0 1.736-.462 1.736-1.442 0-.966-.644-1.456-1.736-1.456s-1.736.49-1.736 1.456c0 .98.644 1.442 1.736 1.442Zm0 4.676c1.344 0 2.142-.644 2.142-1.75 0-1.078-.798-1.722-2.142-1.722-1.344 0-2.142.644-2.142 1.722 0 1.106.798 1.75 2.142 1.75Zm8.688 1.26c-2.702 0-3.85-2.254-3.85-5.026s1.148-5.04 3.85-5.04 3.85 2.268 3.85 5.04c0 2.772-1.148 5.026-3.85 5.026Zm0-1.302c1.75 0 2.268-1.736 2.268-3.724 0-1.988-.518-3.738-2.268-3.738-1.736 0-2.268 1.75-2.268 3.738s.532 3.724 2.268 3.724Z"/><path fill="url(#a)" d="M0 110h180v64c0 6.627-5.373 12-12 12H12c-6.627 0-12-5.373-12-12v-64Z"/><defs><linearGradient id="a" x1="90" x2="90" y1="110" y2="186" gradientUnits="userSpaceOnUse"><stop stop-color="#fff" stop-opacity="0"/><stop offset=".84" stop-color="#fff"/></linearGradient></defs></svg>