<svg width="144" height="96" viewBox="0 0 144 96" fill="none" xmlns="http://www.w3.org/2000/svg">
<g clip-path="url(#clip0_9_2)">
<mask id="mask0_9_2" style="mask-type:luminance" maskUnits="userSpaceOnUse" x="4" y="33" width="136" height="16">
<path d="M139.443 33.7548H4.55664V48.2454H139.443V33.7548Z" fill="white"/>
</mask>
<g mask="url(#mask0_9_2)">
<mask id="mask1_9_2" style="mask-type:luminance" maskUnits="userSpaceOnUse" x="4" y="33" width="136" height="16">
<path d="M139.443 33.7548H4.55664V48.2453H139.443V33.7548Z" fill="white"/>
</mask>
<g mask="url(#mask1_9_2)">
<mask id="mask2_9_2" style="mask-type:luminance" maskUnits="userSpaceOnUse" x="4" y="33" width="135" height="16">
<path d="M138.837 48.2453H4.90723V33.7547H138.837V48.2453Z" fill="white"/>
</mask>
<g mask="url(#mask2_9_2)">
<mask id="mask3_9_2" style="mask-type:luminance" maskUnits="userSpaceOnUse" x="4" y="33" width="135" height="16">
<path d="M138.837 48.2453H4.90723V33.7548H138.837V48.2453Z" fill="white"/>
</mask>
<g mask="url(#mask3_9_2)">
<path d="M17.7907 44.695L17.8915 45.3669C17.931 45.6395 17.8288 45.8734 17.4984 45.8885C17.1279 45.9056 16.995 45.6975 16.9521 45.4018L16.5583 42.5175C16.5154 42.2448 16.5863 41.9629 16.9242 41.9629C17.1715 41.9385 17.3929 42.1124 17.4181 42.3515C17.4201 42.3686 17.4208 42.3857 17.4201 42.4035L17.5638 43.02C17.5754 43.1919 17.726 43.3243 17.9045 43.3184H19.9182C20.126 43.3408 20.3154 43.2025 20.3494 43.0029C20.3603 42.9397 20.3549 42.8745 20.3338 42.8139C20.2193 42.4319 19.8753 41.4307 19.6886 40.8326C19.581 40.4967 19.331 40.2596 19.0735 40.2596H14.4254C13.9526 40.2596 13.74 40.7635 13.7502 41.0019C13.7782 41.5005 13.849 46.9858 13.8701 47.6004C13.8845 47.9495 14.1747 48.2294 14.5357 48.2419L21.0259 48.2301C21.4987 48.2301 21.8312 47.9837 21.6554 47.3692C21.4939 46.81 20.9769 44.9908 20.8692 44.7168C20.7671 44.4889 20.5504 44.3281 20.2963 44.2932H18.1327C17.9324 44.3288 17.7866 44.4968 17.7853 44.6937L17.7921 44.6957L17.7907 44.695ZM6.10398 44.286H8.16951C8.43042 44.286 8.56258 44.6074 8.5074 44.9894C8.47675 45.2529 8.46244 45.3161 8.46244 45.3161C8.46244 45.3161 8.41544 45.7937 8.87664 45.8292C9.11916 45.8641 9.34533 45.7021 9.38144 45.4676C9.38144 45.4657 9.38144 45.463 9.38212 45.461C9.38212 45.461 10.0899 41.3457 10.1356 40.9143C10.1805 40.4829 10.4088 40.2563 10.8039 40.2563H12.2127C12.6432 40.2563 12.8694 40.5382 12.8755 40.9973C12.8755 41.27 12.8183 47.1815 12.8183 47.545C12.836 47.8955 12.569 48.1991 12.2079 48.238H5.59986C5.33486 48.2373 4.78032 48.1082 4.93497 47.4028C4.93497 47.4028 5.38118 45.3728 5.46974 44.9815C5.55762 44.5896 5.66798 44.286 6.10398 44.286ZM138.836 47.7697H134.508V46.0123H134.471C133.928 47.4383 132.669 48.0055 131.38 48.0055C128.942 48.0055 128.052 46.6394 128.052 44.6647V37.6078H132.635V43.4653C132.635 44.0508 132.635 44.8511 133.435 44.8511C134.236 44.8511 134.253 44.0508 134.253 43.4653V37.6072H138.837V47.7795V47.769L138.836 47.7697ZM119.755 37.5973V35.2584L124.338 33.7546V37.6065H126.408V40.5362H124.336V43.3994C124.336 44.2577 124.729 44.7352 125.336 44.7352C125.7 44.7411 126.064 44.6812 126.406 44.5593V47.4877C125.392 47.8243 124.33 48.0022 123.259 48.0147C120.899 48.0147 119.75 46.7435 119.75 44.0482V40.5277H118.144V37.6072H119.763L119.755 37.5973ZM116.608 47.7697H112.28V46.0123H112.243C111.7 47.4383 110.445 48.0055 109.153 48.0055C106.718 48.0055 105.826 46.6394 105.826 44.6647V37.6078H110.407V43.4653C110.407 44.0508 110.407 44.8511 111.207 44.8511C112.008 44.8511 112.026 44.0508 112.026 43.4653V37.6072H116.609V47.7795L116.607 47.769L116.608 47.7697ZM98.7537 45.0757C99.6468 45.0757 99.7701 43.981 99.7701 42.4997C99.7701 41.2878 99.6441 40.2919 98.7551 40.2919C97.866 40.2919 97.7564 41.2878 97.7564 42.4997C97.7564 43.9784 97.8681 45.0764 98.7551 45.0764L98.7537 45.0757ZM98.7551 37.3621C102.573 37.3621 104.644 39.0799 104.644 42.4984C104.644 46.0104 102.573 48.0048 98.7551 48.0048C94.9367 48.0048 92.8855 46.0104 92.8855 42.4984C92.8855 39.0779 94.9197 37.3621 98.7551 37.3621ZM91.7996 47.4588C90.668 47.7986 89.4929 47.9824 88.3082 48.0041C84.0933 48.0041 80.7096 45.6224 80.7096 40.7523C80.7096 36.1844 84.2357 33.9002 88.3089 33.9002C89.6557 33.9002 90.4541 34.0741 91.7621 34.3264V37.92C90.9637 37.6473 90.1455 37.4148 89.3287 37.4148C87.2536 37.4148 85.6922 38.607 85.6922 40.8313C85.6922 43.1755 87.146 44.3663 89.1659 44.3663C90.0706 44.3512 90.9637 44.1727 91.8002 43.8394L91.7996 47.4588ZM66.8198 37.6157H71.1477V39.373H71.1804C71.7254 37.945 72.9823 37.3799 74.2732 37.3799C76.71 37.3799 77.5997 38.7473 77.5997 40.7213V47.7835H73.0259V41.9332C73.0259 41.3602 73.0259 40.5514 72.2275 40.5514C71.429 40.5514 71.4093 41.351 71.4093 41.9332V47.7927H66.83V37.6223L66.8198 37.6157ZM61.1566 43.3322H60.709C59.7668 43.3322 58.6769 43.4317 58.6769 44.4777C58.6769 45.1798 59.0365 45.4545 59.7471 45.4545C60.6933 45.4545 61.1648 44.5165 61.1648 43.6392L61.1579 43.3322H61.1566ZM55.5758 37.9879C56.8504 37.5624 58.1932 37.3641 59.5393 37.4023C62.158 37.4023 65.3387 37.9101 65.3387 41.621V47.8065H61.0844V46.3292H61.0489C60.4113 47.4739 59.2484 48.0298 57.9561 48.0298C56.1855 48.0298 54.4845 47.169 54.4845 45.0408C54.4845 41.9168 57.1011 41.2943 59.3744 41.2943C59.9712 41.3108 60.5666 41.3563 61.1586 41.4313C61.1382 40.1219 59.884 39.9638 58.7416 39.9638C57.6298 39.9981 56.5439 40.2938 55.5765 40.8247V37.9734L55.5758 37.9879ZM49.5455 41.7554C49.5455 40.9756 49.4372 39.7419 48.403 39.7419C47.3689 39.7419 47.1121 40.9538 47.1652 41.7561L49.5455 41.7554ZM47.1856 43.9033C47.2579 45.1745 48.3656 45.4663 49.7131 45.4663C50.9679 45.4663 52.0954 45.2312 52.8223 44.8228V47.4588C51.6049 47.8711 50.1491 48.045 48.5481 48.045C44.7141 48.045 42.6785 46.0505 42.6785 42.5386C42.6785 39.1208 44.7148 37.4036 48.5481 37.4036C52.2241 37.4036 53.5124 39.8618 53.5124 43.298V43.9046H47.1822L47.1856 43.9033ZM41.4816 43.0405C41.4646 49.4512 29.551 50.4537 29.5585 41.5822H33.9763V42.5478C33.9763 44.0746 36.6652 44.1016 36.6775 42.5478V33.8284H41.4707L41.4802 43.0405H41.4816Z" fill="#95989D"/>
<path d="M16.3966 36.738C16.3959 36.9857 16.1881 37.1866 15.932 37.1879H10.6993C10.4432 37.1879 10.2354 36.987 10.2354 36.7394V36.7374C10.2354 36.4897 10.4425 36.2882 10.6993 36.2862H15.9272C16.1827 36.2855 16.3911 36.4851 16.3918 36.7321C16.3918 36.7341 16.3918 36.7354 16.3918 36.7374L16.3966 36.738ZM8.87634 42.9268C9.172 41.4238 9.437 40.5273 9.56507 39.841C9.58619 39.4972 9.89139 39.2344 10.2477 39.2535H18.5541C19.4949 39.2535 19.1447 38.5296 19.1447 38.5296L17.988 34.6837C17.988 34.6837 17.8837 34.1383 17.349 34.1383H8.49757C8.49757 34.1383 8.02478 34.1475 7.86537 34.768L6.00899 42.5468C6.00899 42.5468 5.73921 43.3095 6.49131 43.3095H8.36064C8.73532 43.3095 8.84977 43.156 8.89132 42.9288" fill="#95989D"/>
</g>
</g>
</g>
</g>
<path d="M78.8608 63V54.2727H80.4418V61.6747H84.2855V63H78.8608ZM86.4173 54.2727V55.142C86.4173 55.392 86.369 55.652 86.2724 55.9219C86.1786 56.1889 86.0494 56.4446 85.8846 56.6889C85.7198 56.9304 85.5323 57.1378 85.3221 57.3111L84.6062 56.8466C84.7624 56.6108 84.8988 56.3565 85.0153 56.0838C85.1317 55.8082 85.19 55.4972 85.19 55.1506V54.2727H86.4173ZM89.3246 54.2727V63H87.7436V54.2727H89.3246ZM89.4013 53.4886L88.5362 52.3977L87.6712 53.4886H86.3203V53.429L87.9354 51.5881H89.1413L90.7521 53.429V53.4886H89.4013ZM92.511 54.2727V63H90.9684V54.2727H92.511ZM96.995 63.1278C96.3388 63.1278 95.772 62.9915 95.2947 62.7188C94.8203 62.4432 94.4553 62.054 94.1996 61.5511C93.9439 61.0455 93.8161 60.4503 93.8161 59.7656C93.8161 59.0923 93.9439 58.5014 94.1996 57.9929C94.4581 57.4815 94.8189 57.0838 95.282 56.7997C95.745 56.5128 96.2891 56.3693 96.9141 56.3693C97.3175 56.3693 97.6982 56.4347 98.0561 56.5653C98.4169 56.6932 98.7351 56.892 99.0107 57.1619C99.2891 57.4318 99.5078 57.7756 99.6669 58.1932C99.826 58.608 99.9055 59.1023 99.9055 59.6761V60.1491H94.5405V59.1094H98.4268C98.424 58.8139 98.3601 58.5511 98.2351 58.321C98.1101 58.0881 97.9354 57.9048 97.7109 57.7713C97.4893 57.6378 97.2308 57.571 96.9354 57.571C96.62 57.571 96.343 57.6477 96.1044 57.8011C95.8658 57.9517 95.6797 58.1506 95.5462 58.3977C95.4155 58.642 95.3487 58.9105 95.3459 59.2031V60.1108C95.3459 60.4915 95.4155 60.8182 95.5547 61.0909C95.6939 61.3608 95.8885 61.5682 96.1385 61.7131C96.3885 61.8551 96.6811 61.9261 97.0163 61.9261C97.2408 61.9261 97.4439 61.8949 97.6257 61.8324C97.8075 61.767 97.9652 61.6719 98.0987 61.5469C98.2322 61.4219 98.3331 61.267 98.4013 61.0824L99.8416 61.2443C99.7507 61.625 99.5774 61.9574 99.3217 62.2415C99.0689 62.5227 98.745 62.7415 98.3501 62.8977C97.9553 63.0511 97.5036 63.1278 96.995 63.1278ZM104.255 63V54.2727H107.528C108.199 54.2727 108.761 54.3977 109.216 54.6477C109.673 54.8977 110.018 55.2415 110.251 55.679C110.487 56.1136 110.605 56.608 110.605 57.1619C110.605 57.7216 110.487 58.2187 110.251 58.6534C110.015 59.0881 109.667 59.4304 109.207 59.6804C108.747 59.9276 108.18 60.0511 107.507 60.0511H105.338V58.7514H107.294C107.686 58.7514 108.007 58.6832 108.257 58.5469C108.507 58.4105 108.691 58.223 108.811 57.9844C108.933 57.7457 108.994 57.4716 108.994 57.1619C108.994 56.8523 108.933 56.5795 108.811 56.3438C108.691 56.108 108.505 55.9247 108.252 55.794C108.002 55.6605 107.68 55.5938 107.285 55.5938H105.836V63H104.255ZM114.714 63.1278C114.058 63.1278 113.491 62.9915 113.013 62.7188C112.539 62.4432 112.174 62.054 111.918 61.5511C111.663 61.0455 111.535 60.4503 111.535 59.7656C111.535 59.0923 111.663 58.5014 111.918 57.9929C112.177 57.4815 112.538 57.0838 113.001 56.7997C113.464 56.5128 114.008 56.3693 114.633 56.3693C115.036 56.3693 115.417 56.4347 115.775 56.5653C116.136 56.6932 116.454 56.892 116.729 57.1619C117.008 57.4318 117.227 57.7756 117.386 58.1932C117.545 58.608 117.624 59.1023 117.624 59.6761V60.1491H112.259V59.1094H116.146C116.143 58.8139 116.079 58.5511 115.954 58.321C115.829 58.0881 115.654 57.9048 115.43 57.7713C115.208 57.6378 114.95 57.571 114.654 57.571C114.339 57.571 114.062 57.6477 113.823 57.8011C113.585 57.9517 113.398 58.1506 113.265 58.3977C113.134 58.642 113.067 58.9105 113.065 59.2031V60.1108C113.065 60.4915 113.134 60.8182 113.273 61.0909C113.413 61.3608 113.607 61.5682 113.857 61.7131C114.107 61.8551 114.4 61.9261 114.735 61.9261C114.96 61.9261 115.163 61.8949 115.344 61.8324C115.526 61.767 115.684 61.6719 115.817 61.5469C115.951 61.4219 116.052 61.267 116.12 61.0824L117.56 61.2443C117.469 61.625 117.296 61.9574 117.04 62.2415C116.788 62.5227 116.464 62.7415 116.069 62.8977C115.674 63.0511 115.222 63.1278 114.714 63.1278ZM118.929 63V56.4545H120.425V57.5455H120.493C120.613 57.1676 120.817 56.8764 121.107 56.6719C121.4 56.4645 121.733 56.3608 122.108 56.3608C122.194 56.3608 122.289 56.3651 122.394 56.3736C122.502 56.3793 122.591 56.3892 122.662 56.4034V57.8224C122.597 57.7997 122.493 57.7798 122.351 57.7628C122.212 57.7429 122.077 57.733 121.946 57.733C121.665 57.733 121.412 57.794 121.188 57.9162C120.966 58.0355 120.792 58.2017 120.664 58.4148C120.536 58.6278 120.472 58.8736 120.472 59.152V63H118.929ZM123.687 63V56.4545H125.183V57.5455H125.251C125.37 57.1676 125.575 56.8764 125.865 56.6719C126.157 56.4645 126.491 56.3608 126.866 56.3608C126.951 56.3608 127.047 56.3651 127.152 56.3736C127.26 56.3793 127.349 56.3892 127.42 56.4034V57.8224C127.355 57.7997 127.251 57.7798 127.109 57.7628C126.97 57.7429 126.835 57.733 126.704 57.733C126.423 57.733 126.17 57.794 125.946 57.9162C125.724 58.0355 125.549 58.2017 125.422 58.4148C125.294 58.6278 125.23 58.8736 125.23 59.152V63H123.687ZM131.031 63.1278C130.391 63.1278 129.837 62.9872 129.369 62.706C128.9 62.4247 128.536 62.0312 128.278 61.5256C128.022 61.0199 127.894 60.429 127.894 59.7528C127.894 59.0767 128.022 58.4844 128.278 57.9759C128.536 57.4673 128.9 57.0724 129.369 56.7912C129.837 56.5099 130.391 56.3693 131.031 56.3693C131.67 56.3693 132.224 56.5099 132.692 56.7912C133.161 57.0724 133.523 57.4673 133.779 57.9759C134.038 58.4844 134.167 59.0767 134.167 59.7528C134.167 60.429 134.038 61.0199 133.779 61.5256C133.523 62.0312 133.161 62.4247 132.692 62.706C132.224 62.9872 131.67 63.1278 131.031 63.1278ZM131.039 61.892C131.386 61.892 131.675 61.7969 131.908 61.6065C132.141 61.4134 132.315 61.1548 132.428 60.831C132.545 60.5071 132.603 60.1463 132.603 59.7486C132.603 59.348 132.545 58.9858 132.428 58.6619C132.315 58.3352 132.141 58.0753 131.908 57.8821C131.675 57.6889 131.386 57.5923 131.039 57.5923C130.684 57.5923 130.388 57.6889 130.153 57.8821C129.92 58.0753 129.745 58.3352 129.629 58.6619C129.515 58.9858 129.458 59.348 129.458 59.7486C129.458 60.1463 129.515 60.5071 129.629 60.831C129.745 61.1548 129.92 61.4134 130.153 61.6065C130.388 61.7969 130.684 61.892 131.039 61.892ZM138.745 56.4545V57.6477H134.982V56.4545H138.745ZM135.911 54.8864H137.453V61.0312C137.453 61.2386 137.485 61.3977 137.547 61.5085C137.613 61.6165 137.698 61.6903 137.803 61.7301C137.908 61.7699 138.025 61.7898 138.152 61.7898C138.249 61.7898 138.337 61.7827 138.417 61.7685C138.499 61.7543 138.561 61.7415 138.604 61.7301L138.864 62.9361C138.782 62.9645 138.664 62.9957 138.51 63.0298C138.36 63.0639 138.175 63.0838 137.956 63.0895C137.57 63.1009 137.222 63.0426 136.912 62.9148C136.603 62.7841 136.357 62.5824 136.175 62.3097C135.996 62.0369 135.908 61.696 135.911 61.2869V54.8864Z" fill="#95989D"/>
</g>
<defs>
<clipPath id="clip0_9_2">
<rect width="144" height="96" fill="white"/>
</clipPath>
</defs>
</svg>
