<?xml version="1.0" encoding="utf-8"?>
<!-- Generator: Adobe Illustrator 26.1.0, SVG Export Plug-In . SVG Version: 6.00 Build 0)  -->
<svg version="1.1" id="Layer_1" xmlns="http://www.w3.org/2000/svg" xmlns:xlink="http://www.w3.org/1999/xlink" x="0px" y="0px"
	 viewBox="0 0 1080 1080" style="enable-background:new 0 0 1080 1080;" xml:space="preserve">
<style type="text/css">
	.st0{fill:#00A551;}
	.st1{fill:#50B748;}
	.st2{fill:#BED630;}
	.st3{fill:#FFF100;}
	.st4{fill:#FFFFFF;}
	.st5{font-family:'MBCorpoSTitle-Bold';}
	.st6{font-size:195.6873px;}
	.st7{font-size:117.4124px;}
	.st8{font-size:85px;}
	.st9{fill:#EC1C24;}
	.st10{clip-path:url(#SVGID_00000183931833626485661750000000312318326076293023_);}
	.st11{fill:#F26F21;}
	.st12{clip-path:url(#SVGID_00000096741012952775014910000017005721581938457508_);}
	.st13{fill:#FCB813;}
	.st14{clip-path:url(#SVGID_00000139252117690393972450000015334261881485700744_);}
	.st15{clip-path:url(#SVGID_00000137838494321444726640000015235539733581087133_);}
	.st16{clip-path:url(#SVGID_00000039119397849823519070000001424863014243638917_);}
	.st17{clip-path:url(#SVGID_00000171678982420518920480000001646324425566971046_);}
</style>
<polygon class="st0" points="300.1,0 240,0 0,0 0,120.2 240,120.2 300.1,120.2 360,60.1 "/>
<polygon class="st1" points="419.3,140 395.9,140 386,140 372.5,140 359.2,140 0,140 0,260 359.2,260 372.5,260 386,260 395.9,260 
	419.3,260 479,200 "/>
<polygon class="st2" points="540.1,280 494.8,280 482.4,280 465.6,280 449,280 0,280 0,400 449,400 465.6,400 482.4,400 494.8,400 
	539.7,400 598.6,340 "/>
<g>
	<polygon class="st3" points="1080,540 966.6,420 959.3,420 958.8,420 861,420 839.5,420 810.2,420 0,420 0,540 0,660 810.2,660 
		839.5,660 861,660 958.8,660 959.3,660 966.6,660 	"/>
	<text transform="matrix(1 0 0 1 26.2593 605.3722)" class="st4 st5 st6">D</text>
	<text transform="matrix(1 0 0 1 191.8926 579.2457)" class="st4 st5 st7">141gCO</text>
	<text transform="matrix(1 0 0 1 571.2426 579.2457)" class="st4 st5 st8">2</text>
	<text transform="matrix(1 0 0 1 616.8026 579.2457)" class="st4 st5 st7">/km</text>
	<g>
		<polygon class="st9" points="1018,960 992.5,960 957.9,960 0,960 0,1080 957.9,1080 992.5,1080 1018,1080 1077.7,1020 		"/>
		<g>
			<g>
				<defs>
					<polygon id="SVGID_1_" points="140,960 136.6,960 131.8,960 0,960 0,1080 131.8,1080 136.6,1080 140,1080 					"/>
				</defs>
				<clipPath id="SVGID_00000160174527664257175750000002103177560642556084_">
					<use xlink:href="#SVGID_1_"  style="overflow:visible;"/>
				</clipPath>
				<g style="clip-path:url(#SVGID_00000160174527664257175750000002103177560642556084_);">
					<text transform="matrix(1 0 0 1 34.7073 1059.202)" class="st4 st5 st7">G</text>
				</g>
			</g>
		</g>
	</g>
	<g>
		<polygon class="st11" points="898.3,820 872.9,820 838.2,820 0,820 0,940 838.2,940 872.9,940 898.3,940 958,880 		"/>
		<g>
			<g>
				<defs>
					<polygon id="SVGID_00000062163253135444845250000006751506956865748386_" points="140,820 136.6,820 131.8,820 0,820 0,940 
						131.8,940 136.6,940 140,940 					"/>
				</defs>
				<clipPath id="SVGID_00000070102029870303077560000004398140806453208450_">
					<use xlink:href="#SVGID_00000062163253135444845250000006751506956865748386_"  style="overflow:visible;"/>
				</clipPath>
				<g style="clip-path:url(#SVGID_00000070102029870303077560000004398140806453208450_);">
					<text transform="matrix(1 0 0 1 31.4434 919.2312)" class="st4 st5 st7">F</text>
				</g>
			</g>
		</g>
	</g>
	<g>
		<polygon class="st13" points="777.9,680 752.5,680 717.9,680 0,680 0,800 717.9,800 752.5,800 777.9,800 837.6,740 		"/>
		<g>
			<g>
				<defs>
					<polygon id="SVGID_00000130624408508655883000000015421563984849861515_" points="140,680 136.6,680 131.8,680 0,680 0,800 
						131.8,800 136.6,800 140,800 					"/>
				</defs>
				<clipPath id="SVGID_00000008132822211481901630000013976057945794413452_">
					<use xlink:href="#SVGID_00000130624408508655883000000015421563984849861515_"  style="overflow:visible;"/>
				</clipPath>
				<g style="clip-path:url(#SVGID_00000008132822211481901630000013976057945794413452_);">
					<text transform="matrix(1 0 0 1 31.4434 779.2126)" class="st4 st5 st7">E</text>
				</g>
			</g>
		</g>
	</g>
	<g>
		<g>
			<g>
				<defs>
					<polygon id="SVGID_00000142885717289112907960000007262990192231670184_" points="140,280 136.6,280 131.8,280 0,280 0,400 
						131.8,400 136.6,400 140,400 					"/>
				</defs>
				<clipPath id="SVGID_00000011727853440940390590000010151699982996730263_">
					<use xlink:href="#SVGID_00000142885717289112907960000007262990192231670184_"  style="overflow:visible;"/>
				</clipPath>
				<g style="clip-path:url(#SVGID_00000011727853440940390590000010151699982996730263_);">
					<text transform="matrix(1 0 0 1 34.6833 379.1973)" class="st4 st5 st7">C</text>
				</g>
			</g>
		</g>
	</g>
	<g>
		<g>
			<g>
				<defs>
					<polygon id="SVGID_00000079471402831980663380000008184753318547778738_" points="140,140 136.6,140 131.8,140 0,140 0,260 
						131.8,260 136.6,260 140,260 					"/>
				</defs>
				<clipPath id="SVGID_00000105400975686720496540000005880644131420086171_">
					<use xlink:href="#SVGID_00000079471402831980663380000008184753318547778738_"  style="overflow:visible;"/>
				</clipPath>
				<g style="clip-path:url(#SVGID_00000105400975686720496540000005880644131420086171_);">
					<text transform="matrix(1 0 0 1 31.4595 239.2114)" class="st4 st5 st7">B</text>
				</g>
			</g>
		</g>
	</g>
	<g>
		<g>
			<g>
				<defs>
					<polygon id="SVGID_00000111886447533160720240000016505637582558074516_" points="140,0 136.6,0 131.8,0 0,0 0,120 131.8,120 
						136.6,120 140,120 					"/>
				</defs>
				<clipPath id="SVGID_00000163757270306650271730000015486213787770739378_">
					<use xlink:href="#SVGID_00000111886447533160720240000016505637582558074516_"  style="overflow:visible;"/>
				</clipPath>
				<g style="clip-path:url(#SVGID_00000163757270306650271730000015486213787770739378_);">
					<text transform="matrix(1 0 0 1 37.8423 99.2251)" class="st4 st5 st7">A</text>
				</g>
			</g>
		</g>
	</g>
</g>
</svg>
