<svg width="38" height="38" viewBox="0 0 38 38" fill="none" xmlns="http://www.w3.org/2000/svg">
<g id="Logos / MB Star" clip-path="url(#clip0_4757_8395)">
<path id="Vector" d="M35.4544 9.5C33.7869 6.61165 31.3883 4.21305 28.5 2.54547C25.6116 0.877901 22.3351 0 19 0C15.6648 0 12.3883 0.877901 9.49995 2.54547C6.6116 4.21305 4.21306 6.61165 2.54549 9.5C0.877904 12.3883 0 15.6648 0 19C0 22.3351 0.877904 25.6117 2.54549 28.5C4.21306 31.3883 6.6116 33.7869 9.49995 35.4545C12.3883 37.1221 15.6648 38 19 38C22.3351 38 25.6116 37.1221 28.5 35.4545C31.3883 33.7869 33.7869 31.3883 35.4544 28.5C37.1221 25.6117 38 22.3352 38 19C38 15.6648 37.122 12.3883 35.4544 9.5ZM1.89996 19C1.89996 15.9983 2.69008 13.0495 4.19094 10.45C5.69173 7.85049 7.85043 5.69185 10.45 4.19093C12.8948 2.77942 15.6486 1.99655 18.4647 1.90845L16.2831 17.4314L3.93062 27.0822C2.5989 24.5993 1.89996 21.823 1.89996 19ZM27.55 33.8091C24.9504 35.3099 22.0016 36.0999 19 36.0999C15.9983 36.0999 13.0495 35.3099 10.45 33.8091C8.00517 32.3976 5.95035 30.404 4.46593 28.0093L19 22.1372L33.5341 28.0093C32.0496 30.404 29.9948 32.3976 27.55 33.8091ZM34.0694 27.0822L21.7168 17.4314L19.5352 1.90845C22.3514 1.99656 25.1052 2.77943 27.55 4.19094C30.1495 5.69185 32.3082 7.85049 33.809 10.45C35.3099 13.0495 36.1 15.9984 36.1 19C36.1 21.823 35.401 24.5993 34.0694 27.0822Z" fill="white"/>
</g>
<defs>
<clipPath id="clip0_4757_8395">
<rect width="38" height="38" fill="white"/>
</clipPath>
</defs>
</svg>
